<svg width="24" height="24" viewBox="0 0 24 24" fill="none" xmlns="http://www.w3.org/2000/svg">
<path d="M24 11.2995V12.7061C23.9867 12.7728 23.9667 12.8395 23.96 12.9061C23.84 14.5794 23.4067 16.1726 22.5867 17.6326C20.3734 21.5591 17.0068 23.7057 12.5001 23.979C10.1335 24.119 7.9002 23.559 5.88022 22.3124C2.24027 20.0658 0.273627 16.7793 0.0202969 12.5061C-0.106368 10.3396 0.360292 8.27965 1.40695 6.37306C3.26692 2.98654 6.10689 0.91996 9.90684 0.186658C10.3668 0.099995 10.8335 0.0599975 11.2935 0C11.7602 0 12.2335 0 12.7001 0C12.7601 0.0133328 12.8201 0.0333303 12.8801 0.0399967C14.5535 0.153325 16.1401 0.593312 17.6067 1.39994C21 3.26653 23.0733 6.10641 23.8067 9.90625C23.8933 10.3662 23.9333 10.8329 23.9933 11.2929L24 11.2995ZM14.6934 17.7992C14.3335 17.8792 14.0135 17.9726 13.6801 18.0126C12.7468 18.1192 12.3401 17.7059 12.5068 16.7926C12.6401 16.0793 12.8335 15.3794 13.0135 14.6794C13.2535 13.7061 13.6201 12.7661 13.6801 11.7462C13.7268 10.8729 13.3335 10.1529 12.5335 9.81958C12.0068 9.59959 11.4535 9.57293 10.9002 9.6396C10.1335 9.73293 9.42685 10.0396 8.71352 10.3129C8.66686 10.3329 8.60019 10.3662 8.59352 10.4062C8.52686 10.6529 8.47353 10.9062 8.40019 11.1929C8.58019 11.1329 8.71352 11.0929 8.84685 11.0529C9.23352 10.9262 9.62684 10.8929 10.0268 10.9795C10.3402 11.0462 10.5335 11.1995 10.5468 11.5262C10.5668 11.9062 10.5602 12.2928 10.4735 12.6595C10.2868 13.4794 10.0468 14.2861 9.82017 15.0994C9.61351 15.826 9.40685 16.5526 9.38018 17.3193C9.35351 18.1459 9.77351 18.8125 10.5268 19.1325C11.1535 19.3925 11.8135 19.4392 12.4601 19.2925C13.1268 19.1325 13.7601 18.8659 14.4068 18.6459C14.4535 18.6325 14.5068 18.5792 14.5135 18.5392C14.5801 18.2992 14.6334 18.0592 14.6868 17.8126L14.6934 17.7992ZM11.1802 6.27307C11.2602 6.54639 11.2935 6.83971 11.4202 7.08637C11.8002 7.81301 12.6068 8.16632 13.4401 8.013C14.3935 7.83967 15.0134 6.97304 14.8601 6.02642C14.7534 5.34645 14.0535 4.65314 13.1268 4.61981C12.1401 4.57981 11.2935 5.29311 11.1735 6.27307H11.1802Z" fill="url(#paint0_linear_1130_62)"/>
<defs>
<linearGradient id="paint0_linear_1130_62" x1="12" y1="0" x2="12" y2="24" gradientUnits="userSpaceOnUse">
<stop stop-color="#DF7E8E"/>
<stop offset="1" stop-color="#AF4F64"/>
</linearGradient>
</defs>
</svg>
