<svg width="128" height="128" viewBox="0 0 128 128" fill="none" xmlns="http://www.w3.org/2000/svg">
<g clip-path="url(#clip0_1459_6688)">
<path fill-rule="evenodd" clip-rule="evenodd" d="M121.54 39.4098C124.257 39.4098 126.458 41.6117 126.458 44.3278C126.458 47.044 124.257 49.2459 121.54 49.2459H93.4373C96.1534 49.2459 98.3553 51.4478 98.3553 54.1639C98.3553 56.8801 96.1534 59.082 93.4373 59.082H108.894C111.61 59.082 113.812 61.2838 113.812 64C113.812 66.7162 111.61 68.9181 108.894 68.9181H101.746C98.3213 68.9181 95.545 71.1199 95.545 73.8361C95.545 75.6469 96.9501 77.2862 99.7605 78.7541C102.477 78.7541 104.678 80.956 104.678 83.6722C104.678 86.3883 102.477 88.5902 99.7605 88.5902H41.4465C38.7303 88.5902 36.5285 86.3883 36.5285 83.6722C36.5285 80.956 38.7303 78.7541 41.4465 78.7541H14.046C11.3298 78.7541 9.12793 76.5523 9.12793 73.8361C9.12793 71.1199 11.3298 68.9181 14.046 68.9181H42.1491C44.8652 68.9181 47.0671 66.7162 47.0671 64C47.0671 61.2838 44.8652 59.082 42.1491 59.082H24.5846C21.8685 59.082 19.6666 56.8801 19.6666 54.1639C19.6666 51.4478 21.8685 49.2459 24.5846 49.2459H52.6877C49.9716 49.2459 47.7697 47.044 47.7697 44.3278C47.7697 41.6117 49.9716 39.4098 52.6877 39.4098H121.54ZM121.54 59.082C124.257 59.082 126.458 61.2838 126.458 64C126.458 66.7162 124.257 68.9181 121.54 68.9181C118.824 68.9181 116.622 66.7162 116.622 64C116.622 61.2838 118.824 59.082 121.54 59.082Z" fill="#FFD0D9" fill-opacity="0.24"/>
<path fill-rule="evenodd" clip-rule="evenodd" d="M27.2331 59.7844H26.5672C22.307 59.7844 18.8535 56.336 18.8535 52.0821C18.8535 47.8282 22.307 44.3798 26.5672 44.3798C26.5947 44.3798 26.6221 44.3799 26.6496 44.3802C27.3353 38.4142 32.2172 33.7891 38.1376 33.7891C44.3777 33.7891 49.4641 38.9272 49.6995 45.3578C53.4727 45.6014 56.7927 49.2736 56.7927 53.1027C56.7927 56.2468 54.4644 59.7844 51.7059 59.7844H32.5245" fill="white"/>
<path d="M27.2331 59.7844H26.5672C22.307 59.7844 18.8535 56.336 18.8535 52.0821C18.8535 47.8282 22.307 44.3798 26.5672 44.3798C26.5947 44.3798 26.6221 44.3799 26.6496 44.3802C27.3353 38.4142 32.2172 33.7891 38.1376 33.7891C44.3777 33.7891 49.4641 38.9272 49.6995 45.3578C53.4727 45.6014 56.7927 49.2736 56.7927 53.1027C56.7927 56.2468 54.4644 59.7844 51.7059 59.7844H32.5245" stroke="#FFD0D9" stroke-width="2.5" stroke-linecap="round"/>
<path d="M69.3286 91.3388C69.2212 91.4738 69.1006 91.5965 68.969 91.7053C67.9295 92.5643 66.4056 92.4074 65.555 91.3388C58.3381 82.2724 52.9558 74.4296 49.3832 67.8027C45.7962 61.1491 44.1016 55.8434 44.1016 51.8179C44.1016 38.6489 54.5733 28.0134 67.4418 28.0134C80.3103 28.0134 90.782 38.6489 90.782 51.8179C90.782 55.8434 89.0873 61.1491 85.5003 67.8027C81.9278 74.4296 76.5455 82.2724 69.3286 91.3388Z" fill="white" stroke="#DF7E8E" stroke-width="2.5"/>
<path fill-rule="evenodd" clip-rule="evenodd" d="M49.1904 62.768C49.7802 64.0967 50.4673 65.5026 51.2564 66.9872C54.6143 73.3043 59.6951 80.8197 66.5454 89.5479C66.957 90.0723 67.6723 90.1397 68.1625 89.729C68.226 89.6757 68.2848 89.6151 68.3375 89.5479C75.1878 80.8197 80.2687 73.3043 83.6266 66.9872C87.0115 60.6192 88.5188 55.7003 88.5188 52.1014C88.5188 43.204 83.3906 35.587 76.062 32.1809C75.0786 35.5531 73.7362 38.7722 72.0788 41.794C76.0496 43.5942 78.8165 47.6352 78.8165 52.3316C78.8165 58.7032 73.7238 63.8683 67.4415 63.8683C63.2079 63.8683 59.5145 61.5227 57.5558 58.0429C54.9466 59.8827 52.1462 61.4697 49.1904 62.768Z" fill="#FFD0D9"/>
<path d="M55.5081 91.2258C56.1877 91.1041 56.6399 90.4546 56.5183 89.7751C56.3966 89.0955 55.7471 88.6433 55.0676 88.7649L55.5081 91.2258ZM50.1275 89.9205C49.4661 90.1184 49.0905 90.815 49.2884 91.4764C49.4864 92.1378 50.183 92.5134 50.8444 92.3155L50.1275 89.9205ZM48.0611 93.3117C48.6952 93.0387 48.9879 92.3033 48.7149 91.6693C48.4419 91.0352 47.7065 90.7425 47.0724 91.0155L48.0611 93.3117ZM80.1895 88.8331C79.5108 88.7067 78.8582 89.1544 78.7317 89.8331C78.6053 90.5118 79.053 91.1645 79.7317 91.2909L80.1895 88.8331ZM55.0676 88.7649C53.2826 89.0845 51.624 89.4726 50.1275 89.9205L50.8444 92.3155C52.2372 91.8986 53.8022 91.5312 55.5081 91.2258L55.0676 88.7649ZM47.0724 91.0155C45.516 91.6856 44.1919 92.4685 43.2375 93.3726C42.2816 94.2783 41.6016 95.4029 41.6016 96.7153H44.1016C44.1016 96.326 44.2965 95.8131 44.9569 95.1875C45.6188 94.5604 46.6523 93.9183 48.0611 93.3117L47.0724 91.0155ZM41.6016 96.7153C41.6016 98.3619 42.6614 99.7036 44.0385 100.727C45.4389 101.767 47.3857 102.652 49.6791 103.373C54.2805 104.819 60.5604 105.694 67.4418 105.694V103.194C60.7424 103.194 54.7271 102.338 50.4287 100.988C48.2721 100.31 46.6177 99.5287 45.5295 98.7202C44.4179 97.8942 44.1016 97.2027 44.1016 96.7153H41.6016ZM67.4418 105.694C74.3232 105.694 80.603 104.819 85.2045 103.373C87.4978 102.652 89.4446 101.767 90.8451 100.727C92.2222 99.7036 93.282 98.3619 93.282 96.7153H90.782C90.782 97.2027 90.4657 97.8942 89.3541 98.7202C88.2659 99.5287 86.6115 100.31 84.4549 100.988C80.1564 102.338 74.1412 103.194 67.4418 103.194V105.694ZM93.282 96.7153C93.282 94.5473 91.4701 92.9027 89.2999 91.7315C87.0276 90.5053 83.8701 89.5187 80.1895 88.8331L79.7317 91.2909C83.2776 91.9513 86.1559 92.8756 88.1126 93.9316C90.1714 95.0427 90.782 96.0518 90.782 96.7153H93.282Z" fill="#DF7E8E"/>
<circle cx="67.4419" cy="52.0561" r="10.6938" stroke="#DF7E8E" stroke-width="2.5"/>
<path fill-rule="evenodd" clip-rule="evenodd" d="M97.9307 35.0112C97.0159 32.7246 95.2041 30.9129 92.9176 29.9981L92.7346 29.9249L92.9176 29.8516C95.2041 28.9369 97.0159 27.1251 97.9307 24.8386L98.0039 24.6555L98.0771 24.8386C98.9919 27.1251 100.804 28.9369 103.09 29.8516L103.273 29.9249L103.09 29.9981C100.804 30.9129 98.9919 32.7246 98.0771 35.0112L98.0039 35.1942L97.9307 35.0112Z" stroke="#FFD0D9" stroke-width="2.5" stroke-linejoin="round"/>
<path fill-rule="evenodd" clip-rule="evenodd" d="M83.3832 83.6721H82.898C79.7938 83.6721 77.2773 81.1557 77.2773 78.0515C77.2773 74.9473 79.7938 72.4309 82.898 72.4309C82.918 72.4309 82.938 72.431 82.958 72.4312C83.4577 68.0776 87.0149 64.7025 91.3289 64.7025C95.8758 64.7025 99.582 68.4519 99.7536 73.1446C102.503 73.3223 104.922 76.002 104.922 78.7963C104.922 81.0906 103.226 83.6721 101.216 83.6721H87.2388" fill="white"/>
<path d="M83.3832 83.6721H82.898C79.7938 83.6721 77.2773 81.1557 77.2773 78.0515C77.2773 74.9473 79.7938 72.4309 82.898 72.4309C82.918 72.4309 82.938 72.431 82.958 72.4312C83.4577 68.0776 87.0149 64.7025 91.3289 64.7025C95.8758 64.7025 99.582 68.4519 99.7536 73.1446C102.503 73.3223 104.922 76.002 104.922 78.7963C104.922 81.0906 103.226 83.6721 101.216 83.6721H87.2388" stroke="#FFD0D9" stroke-width="2.5" stroke-linecap="round"/>
<path d="M65.937 44.9302V54.4651C65.937 55.0196 66.3864 55.4686 66.9404 55.4686C67.4945 55.4686 67.9443 55.0192 67.9443 54.4651V44.9302C67.9443 44.3757 67.4949 43.9263 66.9404 43.9263C66.3859 43.9263 65.937 44.3757 65.937 44.9302Z" fill="#EE788E"/>
<path d="M65.937 58.4796V58.9816C65.937 59.5361 66.3864 59.9852 66.9404 59.9852C67.4945 59.9852 67.9443 59.5357 67.9443 58.9816V58.4796C67.9443 57.925 67.4949 57.476 66.9404 57.476C66.3859 57.476 65.937 57.9254 65.937 58.4796Z" fill="#DF7E8E"/>
</g>
<defs>
<clipPath id="clip0_1459_6688">
<rect width="128" height="128" fill="white"/>
</clipPath>
</defs>
</svg>
