<svg width="128" height="128" viewBox="0 0 128 128" fill="none" xmlns="http://www.w3.org/2000/svg">
<g clip-path="url(#clip0_1459_6642)">
<path fill-rule="evenodd" clip-rule="evenodd" d="M113.322 36.6283C116.205 36.6283 118.542 38.9585 118.542 41.833C118.542 44.7075 116.205 47.0378 113.322 47.0378H83.4912C86.3743 47.0378 88.7115 49.368 88.7115 52.2425C88.7115 55.117 86.3743 57.4472 83.4912 57.4472H99.8979C102.781 57.4472 105.118 59.7775 105.118 62.652C105.118 65.5265 102.781 67.8567 99.8979 67.8567H92.3106C88.6754 67.8567 85.7285 70.187 85.7285 73.0615C85.7285 74.9778 87.22 76.7127 90.203 78.2662C93.0861 78.2662 95.4233 80.5964 95.4233 83.4709C95.4233 86.3454 93.0861 88.6757 90.203 88.6757H28.305C25.4219 88.6757 23.0846 86.3454 23.0846 83.4709C23.0846 80.5964 25.4219 78.2662 28.305 78.2662H-0.779681C-3.66278 78.2662 -6 75.9359 -6 73.0615C-6 70.187 -3.66278 67.8567 -0.779681 67.8567H29.0507C31.9338 67.8567 34.271 65.5265 34.271 62.652C34.271 59.7775 31.9338 57.4472 29.0507 57.4472H10.4067C7.52362 57.4472 5.1864 55.117 5.1864 52.2425C5.1864 49.368 7.52362 47.0378 10.4067 47.0378H40.2371C37.354 47.0378 35.0168 44.7075 35.0168 41.833C35.0168 38.9585 37.354 36.6283 40.2371 36.6283H113.322ZM113.322 57.4472C116.205 57.4472 118.542 59.7775 118.542 62.652C118.542 65.5265 116.205 67.8567 113.322 67.8567C110.438 67.8567 108.101 65.5265 108.101 62.652C108.101 59.7775 110.438 57.4472 113.322 57.4472Z" fill="#FFD0D9" fill-opacity="0.24"/>
<path d="M100.337 32.7855V80.6216C100.337 82.7124 98.6422 84.4071 96.5515 84.4071H32.721C30.6309 84.4071 28.9355 82.7124 28.9355 80.6216V32.7855C28.9355 30.6947 30.6309 29 32.721 29H96.5509C98.6416 29 100.336 30.6947 100.336 32.7855H100.337Z" fill="white"/>
<g opacity="0.11">
<path d="M100.337 35.4712H28.9355V37.4428H100.337V35.4712Z" fill="black"/>
</g>
<path d="M100.337 32.7855V35.4711H28.9365V32.7855C28.9365 30.6947 30.6319 29 32.722 29H96.5518C98.6426 29 100.337 30.6947 100.337 32.7855H100.337Z" fill="#B2B2B2"/>
<path opacity="0.1" d="M74.9434 35.4711H28.9365V32.7855C28.9365 30.6947 30.6319 29 32.722 29H72.4277C73.5037 31.0302 74.3529 33.1982 74.944 35.4711H74.9434Z" fill="white"/>
<path d="M34.5217 33.3276C35.1249 33.3276 35.6138 32.8387 35.6138 32.2356C35.6138 31.6325 35.1249 31.1436 34.5217 31.1436C33.9186 31.1436 33.4297 31.6325 33.4297 32.2356C33.4297 32.8387 33.9186 33.3276 34.5217 33.3276Z" fill="white"/>
<path d="M38.5754 33.3276C39.1786 33.3276 39.6675 32.8387 39.6675 32.2356C39.6675 31.6325 39.1786 31.1436 38.5754 31.1436C37.9723 31.1436 37.4834 31.6325 37.4834 32.2356C37.4834 32.8387 37.9723 33.3276 38.5754 33.3276Z" fill="white"/>
<path d="M42.6604 33.3276C43.2635 33.3276 43.7524 32.8387 43.7524 32.2356C43.7524 31.6325 43.2635 31.1436 42.6604 31.1436C42.0573 31.1436 41.5684 31.6325 41.5684 32.2356C41.5684 32.8387 42.0573 33.3276 42.6604 33.3276Z" fill="white"/>
<path d="M56.6936 55.1602C56.6936 58.0989 55.5713 60.7756 53.731 62.7845C51.6661 65.0401 48.6971 66.4547 45.3984 66.4547C42.0997 66.4547 39.1314 65.0401 37.0664 62.7852C35.2268 60.7756 34.1045 58.0989 34.1045 55.1602C34.1045 48.9215 39.161 43.865 45.399 43.865C51.6371 43.865 56.6942 48.9215 56.6942 55.1602H56.6936Z" fill="#FFF4F6"/>
<path d="M45.3986 55.3913C43.2384 55.3913 41.4863 53.6399 41.4863 51.479C41.4863 49.318 43.2377 47.5667 45.3986 47.5667C47.5595 47.5667 49.3109 49.318 49.3109 51.479C49.3109 53.6399 47.5589 55.3913 45.3986 55.3913Z" fill="#F8AFBD"/>
<path d="M53.7301 62.7852C51.6651 65.0407 48.6961 66.4554 45.3974 66.4554C42.0987 66.4554 39.1304 65.0407 37.0654 62.7858C37.9534 59.0055 41.3467 56.191 45.3981 56.191C49.4494 56.191 52.8428 59.0055 53.7307 62.7858L53.7301 62.7852Z" fill="#F8AFBD"/>
<path d="M93.7473 50.3902H63.9911C63.2055 50.3902 62.5693 49.7534 62.5693 48.9685C62.5693 48.1829 63.2061 47.5468 63.9911 47.5468H93.7473C94.5329 47.5468 95.169 48.1836 95.169 48.9685C95.169 49.754 94.5322 50.3902 93.7473 50.3902Z" fill="#EE788E"/>
<path d="M93.7473 53.7385H63.9911C63.2059 53.7385 62.5693 54.3751 62.5693 55.1602C62.5693 55.9454 63.2059 56.582 63.9911 56.582H93.7473C94.5325 56.582 95.169 55.9454 95.169 55.1602C95.169 54.3751 94.5325 53.7385 93.7473 53.7385Z" fill="#F8AFBD"/>
<path d="M81.4631 62.7736H63.9911C63.2055 62.7736 62.5693 62.1368 62.5693 61.3519C62.5693 60.5663 63.2061 59.9302 63.9911 59.9302H81.4631C82.2487 59.9302 82.8848 60.567 82.8848 61.3519C82.8848 62.1374 82.248 62.7736 81.4631 62.7736Z" fill="#FFD0D9"/>
<path d="M78.9874 84.407C78.9874 92.3334 72.562 98.7581 64.6363 98.7581C59.5418 98.7581 55.0674 96.104 52.5208 92.1022C51.139 89.9316 50.3244 87.3644 50.2871 84.6086C50.2858 84.5416 50.2852 84.4746 50.2852 84.407C50.2852 77.3268 55.4131 71.4435 62.1579 70.2697C62.9628 70.1293 63.7908 70.0559 64.6363 70.0559C67.0947 70.0559 69.4088 70.674 71.4313 71.7642C75.9302 74.1865 78.9874 78.9397 78.9874 84.407Z" fill="#EE788E"/>
<path d="M70.2499 82.3171H66.7259V78.7931C66.7259 77.6386 65.7903 76.703 64.6358 76.703C63.4813 76.703 62.5458 77.6386 62.5458 78.7931V82.3171H59.0217C57.8672 82.3171 56.9316 83.2527 56.9316 84.4072C56.9316 85.5617 57.8672 86.4973 59.0217 86.4973H62.5458V90.0213C62.5458 91.1758 63.4813 92.1114 64.6358 92.1114C65.7903 92.1114 66.7259 91.1758 66.7259 90.0213V86.4973H70.2499C71.4044 86.4973 72.34 85.5617 72.34 84.4072C72.34 83.2527 71.4044 82.3171 70.2499 82.3171Z" fill="white"/>
<path d="M91.5182 76.1182L92.7055 75.7563L91.5182 75.3945C90.3038 75.0242 89.3534 74.0738 88.9832 72.8595L88.6213 71.6721L88.2595 72.8595C87.8892 74.0738 86.9388 75.0242 85.7244 75.3945L84.5371 75.7563L85.7244 76.1182C86.9388 76.4884 87.8892 77.4388 88.2595 78.6532L88.6213 79.8406L88.9832 78.6532C89.3534 77.4388 90.3038 76.4884 91.5182 76.1182Z" fill="#B5516A"/>
<path d="M45.2232 77.9559L46.0178 77.7138L45.2232 77.4717C44.4099 77.2238 43.7738 76.5877 43.5259 75.7744L43.2838 74.9799L43.0417 75.7744C42.7938 76.5877 42.1576 77.2238 41.3444 77.4717L40.5498 77.7138L41.3444 77.9559C42.1576 78.2038 42.7938 78.84 43.0417 79.6532L43.2838 80.4478L43.5259 79.6532C43.7738 78.84 44.4099 78.2038 45.2232 77.9559Z" fill="#B5516A"/>
<path d="M83.0064 94.6914L83.4314 94.562L83.0064 94.4326C82.5718 94.3 82.2312 93.96 82.0985 93.5247L81.9691 93.0997L81.8397 93.5247C81.7071 93.9593 81.3671 94.3 80.9318 94.4326L80.5068 94.562L80.9318 94.6914C81.3664 94.8241 81.7071 95.1641 81.8397 95.5993L81.9691 96.0243L82.0985 95.5993C82.2312 95.1647 82.5712 94.8241 83.0064 94.6914Z" fill="#B5516A"/>
<path opacity="0.1" d="M62.1579 70.2698C60.8785 76.8092 56.332 82.1786 50.2871 84.6087C50.2858 84.5417 50.2852 84.4747 50.2852 84.4071C50.2852 77.3269 55.4131 71.4436 62.1579 70.2698Z" fill="white"/>
</g>
<defs>
<clipPath id="clip0_1459_6642">
<rect width="128" height="128" fill="white"/>
</clipPath>
</defs>
</svg>
