<svg width="23" height="26" viewBox="0 0 23 26" fill="none" xmlns="http://www.w3.org/2000/svg">
<g clip-path="url(#clip0_2866_31186)">
<path d="M11.4808 9.50137C7.75211 9.50137 4.02264 9.49855 0.293905 9.50772C0.0406467 9.50772 -0.00143996 9.43926 3.67653e-05 9.21695C0.0103738 7.68546 0.00446694 6.15398 0.00594367 4.62249C0.00668203 3.47846 0.776794 2.74024 1.96851 2.73812C2.79695 2.73671 3.62614 2.74447 4.45458 2.73318C4.66132 2.73036 4.73442 2.76988 4.73073 2.98655C4.71522 3.82216 4.7226 4.65848 4.72482 5.4948C4.7263 5.90061 4.90941 6.21255 5.29779 6.38335C5.6618 6.54285 6.01843 6.49838 6.33224 6.25419C6.58328 6.0587 6.69182 5.79686 6.69034 5.48774C6.68739 4.64295 6.69403 3.79817 6.68517 2.95267C6.6837 2.78611 6.72135 2.73248 6.90816 2.73318C9.96498 2.73953 13.0218 2.73883 16.0786 2.73318C16.2566 2.73318 16.309 2.77341 16.3068 2.94844C16.2964 3.76711 16.3009 4.58579 16.3031 5.40376C16.3046 5.98953 16.7011 6.4017 17.2666 6.41228C17.8411 6.42287 18.2612 6.01141 18.2671 5.41011C18.2753 4.59143 18.2738 3.77276 18.2657 2.95479C18.2642 2.78894 18.3004 2.73036 18.4886 2.73248C19.3725 2.74236 20.2563 2.73107 21.1401 2.73883C22.1893 2.748 22.9816 3.51022 22.986 4.52086C22.9927 6.0961 22.9838 7.67205 22.9934 9.2473C22.9949 9.45549 22.938 9.5049 22.7224 9.5049C18.9752 9.49855 15.228 9.49996 11.4801 9.49996L11.4808 9.50137Z" fill="url(#paint0_linear_2866_31186)"/>
<path d="M17.6277 2.9063C17.6277 3.72427 17.6284 4.54153 17.6277 5.3595C17.6277 5.63757 17.508 5.7893 17.2991 5.7886C17.0901 5.7886 16.9713 5.63475 16.9713 5.35738C16.9705 3.71298 16.9705 2.06927 16.9713 0.424864C16.9713 0.134799 17.0791 0 17.3006 0C17.5213 0 17.6269 0.135505 17.6277 0.426982C17.6291 1.25342 17.6277 2.07986 17.6277 2.9063Z" fill="url(#paint1_linear_2866_31186)"/>
<path d="M6.02831 2.9077C6.02831 3.72566 6.02905 4.54293 6.02831 5.3609C6.02831 5.63826 5.9087 5.78929 5.69827 5.78929C5.48783 5.78929 5.36969 5.63755 5.36969 5.35949C5.36896 3.72425 5.36896 2.08831 5.36969 0.45308C5.36969 0.176425 5.48931 0.0246873 5.69974 0.0253931C5.91018 0.0253931 6.02831 0.17713 6.02831 0.454492C6.02905 1.27246 6.02831 2.08973 6.02831 2.9077Z" fill="url(#paint2_linear_2866_31186)"/>
<path d="M22.9948 10.4071C22.9948 10.1855 22.955 10.1177 22.7024 10.1184C18.9737 10.1276 15.2457 10.1248 11.517 10.1248C7.78826 10.1248 4.0418 10.1269 0.304211 10.1198C0.0767949 10.1198 -0.000733146 10.1523 5.21677e-06 10.3972C0.00960393 14.9557 0.00665048 19.5141 0.00738884 24.0726C0.00738884 25.266 0.766426 25.9887 2.02017 25.9887C8.33538 25.9887 14.6506 25.976 20.9666 26C22.1405 26.0042 23.0074 25.1785 23.0007 24.0564C22.9749 19.5071 22.9882 14.9571 22.9956 10.4071H22.9948ZM10.0004 14.0361C9.99965 13.9062 10.0432 13.8751 10.1732 13.8759C11.057 13.8808 11.9408 13.8829 12.8246 13.8744C12.9908 13.873 12.9967 13.9436 12.9952 14.0629C12.9908 14.4849 12.9937 14.9077 12.9937 15.3304C12.9937 15.744 12.9878 16.1576 12.9974 16.5711C13.0004 16.713 12.9516 16.7455 12.8106 16.7447C11.9364 16.7391 11.0614 16.7391 10.1865 16.7447C10.044 16.7455 9.99891 16.7116 10.0004 16.5704C10.007 15.7256 10.0063 14.8808 10.0004 14.0361ZM7.07426 20.1528C7.07426 20.5749 7.06909 20.9969 7.07721 21.4183C7.08017 21.5601 7.04694 21.6159 6.88376 21.6145C6.01028 21.6067 5.1368 21.6067 4.26331 21.6145C4.09644 21.6159 4.0706 21.558 4.07208 21.4168C4.07798 20.5904 4.07872 19.7647 4.07208 18.9382C4.0706 18.795 4.10087 18.742 4.26479 18.7434C5.13827 18.7512 6.01175 18.7512 6.88524 18.7434C7.04915 18.742 7.08164 18.7971 7.07795 18.9389C7.06909 19.3433 7.075 19.7477 7.075 20.1521L7.07426 20.1528ZM7.07795 16.5697C7.07943 16.713 7.03069 16.7447 6.88967 16.744C6.00732 16.7384 5.12498 16.7384 4.24264 16.744C4.10826 16.7447 4.06986 16.7073 4.07208 16.5803C4.07946 16.1498 4.07503 15.7193 4.07503 15.2888C4.07503 14.8759 4.08094 14.463 4.07134 14.0502C4.06838 13.9083 4.11638 13.8737 4.25888 13.8751C5.13163 13.8808 6.00511 13.8815 6.87785 13.8751C7.03439 13.8737 7.07869 13.9168 7.07795 14.0664C7.07057 14.9006 7.07131 15.7355 7.07795 16.5704V16.5697ZM12.8113 21.6137C11.9386 21.6081 11.0658 21.6067 10.1931 21.6145C10.0292 21.6159 9.99965 21.5615 10.0011 21.4204C10.007 20.5862 10.0078 19.752 10.0011 18.9171C9.99965 18.7745 10.0469 18.7434 10.1872 18.7449C11.0599 18.7505 11.9327 18.7519 12.8054 18.7441C12.9686 18.7427 13.0011 18.795 12.9981 18.9375C12.9893 19.3589 12.9952 19.7809 12.9952 20.2022C12.9952 20.6151 12.9885 21.028 12.9989 21.4408C13.0026 21.5827 12.9546 21.6152 12.8128 21.6145L12.8113 21.6137ZM15.9176 14.0502C15.9162 13.909 15.9627 13.8744 16.1044 13.8751C16.9772 13.8808 17.8507 13.8815 18.7234 13.8751C18.8807 13.8737 18.9228 13.9189 18.9213 14.0664C18.9146 14.9006 18.9146 15.7355 18.9213 16.5697C18.9228 16.7102 18.877 16.7469 18.7345 16.744C18.3025 16.7356 17.8706 16.7412 17.4387 16.7412C17.0067 16.7412 16.5563 16.7349 16.1155 16.7447C15.9582 16.7483 15.9169 16.7017 15.9176 16.5542C15.925 15.72 15.9243 14.8851 15.9176 14.0509V14.0502ZM18.9176 20.1747C18.9176 20.5876 18.9132 21.0012 18.9205 21.414C18.9228 21.5495 18.9073 21.6173 18.7337 21.6152C17.8603 21.6067 16.9868 21.6074 16.1133 21.6152C15.9531 21.6166 15.9162 21.5679 15.9176 21.4225C15.9243 20.5968 15.9265 19.7703 15.9162 18.9446C15.9139 18.7752 15.9693 18.7441 16.1325 18.7456C16.9964 18.7533 17.861 18.7526 18.7249 18.7456C18.8836 18.7441 18.9242 18.7893 18.9213 18.9368C18.911 19.3497 18.9176 19.7626 18.9176 20.1761V20.1747Z" fill="url(#paint3_linear_2866_31186)"/>
</g>
<defs>
<linearGradient id="paint0_linear_2866_31186" x1="11.4967" y1="2.73242" x2="11.4967" y2="9.50772" gradientUnits="userSpaceOnUse">
<stop stop-color="#DF7E8E"/>
<stop offset="1" stop-color="#AF4F64"/>
</linearGradient>
<linearGradient id="paint1_linear_2866_31186" x1="17.2995" y1="0" x2="17.2995" y2="5.7886" gradientUnits="userSpaceOnUse">
<stop stop-color="#DF7E8E"/>
<stop offset="1" stop-color="#AF4F64"/>
</linearGradient>
<linearGradient id="paint2_linear_2866_31186" x1="5.69889" y1="0.0253906" x2="5.69889" y2="5.78929" gradientUnits="userSpaceOnUse">
<stop stop-color="#DF7E8E"/>
<stop offset="1" stop-color="#AF4F64"/>
</linearGradient>
<linearGradient id="paint3_linear_2866_31186" x1="11.5004" y1="10.1184" x2="11.5004" y2="26" gradientUnits="userSpaceOnUse">
<stop stop-color="#DF7E8E"/>
<stop offset="1" stop-color="#AF4F64"/>
</linearGradient>
<clipPath id="clip0_2866_31186">
<rect width="23" height="26" fill="white"/>
</clipPath>
</defs>
</svg>
