<svg width="18" height="22" viewBox="0 0 18 22" fill="none" xmlns="http://www.w3.org/2000/svg">
<g clip-path="url(#clip0_394_388)">
<path d="M8.88495 8.03983C6.03166 8.03983 3.1778 8.03744 0.324511 8.0452C0.130713 8.0452 0.0985075 7.98728 0.0996375 7.79917C0.107548 6.50329 0.103028 5.20742 0.104158 3.91154C0.104723 2.94352 0.694026 2.31887 1.60595 2.31708C2.23989 2.31589 2.87439 2.32245 3.50833 2.3129C3.66653 2.31051 3.72247 2.34395 3.71964 2.52729C3.70778 3.23434 3.71343 3.942 3.71512 4.64965C3.71625 4.99303 3.85638 5.25698 4.15357 5.4015C4.43212 5.53646 4.70502 5.49884 4.94515 5.29222C5.13725 5.1268 5.22031 4.90525 5.21918 4.64368C5.21691 3.92886 5.222 3.21404 5.21522 2.49862C5.21409 2.35769 5.24291 2.3123 5.38585 2.3129C7.72499 2.31827 10.0641 2.31768 12.4033 2.3129C12.5394 2.3129 12.5795 2.34694 12.5778 2.49504C12.5699 3.18776 12.5733 3.88049 12.575 4.57262C12.5761 5.06827 12.8796 5.41703 13.3123 5.42598C13.7519 5.43494 14.0734 5.08679 14.0779 4.57799C14.0841 3.88527 14.083 3.19254 14.0768 2.50041C14.0757 2.36008 14.1034 2.31051 14.2474 2.3123C14.9238 2.32066 15.6001 2.31111 16.2764 2.31768C17.0793 2.32544 17.6855 2.97039 17.6889 3.82555C17.694 5.15845 17.6872 6.49194 17.6946 7.82484C17.6957 8.00101 17.6522 8.04281 17.4872 8.04281C14.6198 8.03744 11.7524 8.03863 8.88438 8.03863L8.88495 8.03983Z" fill="#949BAB"/>
<path d="M13.5896 2.45917C13.5896 3.1513 13.5902 3.84283 13.5896 4.53496C13.5896 4.77025 13.4981 4.89864 13.3382 4.89805C13.1783 4.89805 13.0873 4.76786 13.0873 4.53317C13.0868 3.14175 13.0868 1.75092 13.0873 0.359501C13.0873 0.114061 13.1698 0 13.3393 0C13.5083 0 13.5891 0.114658 13.5896 0.361292C13.5908 1.06059 13.5896 1.75988 13.5896 2.45917Z" fill="#949BAB"/>
<path d="M4.71144 2.46036C4.71144 3.15249 4.71201 3.84402 4.71144 4.53614C4.71144 4.77083 4.61991 4.89863 4.45888 4.89863C4.29786 4.89863 4.20746 4.77024 4.20746 4.53495C4.20689 3.15129 4.20689 1.76703 4.20746 0.383376C4.20746 0.149282 4.29899 0.0208893 4.46001 0.0214864C4.62104 0.0214864 4.71144 0.149879 4.71144 0.38457C4.71201 1.0767 4.71144 1.76823 4.71144 2.46036Z" fill="#949BAB"/>
<path d="M17.6957 8.80602C17.6957 8.6185 17.6651 8.56118 17.4719 8.56177C14.6186 8.56954 11.7659 8.56715 8.91261 8.56715C6.05932 8.56715 3.19247 8.56894 0.332397 8.56297C0.158374 8.56297 0.0990484 8.59044 0.0996134 8.79766C0.106958 12.6548 0.104698 16.512 0.105263 20.3692C0.105263 21.379 0.686092 21.9905 1.64548 21.9905C6.47799 21.9905 11.3105 21.9797 16.1436 22C17.0419 22.0036 17.7053 21.3049 17.7002 20.3554C17.6804 16.506 17.6906 12.656 17.6962 8.80602H17.6957ZM7.75208 11.8767C7.75152 11.7668 7.78485 11.7405 7.88429 11.7411C8.56061 11.7453 9.23692 11.7471 9.91324 11.7399C10.0404 11.7388 10.0449 11.7985 10.0438 11.8994C10.0404 12.2565 10.0426 12.6142 10.0426 12.9719C10.0426 13.3219 10.0381 13.6718 10.0454 14.0218C10.0477 14.1418 10.0104 14.1693 9.9025 14.1687C9.23353 14.1639 8.564 14.1639 7.89446 14.1687C7.78542 14.1693 7.75095 14.1406 7.75208 14.0212C7.75717 13.3063 7.7566 12.5915 7.75208 11.8767V11.8767ZM5.51295 17.0524C5.51295 17.4095 5.509 17.7667 5.51521 18.1232C5.51747 18.2432 5.49205 18.2904 5.36718 18.2892C4.69878 18.2826 4.03037 18.2826 3.36197 18.2892C3.23428 18.2904 3.2145 18.2414 3.21563 18.122C3.22015 17.4227 3.22072 16.724 3.21563 16.0247C3.2145 15.9035 3.23767 15.8587 3.3631 15.8599C4.0315 15.8664 4.69991 15.8664 5.36831 15.8599C5.49374 15.8587 5.5186 15.9053 5.51578 16.0253C5.509 16.3675 5.51352 16.7097 5.51352 17.0518L5.51295 17.0524ZM5.51578 14.0206C5.51691 14.1418 5.47962 14.1687 5.3717 14.1681C4.69652 14.1633 4.02133 14.1633 3.34615 14.1681C3.24332 14.1687 3.21394 14.137 3.21563 14.0295C3.22128 13.6652 3.21789 13.301 3.21789 12.9367C3.21789 12.5873 3.22241 12.238 3.21507 11.8886C3.21281 11.7686 3.24953 11.7394 3.35858 11.7405C4.02642 11.7453 4.69482 11.7459 5.36266 11.7405C5.48244 11.7394 5.51634 11.7758 5.51578 11.9024C5.51013 12.6082 5.51069 13.3147 5.51578 14.0212V14.0206ZM9.90307 18.2886C9.23523 18.2838 8.56739 18.2826 7.89955 18.2892C7.77412 18.2904 7.75152 18.2444 7.75265 18.125C7.75717 17.4191 7.75773 16.7132 7.75265 16.0068C7.75152 15.8861 7.78768 15.8599 7.89503 15.8611C8.56287 15.8658 9.23071 15.867 9.89855 15.8605C10.0234 15.8593 10.0483 15.9035 10.046 16.0241C10.0392 16.3806 10.0438 16.7377 10.0438 17.0942C10.0438 17.4436 10.0387 17.7929 10.0466 18.1423C10.0494 18.2623 10.0127 18.2898 9.9042 18.2892L9.90307 18.2886ZM12.2801 11.8886C12.2789 11.7692 12.3145 11.7399 12.423 11.7405C13.0908 11.7453 13.7592 11.7459 14.4271 11.7405C14.5474 11.7394 14.5796 11.7776 14.5785 11.9024C14.5734 12.6082 14.5734 13.3147 14.5785 14.0206C14.5796 14.1394 14.5446 14.1705 14.4356 14.1681C14.105 14.1609 13.7745 14.1657 13.444 14.1657C13.1134 14.1657 12.7688 14.1603 12.4315 14.1687C12.3111 14.1717 12.2795 14.1322 12.2801 14.0074C12.2857 13.3016 12.2851 12.5951 12.2801 11.8892V11.8886ZM14.5757 17.0709C14.5757 17.4203 14.5723 17.7702 14.5779 18.1196C14.5796 18.2342 14.5678 18.2916 14.435 18.2898C13.7666 18.2826 13.0982 18.2832 12.4298 18.2898C12.3072 18.291 12.2789 18.2498 12.2801 18.1268C12.2851 17.4281 12.2868 16.7288 12.2789 16.0301C12.2772 15.8867 12.3196 15.8605 12.4445 15.8617C13.1055 15.8682 13.7672 15.8676 14.4282 15.8617C14.5497 15.8605 14.5808 15.8987 14.5785 16.0235C14.5706 16.3728 14.5757 16.7222 14.5757 17.0721V17.0709Z" fill="#949BAB"/>
</g>
<defs>
<clipPath id="clip0_394_388">
<rect width="17.6" height="22" fill="white" transform="translate(0.0996094)"/>
</clipPath>
</defs>
</svg>
