<svg width="128" height="128" viewBox="0 0 128 128" fill="none" xmlns="http://www.w3.org/2000/svg">
<g clip-path="url(#clip0_1459_6599)">

<path fill-rule="evenodd" clip-rule="evenodd" d="M29.2814 82.8643H80.6159C80.9063 82.8643 81.1895 82.833 81.4621 82.7736C81.7347 82.833 82.0178 82.8643 82.3082 82.8643H111.642C113.823 82.8643 115.591 81.0992 115.591 78.9219C115.591 76.7446 113.823 74.9795 111.642 74.9795H108.258C106.077 74.9795 104.309 73.2144 104.309 71.0371C104.309 68.8598 106.077 67.0947 108.258 67.0947H118.976C121.157 67.0947 122.925 65.3296 122.925 63.1523C122.925 60.975 121.157 59.2099 118.976 59.2099H106.565C108.746 59.2099 110.514 57.4448 110.514 55.2675C110.514 53.0902 108.746 51.3251 106.565 51.3251H70.4618C72.6427 51.3251 74.4106 49.56 74.4106 47.3827C74.4106 45.2054 72.6427 43.4403 70.4618 43.4403H38.3072C36.1263 43.4403 34.3584 45.2054 34.3584 47.3827C34.3584 49.56 36.1263 51.3251 38.3072 51.3251H15.7426C13.5617 51.3251 11.7938 53.0902 11.7938 55.2675C11.7938 57.4448 13.5617 59.2099 15.7426 59.2099H29.8455C32.0263 59.2099 33.7943 60.975 33.7943 63.1523C33.7943 65.3296 32.0263 67.0947 29.8455 67.0947H7.28084C5.09997 67.0947 3.33203 68.8598 3.33203 71.0371C3.33203 73.2144 5.09997 74.9795 7.28084 74.9795H29.2814C27.1005 74.9795 25.3325 76.7446 25.3325 78.9219C25.3325 81.0992 27.1005 82.8643 29.2814 82.8643ZM121.232 82.8643C123.413 82.8643 125.181 81.0992 125.181 78.9219C125.181 76.7446 123.413 74.9795 121.232 74.9795C119.051 74.9795 117.283 76.7446 117.283 78.9219C117.283 81.0992 119.051 82.8643 121.232 82.8643Z" fill="#FFD0D9" fill-opacity="0.24"/>
<path d="M87.9492 90.7491H100.601M29.8453 90.7491H41.9479H29.8453ZM22.584 90.7491H26.4606H22.584ZM103.253 90.7491H104.873H103.253Z" stroke="#DF7E8E" stroke-width="2.5" stroke-linecap="round" stroke-linejoin="round"/>
<path d="M49.0254 31.7837L55.2869 38.7973M78.4156 31.7837L72.1541 38.7973L78.4156 31.7837ZM63.6924 29.3604V38.7973V29.3604Z" stroke="#FFD0D9" stroke-width="2.5" stroke-linecap="round" stroke-linejoin="round"/>
<path fill-rule="evenodd" clip-rule="evenodd" d="M46.0904 47.3827H81.4077L78.245 52.1191L82.462 55.2767H45.0361L49.7803 52.1191L46.0904 47.3827Z" fill="#FFD0D9"/>
<rect x="43.9482" y="54.1411" width="40.0522" height="42.24" rx="2" fill="white"/>
<path fill-rule="evenodd" clip-rule="evenodd" d="M46.5352 77.2357V57.8837C46.5352 57.0864 47.1897 56.4401 47.997 56.4401L82.3949 92.5312C82.3949 93.5943 81.5425 94.4561 80.4911 94.4561H48.439C47.3875 94.4561 46.5352 93.5943 46.5352 92.5312V85.3393V83.3881V77.2357ZM46.5352 81.4139V79.2466Z" fill="#FFD0D9"/>
<path d="M44.5127 77.4931V56.3293C44.5127 55.4573 45.2294 54.7505 46.1135 54.7505H82.7379C83.3135 54.7505 83.7802 55.2217 83.7802 55.803V94.2207C83.7802 95.3833 82.8469 96.3257 81.6955 96.3257H46.5975C45.4461 96.3257 44.5127 95.3833 44.5127 94.2207V86.3554V84.2215M44.5127 82.0625V79.6922" stroke="#DF7E8E" stroke-width="2.5" stroke-linecap="round"/>
<path d="M45.5632 54.7505V48.4353C45.5632 47.854 45.9868 47.3827 46.5093 47.3827L81.5158 47.3827C82.0383 47.3827 82.4619 47.854 82.4619 48.4353V54.7505" stroke="#DF7E8E" stroke-width="2.5"/>
<path d="M55.3156 65.802C56.3346 65.802 57.1606 64.9774 57.1606 63.9601C57.1606 62.9428 56.3346 62.1182 55.3156 62.1182C54.2967 62.1182 53.4707 62.9428 53.4707 63.9601C53.4707 64.9774 54.2967 65.802 55.3156 65.802Z" fill="#FFD0D9" stroke="#DF7E8E" stroke-width="2.5" stroke-linecap="round"/>
<path d="M72.7102 65.802C73.7291 65.802 74.5551 64.9774 74.5551 63.9601C74.5551 62.9428 73.7291 62.1182 72.7102 62.1182C71.6912 62.1182 70.8652 62.9428 70.8652 63.9601C70.8652 64.9774 71.6912 65.802 72.7102 65.802Z" fill="#FFD0D9" stroke="#DF7E8E" stroke-width="2.5" stroke-linecap="round"/>
<path d="M72.4471 65.8021C72.4471 70.4525 68.6711 74.2224 64.0131 74.2224C59.3551 74.2224 55.5791 70.4525 55.5791 65.8021" stroke="#DF7E8E" stroke-width="2.5" stroke-linecap="round"/>
<path d="M46.1228 47.9073L49.8338 51.5646C50.0555 51.7831 50.0578 52.1397 49.8389 52.361C49.8011 52.3994 49.7579 52.432 49.7107 52.4581L45.5635 54.7505" stroke="#DF7E8E" stroke-width="2.5" stroke-linecap="round"/>
<path d="M81.9927 47.9454L78.4416 51.5614C78.2235 51.7835 78.227 52.1401 78.4495 52.3579C78.4866 52.3942 78.5286 52.4253 78.5742 52.4502L82.7979 54.7504" stroke="#DF7E8E" stroke-width="2.5" stroke-linecap="round"/>
</g>
<defs>
<clipPath id="clip0_1459_6599">
<rect width="128" height="128" fill="white"/>
</clipPath>
</defs>
</svg>
