<svg width="18" height="22" viewBox="0 0 18 22" fill="none" xmlns="http://www.w3.org/2000/svg">
<g clip-path="url(#clip0_341_1763)">
<path d="M8.8399 21.9999C6.42593 21.9999 4.01196 21.9999 1.59799 21.9999C0.788798 21.9999 0.564947 21.7353 0.642085 20.9621C1.00509 17.2971 1.3575 13.6307 1.71446 9.96426C1.83546 8.7235 1.95646 7.48421 2.07292 6.24344C2.12132 5.72303 2.38601 5.44077 2.94413 5.4393C3.45385 5.4393 3.96356 5.4393 4.47177 5.40696C4.80452 5.38491 4.89527 5.50545 4.87561 5.80976C4.84384 6.27432 4.89376 6.71828 4.60184 7.16813C4.20254 7.78557 4.47177 8.64705 5.07223 9.0822C5.62581 9.48354 6.49248 9.46001 7.01884 9.03075C7.60569 8.5515 7.81139 7.72383 7.3894 7.09904C7.05968 6.61097 7.20639 6.11407 7.16404 5.61865C7.14589 5.40108 7.31832 5.40696 7.4741 5.40843C8.36044 5.40843 9.24677 5.40843 10.1331 5.40843C10.2662 5.40843 10.4296 5.40108 10.4114 5.58631C10.3615 6.07879 10.5536 6.58451 10.1951 7.06376C9.80337 7.58711 9.88202 8.28541 10.2813 8.80729C10.6685 9.31301 11.3325 9.51735 12.0026 9.33653C12.5713 9.18364 13.0341 8.62647 13.1067 8.00168C13.1445 7.67973 13.0447 7.38571 12.901 7.10492C12.8344 6.97555 12.7316 6.87117 12.7074 6.71534C12.5259 5.56426 12.6242 5.44371 13.8025 5.44371C13.9915 5.44371 14.1791 5.44371 14.3681 5.44371C15.5161 5.44371 15.622 5.55397 15.7324 6.68741C16.1756 11.2653 16.6233 15.8432 17.077 20.4196C17.2238 21.9 17.1466 21.9985 15.6311 21.9985H8.8399V21.9999Z" fill="url(#paint0_linear_341_1763)"/>
<path d="M12.0264 4.82633C12.026 4.82633 12.0257 4.82667 12.0257 4.82707C12.0257 5.51033 12.0242 6.05994 12.0257 6.60956C12.0257 6.91534 12.0227 7.1976 12.2329 7.48574C12.4946 7.84297 12.3751 8.23549 12.0272 8.50893C11.6793 8.78383 11.2906 8.7853 10.9458 8.49863C10.6039 8.21491 10.4966 7.82239 10.7597 7.47104C10.9836 7.17114 10.9896 6.87271 10.9896 6.54635C10.9896 5.46582 10.9927 4.3853 10.9881 3.30478C10.9821 2.00081 10.0262 1.01731 8.76775 1.00996C7.51539 1.00261 6.53982 1.97875 6.52319 3.28126C6.50957 4.45293 6.52319 5.6246 6.51714 6.79626C6.51714 7.02413 6.57461 7.21377 6.69107 7.4137C6.93761 7.83121 6.8877 8.23549 6.47932 8.53392C6.11783 8.79706 5.72307 8.76913 5.39788 8.47217C5.05302 8.1561 5.0016 7.76065 5.28898 7.38577C5.4372 7.19172 5.46594 7.00061 5.46443 6.77715C5.45989 5.60548 5.44779 4.43382 5.46443 3.26215C5.49165 1.53038 6.72889 0.192587 8.44105 0.0161754C10.0731 -0.151416 11.6204 0.943806 11.9592 2.54915C12.127 3.34123 11.9925 4.15534 12.0272 4.82556C12.0272 4.82598 12.0269 4.82633 12.0264 4.82633Z" fill="url(#paint1_linear_341_1763)"/>
</g>
<defs>
<linearGradient id="paint0_linear_341_1763" x1="0.762179" y1="21.9999" x2="17.1286" y2="21.9999" gradientUnits="userSpaceOnUse">
<stop stop-color="#DF7E8E"/>
<stop offset="1" stop-color="#AF4F64"/>
</linearGradient>
<linearGradient id="paint1_linear_341_1763" x1="5.16176" y1="8.71443" x2="12.3746" y2="8.71443" gradientUnits="userSpaceOnUse">
<stop stop-color="#DF7E8E"/>
<stop offset="1" stop-color="#AF4F64"/>
</linearGradient>
<clipPath id="clip0_341_1763">
<rect width="16.5" height="22" fill="white" transform="translate(0.626953)"/>
</clipPath>
</defs>
</svg>
