<svg width="18" height="22" viewBox="0 0 18 22" fill="none" xmlns="http://www.w3.org/2000/svg">
<g clip-path="url(#clip0_394_395)">
<path d="M8.84003 22.0001C6.42606 22.0001 4.01209 22.0001 1.59811 22.0001C0.78892 22.0001 0.565069 21.7354 0.642207 20.9622C1.00521 17.2972 1.35763 13.6308 1.71458 9.96438C1.83558 8.72362 1.95658 7.48433 2.07304 6.24357C2.12144 5.72315 2.38613 5.44089 2.94425 5.43942C3.45397 5.43942 3.96368 5.43942 4.47189 5.40708C4.80464 5.38503 4.89539 5.50558 4.87573 5.80989C4.84397 6.27444 4.89388 6.71841 4.60197 7.16826C4.20266 7.7857 4.47189 8.64717 5.07236 9.08232C5.62594 9.48366 6.49261 9.46014 7.01896 9.03087C7.60581 8.55162 7.81152 7.72395 7.38953 7.09916C7.0598 6.61109 7.20651 6.1142 7.16416 5.61877C7.14601 5.4012 7.31844 5.40708 7.47423 5.40855C8.36056 5.40855 9.24689 5.40855 10.1332 5.40855C10.2663 5.40855 10.4297 5.4012 10.4115 5.58643C10.3616 6.07891 10.5537 6.58463 10.1952 7.06388C9.8035 7.58723 9.88215 8.28553 10.2815 8.80741C10.6687 9.31313 11.3326 9.51747 12.0027 9.33665C12.5714 9.18376 13.0342 8.62659 13.1068 8.0018C13.1446 7.67985 13.0448 7.38583 12.9011 7.10504C12.8346 6.97567 12.7317 6.8713 12.7075 6.71547C12.526 5.56438 12.6243 5.44383 13.8026 5.44383C13.9916 5.44383 14.1792 5.44383 14.3683 5.44383C15.5163 5.44383 15.6221 5.55409 15.7325 6.68753C16.1757 11.2654 16.6234 15.8433 17.0772 20.4197C17.2239 21.9001 17.1467 21.9986 15.6312 21.9986H8.84003V22.0001Z" fill="#949BAB"/>
<path d="M12.0257 4.82633C12.0257 5.50993 12.0242 6.05974 12.0257 6.60956C12.0257 6.91534 12.0227 7.1976 12.2329 7.48574C12.4946 7.84297 12.3751 8.23549 12.0272 8.50893C11.6793 8.78383 11.2906 8.7853 10.9458 8.49863C10.6039 8.21491 10.4966 7.82239 10.7597 7.47104C10.9836 7.17114 10.9896 6.87271 10.9896 6.54635C10.9896 5.46582 10.9927 4.3853 10.9881 3.30478C10.9821 2.00081 10.0262 1.01731 8.76775 1.00996C7.51539 1.00261 6.53982 1.97875 6.52319 3.28126C6.50957 4.45293 6.52319 5.6246 6.51714 6.79626C6.51714 7.02413 6.57461 7.21377 6.69107 7.4137C6.93761 7.83121 6.8877 8.23549 6.47932 8.53392C6.11783 8.79706 5.72307 8.76913 5.39788 8.47217C5.05302 8.1561 5.0016 7.76065 5.28897 7.38577C5.4372 7.19172 5.46594 7.00061 5.46443 6.77715C5.45989 5.60548 5.44779 4.43382 5.46443 3.26215C5.49165 1.53038 6.72889 0.192587 8.44105 0.0161754C10.0731 -0.151416 11.6204 0.943806 11.9592 2.54915C12.127 3.34153 11.9924 4.15597 12.0272 4.82633H12.0257Z" fill="#949BAB"/>
</g>
<defs>
<clipPath id="clip0_394_395">
<rect width="16.5" height="22" fill="white" transform="translate(0.626953)"/>
</clipPath>
</defs>
</svg>
