<svg width="24" height="16" viewBox="0 0 24 16" fill="none" xmlns="http://www.w3.org/2000/svg">
<path d="M20.7082 0.710907H2.96819C1.87957 0.710907 0.99707 1.49377 0.99707 2.45947V12.9509C0.99707 13.9166 1.87957 14.6995 2.96819 14.6995H20.7082C21.7968 14.6995 22.6793 13.9166 22.6793 12.9509V2.45947C22.6793 1.49377 21.7968 0.710907 20.7082 0.710907Z" fill="white"/>
<path fill-rule="evenodd" clip-rule="evenodd" d="M2.96791 1.40972C2.18445 1.40972 1.69622 1.95585 1.69622 2.45886V12.9503C1.69622 13.4533 2.18445 13.9994 2.96791 13.9994H20.7079C21.4914 13.9994 21.9796 13.4533 21.9796 12.9503V2.45886C21.9796 1.95585 21.4914 1.40972 20.7079 1.40972H2.96791ZM0.297363 2.45886C0.297363 1.03046 1.57413 0.0108643 2.96791 0.0108643H20.7079C22.1017 0.0108643 23.3784 1.03046 23.3784 2.45886V12.9503C23.3784 14.3786 22.1017 15.3983 20.7079 15.3983H2.96791C1.57413 15.3983 0.297363 14.3786 0.297363 12.9503V2.45886Z" fill="#6FA059"/>
<path d="M4.64886 8.55931C4.54541 8.29612 4.49365 8.01124 4.49365 7.70454C4.49365 7.39784 4.54541 7.11395 4.64886 6.85278C4.75237 6.58959 4.89366 6.36801 5.07292 6.18798C5.25393 6.00592 5.46823 5.86351 5.71583 5.76063C5.96343 5.65774 6.2276 5.60626 6.50842 5.60626C6.70797 5.60626 6.89367 5.63396 7.06545 5.68935C7.23911 5.74279 7.38879 5.81798 7.51441 5.91492C7.64191 6.01186 7.75179 6.1167 7.84419 6.22952C7.93658 6.34031 8.01877 6.46299 8.09088 6.59756L7.39802 6.96259C7.31675 6.79242 7.19575 6.65191 7.03495 6.54112C6.87422 6.43033 6.69874 6.37493 6.50842 6.37493C6.16479 6.37493 5.88118 6.50055 5.65764 6.75185C5.4341 7.00316 5.32233 7.3207 5.32233 7.70454C5.32233 8.08839 5.4341 8.40691 5.65764 8.66017C5.88118 8.91147 6.16479 9.03709 6.50842 9.03709C6.69874 9.03709 6.87422 8.9817 7.03495 8.87091C7.19575 8.76012 7.31675 8.61863 7.39802 8.44649L8.09088 8.80565C7.73242 9.47046 7.20498 9.80283 6.50842 9.80283C6.2276 9.80283 5.96343 9.75135 5.71583 9.64846C5.46823 9.54558 5.25393 9.40415 5.07292 9.22412C4.89366 9.04206 4.75237 8.82048 4.64886 8.55931Z" fill="#6FA059"/>
<path d="M8.12988 9.72853L9.59316 5.67444H10.6047L12.0624 9.72853H11.1423L10.9095 9.04295H9.28835L9.04998 9.72853H8.12988ZM9.50727 8.28316H10.6878L10.0975 6.53809L9.50727 8.28316Z" fill="#6FA059"/>
<path d="M12.1177 9.15646L12.5556 8.50054C12.7016 8.66281 12.877 8.79535 13.0821 8.89824C13.2872 8.99916 13.5126 9.04959 13.7583 9.04959C13.9689 9.04959 14.1306 9.00609 14.2433 8.91901C14.3579 8.82997 14.4152 8.7231 14.4152 8.59846C14.4152 8.52327 14.3902 8.45801 14.3403 8.40262C14.2904 8.3452 14.223 8.29875 14.138 8.26308C14.0549 8.22748 13.9588 8.19482 13.8497 8.16516C13.7408 8.13551 13.6262 8.10578 13.5061 8.07613C13.386 8.04444 13.2659 8.00982 13.1458 7.97226C13.0257 7.93268 12.9112 7.88225 12.8022 7.82091C12.6932 7.75761 12.5962 7.68438 12.5112 7.60129C12.4281 7.51819 12.3616 7.4123 12.3117 7.28375C12.2618 7.15512 12.2369 7.00971 12.2369 6.84744C12.2369 6.4992 12.3671 6.2074 12.6276 5.9719C12.89 5.73452 13.2382 5.61575 13.6724 5.61575C14.2784 5.61575 14.7707 5.80376 15.1496 6.1797L14.7006 6.81184C14.5509 6.66538 14.38 6.55459 14.1878 6.47941C13.9957 6.40422 13.7999 6.36666 13.6003 6.36666C13.4304 6.36666 13.2973 6.40422 13.2013 6.47941C13.1071 6.55264 13.0599 6.65153 13.0599 6.77624C13.0599 6.85136 13.0904 6.91767 13.1514 6.97509C13.2142 7.03048 13.2964 7.07399 13.398 7.10567C13.5015 7.13533 13.6179 7.16897 13.7472 7.20653C13.8784 7.24213 14.0114 7.2778 14.1463 7.3134C14.2811 7.34704 14.4133 7.39649 14.5426 7.46182C14.6738 7.52512 14.7902 7.59933 14.8918 7.68438C14.9953 7.76747 15.0774 7.87924 15.1384 8.01975C15.2012 8.1602 15.2326 8.32051 15.2326 8.50054C15.2326 8.88837 15.1033 9.2029 14.8447 9.44435C14.5878 9.68376 14.2128 9.80343 13.7195 9.80343C13.0489 9.80343 12.5149 9.5878 12.1177 9.15646Z" fill="#6FA059"/>
<path d="M15.7759 9.72853V5.67444H16.5823V7.26815H18.3698V5.67444H19.1818V9.72853H18.3698V8.02794H16.5823V9.72853H15.7759Z" fill="#6FA059"/>
</svg>
