<svg width="24" height="17" viewBox="0 0 24 17" fill="none" xmlns="http://www.w3.org/2000/svg">
<path d="M24 15.0472C23.9336 15.2507 23.8672 15.4543 23.8052 15.6434C21.3801 13.2401 18.9705 10.8512 16.5566 8.45864C18.9849 6.05475 21.4001 3.6634 23.8178 1.26953C23.8679 1.42232 23.9342 1.62582 24 1.82933V15.0472Z" fill="#C76779"/>
<path d="M1.21582 0.171985C1.49948 0.11062 1.73868 0.0548905 1.97975 0.00855363C2.05552 -0.00584838 2.13567 0.00229189 2.21332 0.00229189C8.73492 0.00229189 15.2565 0.000413364 21.7781 0.00792745C22.0975 0.00792745 22.4168 0.0899563 22.7362 0.133788C22.7393 0.161966 22.7431 0.19077 22.7462 0.218948C22.6898 0.277809 22.6341 0.337921 22.5765 0.396155C19.2791 3.70423 15.9816 7.01169 12.6842 10.3191C12.224 10.7806 11.7806 10.7831 11.3254 10.3267C8.02233 7.01294 4.71989 3.69985 1.41682 0.386137C1.36297 0.33166 1.31162 0.274051 1.21582 0.171359V0.171985Z" fill="#C76779"/>
<path d="M8.50083 9.5042C9.10509 10.1053 9.7513 10.749 10.3994 11.3915C11.0619 12.0477 11.8527 12.2356 12.7231 11.9375C13.0494 11.8261 13.3593 11.6025 13.616 11.3646C14.2166 10.8073 14.7801 10.2105 15.3593 9.63006C15.4188 9.57057 15.4808 9.51359 15.5127 9.48291C17.9291 11.8768 20.3349 14.26 22.797 16.6989C22.5071 16.7641 22.2735 16.8229 22.0368 16.8674C21.9385 16.8862 21.8346 16.8755 21.7331 16.8755C15.2441 16.8755 8.75506 16.8755 2.26602 16.8768C1.91974 16.8768 1.58286 16.843 1.25537 16.6764C3.67616 14.28 6.08693 11.8937 8.50146 9.5042H8.50083Z" fill="#C76779"/>
<path d="M0.190357 15.6015C0.0582342 15.3555 0.000626174 15.0336 0.000626174 14.6955C0.0025047 12.5947 0.00125235 10.4945 0.00125235 8.39365C0.00125235 6.31663 0.0025047 4.23961 0 2.16259C0 1.83072 0.0676268 1.51888 0.204133 1.24023C2.62179 3.6366 5.03131 6.02483 7.44459 8.41619C5.01753 10.8201 2.60301 13.2114 0.190357 15.6015Z" fill="#C76779"/>
</svg>
