<svg width="18" height="24" viewBox="0 0 18 24" fill="none" xmlns="http://www.w3.org/2000/svg">
<path d="M16.0763 24H1.92272C1.90394 23.9875 1.88704 23.9687 1.86638 23.9637C0.648995 23.6689 0.000556361 22.8472 0.000556361 21.5942C0.000556361 18.1827 -0.000695452 14.7706 0.000556361 11.3591C0.000556361 9.971 0.968208 9.00907 2.3596 9.00657C2.5674 9.00657 2.77583 9.00657 2.99927 9.00657C2.99927 8.034 2.99051 7.09084 3.00366 6.14769C3.00929 5.7509 3.03495 5.35099 3.09692 4.95983C3.59702 1.82308 6.73781 -0.438103 9.87486 0.0719625C12.8861 0.561375 14.9923 3.02972 14.9979 6.0776C14.9998 6.96755 14.9979 7.85751 14.9979 8.74746C14.9979 8.82945 14.9979 8.91206 14.9979 9.00719C15.2883 9.00719 15.5456 9.00156 15.8022 9.00782C16.997 9.03661 17.9872 10.001 17.9916 11.1945C18.0041 14.7312 18.001 18.2679 17.9929 21.8045C17.991 22.7295 17.3864 23.5438 16.5157 23.8592C16.3711 23.9118 16.2228 23.9524 16.0763 23.9987V24ZM12.995 8.99342C12.995 8.21362 13.0019 7.45008 12.9925 6.68655C12.9869 6.22717 12.9975 5.76154 12.9293 5.30968C12.6151 3.22311 10.5039 1.70668 8.42526 2.05152C6.39106 2.38885 5.01595 3.99916 5.0053 6.05945C5.00092 6.84802 5.00468 7.63596 5.00468 8.42453C5.00468 8.60978 5.00468 8.79565 5.00468 8.9928H12.9956L12.995 8.99342ZM8.0034 17.9637C8.0034 18.0964 8.0034 18.2291 8.0034 18.3617C8.00465 18.6039 7.99589 18.8461 8.01028 19.0871C8.04033 19.5965 8.47471 19.9971 8.99045 20.0033C9.51121 20.0102 9.97187 19.6022 9.98627 19.0815C10.0057 18.3955 9.99941 17.7084 9.9919 17.0212C9.9894 16.8272 10.0357 16.702 10.2047 16.5768C10.9383 16.0348 11.1911 15.0892 10.8525 14.2555C10.5114 13.4138 9.65517 12.9125 8.75198 13.0251C7.94206 13.1259 7.2836 13.6979 7.07267 14.4834C6.85736 15.2838 7.13839 16.1043 7.81688 16.5956C7.96334 16.7014 8.01341 16.8078 8.00715 16.9805C7.99463 17.3078 8.0034 17.6358 8.0034 17.9637Z" fill="#CA6A7C"/>
</svg>
