<svg width="20" height="16" viewBox="0 0 20 16" fill="none" xmlns="http://www.w3.org/2000/svg">
<g clip-path="url(#clip0_878_4689)">
<path d="M19.9671 11.9442C19.8659 12.8061 19.0588 13.5268 18.1484 13.5505C17.5956 13.5649 17.0422 13.5603 16.4894 13.5521C16.3484 13.55 16.3202 13.5928 16.3197 13.7226C16.3187 14.0884 16.28 14.4552 16.2957 14.8199C16.3171 15.3078 15.7674 15.7034 15.2683 15.3861C14.3407 14.7962 13.3974 14.23 12.463 13.6499C12.3533 13.5819 12.2463 13.5531 12.1174 13.5536C11.2456 13.5577 10.3738 13.5557 9.50148 13.5557C9.05776 13.5557 8.65736 13.4269 8.30343 13.1631C8.00587 12.9416 7.90981 12.6876 8.00639 12.397C8.10297 12.1075 8.33162 11.9601 8.70591 11.9591C9.56465 11.9565 10.4239 11.9586 11.2826 11.9586C12.3236 11.9586 13.365 11.9591 14.406 11.9586C15.7695 11.9576 16.754 10.987 16.7551 9.6408C16.7561 8.16378 16.7551 6.68675 16.7551 5.21025C16.7551 4.72855 16.9978 4.48487 17.4838 4.48951C17.8085 4.4926 18.1348 4.45911 18.4569 4.5266C19.2415 4.69146 19.8157 5.27464 19.9635 6.05669C19.9682 6.08193 19.9692 6.10718 19.9995 6.11645V11.7448C19.9536 11.8061 20.0011 11.8818 19.9666 11.9452L19.9671 11.9442Z" fill="url(#paint0_linear_878_4689)"/>
<path d="M19.9673 11.9443C19.9537 11.8737 19.95 11.8047 20.0002 11.7439V11.9366L19.985 11.9469L19.9673 11.9438V11.9443Z" fill="#525252"/>
<path d="M15.8091 2.51364C15.8091 2.2885 15.7872 2.06543 15.7178 1.84906C15.4495 1.0088 14.7165 0.501858 13.7544 0.500827C11.8083 0.498767 9.86166 0.500312 7.91554 0.500312C5.96262 0.500312 4.00971 0.498767 2.05732 0.500827C0.822719 0.502373 0.00104406 1.31327 0.00052203 2.52703C0 4.74334 -0.00052203 6.95965 0.00104406 9.17595C0.00156609 10.3428 0.832115 11.1635 2.0119 11.1666C2.51984 11.1682 3.02725 11.1702 3.53518 11.1646C3.64481 11.1635 3.67613 11.1934 3.67718 11.3021C3.6824 11.7709 3.69701 12.2397 3.7085 12.7085C3.70902 12.7343 3.71059 12.7601 3.70954 12.7858C3.69701 13.0805 3.79881 13.3149 4.07862 13.4499C4.35216 13.5813 4.59021 13.505 4.82042 13.3324C5.72145 12.657 6.62821 11.9888 7.52819 11.3124C7.66392 11.2104 7.79651 11.163 7.96983 11.1635C9.9029 11.1697 11.8365 11.1682 13.7696 11.1671C14.9776 11.1666 15.8076 10.3537 15.8091 9.16307C15.8118 6.94677 15.8102 4.73046 15.8091 2.51415V2.51364ZM10.7444 7.61702C10.6823 7.87049 10.5152 8.02813 10.2568 8.0848C10.1874 8.09974 10.1148 8.10592 10.0438 8.10644C8.61871 8.10747 7.19305 8.10747 5.76791 8.10695C5.65724 8.10695 5.54761 8.09717 5.4432 8.05441C5.16757 7.9421 5.00104 7.6572 5.04646 7.37282C5.0924 7.08381 5.32679 6.85867 5.62748 6.83961C5.86083 6.82467 6.09574 6.83188 6.33013 6.83137C6.85738 6.83034 7.38463 6.83137 7.91188 6.83137C8.63437 6.83137 9.35686 6.82725 10.0793 6.83291C10.5502 6.83703 10.8493 7.19354 10.7455 7.61702H10.7444ZM11.9326 4.72222C11.9059 5.07821 11.6402 5.31313 11.2477 5.31468C10.3889 5.31777 9.53017 5.31571 8.67143 5.31571C8.41146 5.31571 8.15097 5.31571 7.891 5.31571C6.77856 5.31571 5.66611 5.3188 4.55366 5.31416C4.06035 5.3121 3.74713 4.88244 3.91366 4.45278C4.01441 4.19313 4.25193 4.04269 4.57872 4.04166C5.1707 4.03909 5.76269 4.04115 6.35467 4.04115C7.97453 4.04115 9.59438 4.04012 11.2142 4.04166C11.6585 4.04166 11.9618 4.33377 11.9326 4.72222Z" fill="url(#paint1_linear_878_4689)"/>
</g>
<defs>
<linearGradient id="paint0_linear_878_4689" x1="8.06817" y1="15.5001" x2="19.9995" y2="15.5001" gradientUnits="userSpaceOnUse">
<stop stop-color="#DF7E8E"/>
<stop offset="1" stop-color="#AF4F64"/>
</linearGradient>
<linearGradient id="paint1_linear_878_4689" x1="0.128751" y1="13.5163" x2="15.8106" y2="13.5163" gradientUnits="userSpaceOnUse">
<stop stop-color="#DF7E8E"/>
<stop offset="1" stop-color="#AF4F64"/>
</linearGradient>
<clipPath id="clip0_878_4689">
<rect width="20" height="15" fill="white" transform="translate(0 0.5)"/>
</clipPath>
</defs>
</svg>
