<svg width="24" height="24" viewBox="0 0 24 24" fill="none" xmlns="http://www.w3.org/2000/svg">
<g clip-path="url(#clip0_1572_7323)">

<path d="M12.0021 23.9967C5.45142 24.028 0.0211892 18.636 6.25318e-05 12.0806C-0.0210641 5.41066 5.31376 0.0376692 11.9946 0.000186425C18.5513 -0.0366149 23.9822 5.37999 24 11.9729C24.017 18.5985 18.6624 23.9646 12.0027 23.9967H12.0021ZM12.0061 2.18577C6.59295 2.18577 2.18633 6.5774 2.18429 11.9736C2.18224 17.4065 6.57114 21.8172 11.9775 21.8159C17.4118 21.8145 21.8116 17.4181 21.8144 11.9872C21.8171 6.59034 17.4084 2.18509 12.0061 2.18577Z" fill="#DF7E8E"/>
<path d="M10.9171 8.72992C10.9171 7.62315 10.9089 6.51639 10.9205 5.40962C10.926 4.87805 11.3376 4.44052 11.8439 4.38123C12.4035 4.31581 12.8955 4.62521 13.0407 5.15269C13.0829 5.30535 13.085 5.47232 13.085 5.63247C13.0877 7.50593 13.0897 9.37871 13.0822 11.2522C13.0816 11.4553 13.1354 11.5997 13.2812 11.7435C14.1849 12.6343 15.0777 13.5359 15.9759 14.4314C16.2751 14.7292 16.4155 15.0788 16.3187 15.4966C16.1279 16.3171 15.1595 16.6245 14.5291 16.0636C14.2878 15.8489 14.0677 15.6104 13.8387 15.3814C13.0018 14.5445 12.169 13.7035 11.326 12.8728C11.0411 12.592 10.9055 12.2737 10.9103 11.8717C10.9219 10.8242 10.9144 9.77739 10.9144 8.72992C10.915 8.72992 10.9164 8.72992 10.9171 8.72992Z" fill="#DF7E8E"/>
</g>
<defs>
<clipPath id="clip0_1572_7323">
<rect width="24" height="24" fill="white"/>
</clipPath>
</defs>
</svg>
