<svg width="19" height="22" viewBox="0 0 19 22" fill="none" xmlns="http://www.w3.org/2000/svg">
<g clip-path="url(#clip0_2866_20128)">
<path d="M1.3548 9.40383C1.15298 9.40383 0.950538 9.40756 0.74872 9.4032C0.311448 9.39448 -0.000621963 9.10297 9.30804e-07 8.7093C0.00124672 8.31439 0.316431 8.02412 0.751211 8.02162C1.17042 8.01913 1.59025 8.01851 2.00946 8.02162C2.43303 8.02536 2.73949 8.31127 2.74634 8.70058C2.75257 9.08677 2.44984 9.38763 2.03001 9.40196C1.80577 9.41006 1.58028 9.40383 1.3548 9.40383Z" fill="url(#paint0_linear_2866_20128)"/>
<path d="M1.36965 13.9796C1.14416 13.9796 0.918674 13.9852 0.69381 13.9784C0.306369 13.9659 0.00800306 13.6719 -9.45598e-05 13.3032C-0.00756929 12.945 0.265881 12.6236 0.643978 12.6068C1.13233 12.5843 1.62317 12.5837 2.11089 12.608C2.49024 12.6273 2.7587 12.9518 2.74625 13.3112C2.73379 13.6819 2.43729 13.9678 2.04487 13.979C1.82 13.9846 1.59451 13.9796 1.36965 13.9796Z" fill="url(#paint1_linear_2866_20128)"/>
<path d="M1.38598 3.44772C1.61084 3.44772 1.83633 3.44211 2.06119 3.44896C2.44988 3.46017 2.74326 3.7548 2.74638 4.12792C2.74949 4.48982 2.4723 4.7994 2.09421 4.81248C1.61333 4.8293 1.13121 4.8293 0.650339 4.81248C0.273488 4.79877 -0.00370002 4.48733 3.73443e-05 4.12667C0.0043976 3.75356 0.298404 3.46017 0.687713 3.44896C0.920052 3.44211 1.15301 3.44772 1.38598 3.44772Z" fill="url(#paint2_linear_2866_20128)"/>
<path d="M1.35791 18.5529C1.13305 18.5529 0.907561 18.5585 0.682696 18.5517C0.294633 18.5392 0.00187284 18.2421 4.15463e-06 17.8696C-0.00124163 17.5083 0.277815 17.2 0.655289 17.1875C1.13616 17.1713 1.61828 17.1707 2.09916 17.1881C2.47539 17.2018 2.75257 17.5158 2.74697 17.8771C2.74074 18.2508 2.44798 18.5411 2.05742 18.5523C1.82446 18.5585 1.59088 18.5529 1.35791 18.5529Z" fill="url(#paint3_linear_2866_20128)"/>
<path d="M18.6394 2.24304C18.6381 0.946796 17.7019 0.00311134 16.4132 0.00248844C12.2572 -0.00062603 8.10189 -0.00062603 3.94594 0.00248844C2.73005 0.00373423 1.8038 0.888244 1.73529 2.09604C1.71224 2.50403 1.71224 2.50403 2.11276 2.51649C2.91006 2.54141 3.56099 3.13938 3.66937 3.9479C3.77028 4.69911 3.26511 5.46402 2.52325 5.68515C2.31956 5.74557 2.11027 5.75803 1.90098 5.75118C1.77204 5.74682 1.72283 5.78419 1.72781 5.92061C1.73778 6.19219 1.73093 6.46439 1.73093 6.73597C1.73093 7.07919 1.73093 7.07919 2.08348 7.08916C2.7967 7.10909 3.40215 7.56941 3.60833 8.24712C3.81015 8.91174 3.56037 9.62807 2.98543 10.0367C2.669 10.2616 2.31084 10.3481 1.93025 10.3319C1.76269 10.3251 1.71909 10.3812 1.72719 10.5406C1.74027 10.7885 1.7303 11.0377 1.7303 11.2862C1.7303 11.6469 1.7303 11.6469 2.08286 11.6662C2.93186 11.7117 3.57469 12.3009 3.67062 13.1213C3.75969 13.8824 3.25888 14.6224 2.50456 14.8442C2.30087 14.904 2.09283 14.9239 1.88229 14.9096C1.75709 14.9009 1.72345 14.9476 1.72719 15.0678C1.73591 15.3238 1.72968 15.5804 1.72968 15.8365C1.72968 16.2283 1.72968 16.2283 2.12273 16.2526C3.34422 16.3267 4.06553 17.6092 3.46569 18.6557C3.12995 19.2412 2.6036 19.5028 1.93399 19.486C1.82872 19.4835 1.73155 19.4573 1.7247 19.638C1.67237 20.9691 2.63225 21.9969 3.95839 21.9975C8.10625 22.0006 12.2547 21.9987 16.4026 21.9994C16.6212 21.9994 16.8361 21.9769 17.0466 21.9172C18.0159 21.6406 18.6375 20.8078 18.6381 19.7651C18.6406 16.8449 18.6394 13.9242 18.6394 11.004C18.6406 8.08392 18.6431 5.16317 18.6394 2.24304ZM10.1836 6.42266C11.5135 6.42328 12.5967 7.50712 12.5967 8.837C12.5967 10.1669 11.5122 11.2507 10.1824 11.2501C8.8531 11.2495 7.76926 10.165 7.76926 8.83513C7.76926 7.50587 8.85372 6.42204 10.1836 6.42266ZM14.0088 15.5773C11.458 15.5773 8.90729 15.5773 6.35654 15.5773C6.19895 15.5045 6.15534 15.3799 6.15846 15.2104C6.1896 13.566 7.44411 12.1053 9.06052 11.8381C9.26981 11.8032 9.47973 11.7858 9.69151 11.7864C10.0491 11.7876 10.4066 11.7758 10.7635 11.7895C12.1438 11.8406 13.1536 12.4953 13.8132 13.6968C14.0723 14.1683 14.1844 14.6829 14.2069 15.2198C14.2137 15.3867 14.1614 15.5057 14.0088 15.5773Z" fill="url(#paint4_linear_2866_20128)"/>
</g>
<defs>
<linearGradient id="paint0_linear_2866_20128" x1="0.0223651" y1="9.40612" x2="2.74644" y2="9.40612" gradientUnits="userSpaceOnUse">
<stop stop-color="#DF7E8E"/>
<stop offset="1" stop-color="#AF4F64"/>
</linearGradient>
<linearGradient id="paint1_linear_2866_20128" x1="0.0221248" y1="13.9818" x2="2.74666" y2="13.9818" gradientUnits="userSpaceOnUse">
<stop stop-color="#DF7E8E"/>
<stop offset="1" stop-color="#AF4F64"/>
</linearGradient>
<linearGradient id="paint2_linear_2866_20128" x1="0.0223649" y1="4.82509" x2="2.7464" y2="4.82509" gradientUnits="userSpaceOnUse">
<stop stop-color="#DF7E8E"/>
<stop offset="1" stop-color="#AF4F64"/>
</linearGradient>
<linearGradient id="paint3_linear_2866_20128" x1="0.0223701" y1="18.5552" x2="2.74705" y2="18.5552" gradientUnits="userSpaceOnUse">
<stop stop-color="#DF7E8E"/>
<stop offset="1" stop-color="#AF4F64"/>
</linearGradient>
<linearGradient id="paint4_linear_2866_20128" x1="1.86043" y1="21.9994" x2="18.6414" y2="21.9994" gradientUnits="userSpaceOnUse">
<stop stop-color="#DF7E8E"/>
<stop offset="1" stop-color="#AF4F64"/>
</linearGradient>
<clipPath id="clip0_2866_20128">
<rect width="18.6414" height="22" fill="white"/>
</clipPath>
</defs>
</svg>
