<svg width="24" height="24" viewBox="0 0 24 24" fill="none" xmlns="http://www.w3.org/2000/svg">
<g clip-path="url(#clip0_1572_7335)">

<path d="M11.9878 19.627C8.75929 19.627 5.5308 19.6218 2.30167 19.6302C1.35398 19.6327 0.637171 19.2546 0.226295 18.3893C0.0908207 18.1043 0.0316698 17.7621 0.0170411 17.4424C-0.0141245 16.7793 0.00686455 16.1136 0.00750059 15.4492C0.00877265 14.5743 0.380215 13.9118 1.13264 13.4753C1.76867 13.1062 2.17509 12.5689 2.29022 11.8358C2.44795 10.8305 2.03326 9.95616 1.16063 9.44454C0.619999 9.12742 0.24156 8.69219 0.0838243 8.07721C0.0424823 7.91608 0.0132249 7.74726 0.0113168 7.58099C0.0036844 6.85239 -0.000131788 6.1238 0.0100447 5.3952C0.0272176 4.23971 0.936106 3.31724 2.07969 3.28194C2.16683 3.27937 2.25396 3.2768 2.3411 3.2768C8.78282 3.2768 15.2245 3.27937 21.6656 3.27295C22.2953 3.27295 22.8563 3.41739 23.3206 3.86289C23.7626 4.28721 23.9846 4.81296 23.9935 5.42408C24.0031 6.10454 23.9992 6.78499 23.9954 7.46544C23.9903 8.33976 23.6144 8.99903 22.8601 9.43427C21.7884 10.0518 21.3807 11.3569 21.9118 12.4828C22.1045 12.8911 22.3933 13.2134 22.7901 13.431C23.6144 13.8823 24.0094 14.5826 23.9973 15.5269C23.9897 16.1271 23.9789 16.7286 23.9992 17.3282C24.0431 18.6326 23.0363 19.6494 21.7216 19.6372C18.5885 19.6077 15.4548 19.6276 12.3217 19.6276C12.2104 19.6276 12.0997 19.6276 11.9884 19.6276L11.9878 19.627ZM7.61889 18.3694C7.69203 18.3752 7.73083 18.3803 7.76963 18.3803C12.4584 18.3803 17.1473 18.3816 21.8361 18.3784C22.3971 18.3784 22.7602 17.9907 22.7622 17.4161C22.7641 16.8153 22.7431 16.2144 22.7685 15.6148C22.7914 15.0833 22.5853 14.7457 22.1312 14.4626C20.9717 13.7404 20.3898 12.6529 20.4521 11.2824C20.5106 9.99468 21.132 9.00674 22.2489 8.35774C22.5987 8.15424 22.7679 7.86152 22.7641 7.45453C22.7583 6.83827 22.7628 6.22137 22.7628 5.60511C22.7628 4.85212 22.4365 4.51959 21.6943 4.51959C17.0926 4.51959 12.4909 4.51959 7.8892 4.51959C7.80524 4.51959 7.72065 4.52665 7.62079 4.53115C7.62079 4.71089 7.62652 4.86945 7.61952 5.02801C7.60998 5.23471 7.61189 5.44591 7.568 5.64619C7.50249 5.94469 7.29642 6.08592 6.99812 6.08399C6.70173 6.08207 6.50647 5.93507 6.43396 5.63592C6.40025 5.49791 6.39071 5.35219 6.38626 5.20903C6.37862 4.98757 6.38435 4.76481 6.38435 4.53821C6.33219 4.52986 6.3023 4.52088 6.27241 4.52088C4.88395 4.52088 3.4955 4.51574 2.10704 4.52601C1.61221 4.52986 1.24713 4.92016 1.24204 5.42344C1.23568 6.05575 1.25857 6.68934 1.2344 7.32101C1.21469 7.83648 1.42458 8.16131 1.85835 8.43156C3.03437 9.1653 3.62016 10.2611 3.54574 11.6534C3.47705 12.9437 2.84038 13.9188 1.72542 14.5646C1.39023 14.7585 1.23631 15.048 1.23886 15.4338C1.24267 16.0584 1.23949 16.683 1.24013 17.3076C1.24013 18.0471 1.56768 18.3822 2.29467 18.3835C3.57182 18.3848 4.84961 18.3835 6.12676 18.3835C6.21008 18.3835 6.29276 18.3765 6.38689 18.372C6.38689 18.0638 6.37735 17.784 6.38944 17.5047C6.40597 17.1151 6.58661 16.8769 6.87727 16.8313C7.31168 16.7633 7.59217 17.0053 7.61571 17.4874C7.6297 17.7737 7.61825 18.0613 7.61825 18.3688L7.61889 18.3694Z" fill="#DF7E8E"/>
<path d="M18.8506 7.99663C18.7813 8.10127 18.691 8.29835 18.5479 8.44342C17.1881 9.82102 15.8193 11.189 14.4538 12.5608C13.515 13.5032 12.5781 14.4468 11.6393 15.3892C11.4612 15.5676 11.2583 15.671 10.9969 15.5933C10.7521 15.5208 10.6064 15.3565 10.553 15.1112C10.4951 14.8461 10.6255 14.6522 10.8023 14.4751C11.7424 13.534 12.6805 12.591 13.6186 11.6486C14.9842 10.2774 16.351 8.9069 17.7147 7.5338C17.9278 7.31875 18.1625 7.20127 18.4607 7.32966C18.7031 7.43366 18.8195 7.63266 18.8506 7.99728V7.99663Z" fill="#DF7E8E"/>
<path d="M10.4297 8.98036C10.4322 7.89934 11.2082 7.11681 12.2729 7.12259C13.3338 7.12773 14.0983 7.91603 14.0964 9.00218C14.0945 10.071 13.2969 10.8786 12.2513 10.8709C11.2012 10.8625 10.4271 10.0595 10.4297 8.98036ZM12.8701 8.99127C12.8701 8.61638 12.6342 8.36859 12.2729 8.36474C11.897 8.36089 11.6521 8.60932 11.6528 8.9932C11.6534 9.36039 11.9002 9.62165 12.2513 9.62679C12.6145 9.63193 12.8701 9.36937 12.8701 8.99127Z" fill="#DF7E8E"/>
<path d="M17.1432 15.7815C16.0887 15.786 15.2962 14.9887 15.293 13.9192C15.2892 12.8562 16.0848 12.039 17.1279 12.0332C18.1742 12.0275 18.9661 12.8299 18.9737 13.9038C18.9813 14.9784 18.2028 15.7764 17.1438 15.7809L17.1432 15.7815ZM16.5148 13.9103C16.5142 14.2762 16.7584 14.5252 17.1222 14.5304C17.4943 14.5355 17.764 14.2768 17.7646 13.9141C17.7652 13.5546 17.4867 13.2805 17.1273 13.2869C16.7698 13.2934 16.5161 13.5521 16.5154 13.9103H16.5148Z" fill="#DF7E8E"/>
<path d="M7.61973 9.19668C7.61973 9.45218 7.62355 9.70767 7.6191 9.96316C7.6121 10.3316 7.36151 10.5923 7.01614 10.5968C6.67078 10.6012 6.39855 10.3477 6.39092 9.98434C6.38011 9.45795 6.38011 8.93028 6.39092 8.40389C6.39855 8.04055 6.6695 7.79084 7.01868 7.79598C7.36596 7.80111 7.6121 8.05789 7.61846 8.43021C7.62291 8.6857 7.6191 8.94119 7.6191 9.19668H7.61973Z" fill="#DF7E8E"/>
<path d="M7.6191 13.7346C7.6191 13.9818 7.62291 14.2295 7.61846 14.4767C7.61083 14.8464 7.36214 15.1045 7.0155 15.1077C6.6676 15.1116 6.39855 14.8606 6.39092 14.4966C6.38011 13.9702 6.38011 13.4425 6.39092 12.9161C6.39855 12.5534 6.67205 12.3018 7.01932 12.3082C7.36596 12.3146 7.6121 12.5727 7.61846 12.9437C7.62291 13.2069 7.6191 13.4708 7.6191 13.734V13.7346Z" fill="#DF7E8E"/>
</g>
<defs>
<clipPath id="clip0_1572_7335">
<rect width="24" height="24" fill="white"/>
</clipPath>
</defs>
</svg>
