<svg width="31" height="31" viewBox="0 0 31 31" fill="none" xmlns="http://www.w3.org/2000/svg">
<circle cx="15.5" cy="15.5" r="15.5" fill="url(#paint0_linear_1087_8204)"/>
<path d="M23.8755 20.7559C23.6262 20.7559 23.3991 20.7372 23.1777 20.7645C23.0817 20.7764 22.9722 20.8652 22.9118 20.9497C22.5675 21.4311 22.1145 21.6117 21.6018 21.4532C21.1363 21.3093 20.8081 20.8577 20.8058 20.3146C20.7994 18.8166 20.8007 17.3184 20.805 15.8203C20.8065 15.2745 21.1599 14.7705 21.6075 14.6474C22.1527 14.4976 22.5908 14.6805 22.9339 15.1991C22.9659 15.2475 23.0087 15.2887 23.1265 15.3206V14.5381C23.1265 14.3872 23.1172 14.2356 23.1284 14.0856C23.1602 13.6601 23.1439 13.2989 22.6728 13.0555C22.2853 12.8553 22.2712 12.3923 22.2282 11.996C21.9184 9.14364 19.5665 6.6445 16.7267 6.13398C14.7155 5.77248 12.8602 6.14565 11.2102 7.3447C9.66099 8.47061 8.73315 10.0137 8.4178 11.9071C8.3254 12.4614 8.24761 13.0004 7.66233 13.2776C7.61143 13.3016 7.56765 13.3985 7.56692 13.462C7.5599 14.0845 7.56274 14.7071 7.56274 15.4201C7.66351 15.3017 7.71293 15.2563 7.74722 15.2014C8.0479 14.7208 8.50616 14.5096 9.00081 14.6273C9.50604 14.7475 9.88341 15.164 9.89062 15.7216C9.91041 17.2733 9.90821 18.8256 9.89227 20.3775C9.88679 20.9118 9.51534 21.3412 9.03374 21.4656C8.52979 21.5958 8.08765 21.3982 7.76099 20.9301C7.69661 20.8378 7.54786 20.7643 7.43231 20.7554C7.12161 20.7314 6.80772 20.7518 6.49518 20.746C5.79188 20.7331 5.29721 20.2763 5.28409 19.5789C5.26476 18.5554 5.26603 17.531 5.28373 16.5074C5.29476 15.8667 5.77409 15.4181 6.42478 15.385C6.55162 15.3786 6.67849 15.3697 6.83818 15.36C6.83818 14.7007 6.84465 14.0667 6.83006 13.4331C6.82823 13.3539 6.72974 13.2549 6.65103 13.203C6.16924 12.8856 6.00864 12.4834 6.08343 11.9066C6.23171 10.7627 6.54597 9.67139 7.10009 8.6604C8.44779 6.20119 10.4886 4.59258 13.2198 3.98448C16.6873 3.21259 19.715 4.13313 22.1699 6.7088C23.5774 8.18553 24.3676 9.98712 24.5353 12.0376C24.5761 12.5367 24.471 12.9822 23.9853 13.2519C23.9364 13.2789 23.8768 13.3441 23.8763 13.392C23.8691 14.0352 23.8715 14.6784 23.8715 15.3399C24.019 15.3474 24.1242 15.3555 24.2295 15.3578C24.9041 15.3727 25.3999 15.8396 25.41 16.5162C25.4256 17.5508 25.4206 18.5856 25.4109 19.6202C25.4073 20.0126 25.2239 20.3342 24.8861 20.5316C24.6853 20.649 24.6439 20.7927 24.6445 21.0043C24.6483 22.2763 24.2856 23.4291 23.4518 24.4033C22.4311 25.5956 21.1088 26.1528 19.5517 26.1816C19.3901 26.1846 19.2282 26.1888 19.0669 26.1809C18.6782 26.1618 18.3711 26.1979 18.0747 26.5664C17.6307 27.1186 16.946 26.9832 16.3252 26.9043C15.8725 26.8469 15.5977 26.5549 15.4414 26.1473C15.2856 25.7408 15.395 25.3635 15.6864 25.0761C15.8586 24.9062 16.1111 24.7617 16.3464 24.7246C16.7126 24.6669 17.1058 24.6556 17.4663 24.7292C17.726 24.7822 18.0078 24.9592 18.1755 25.1656C18.3482 25.3781 18.5027 25.45 18.7604 25.4449C19.5555 25.4293 20.3474 25.4722 21.1178 25.1742C22.8463 24.5056 23.9956 22.7774 23.9036 20.9263C23.9015 20.8848 23.8903 20.8437 23.8755 20.7559ZM15.3583 4.39186C14.721 4.47977 14.0697 4.51132 13.4485 4.6649C10.2792 5.44828 8.18213 7.41857 7.14405 10.5042C6.97059 11.0196 6.88879 11.5699 6.80598 12.1104C6.75036 12.4732 6.95673 12.6323 7.30664 12.5727C7.64627 12.515 7.63032 12.2356 7.66049 12.0005C7.87645 10.3196 8.57292 8.85737 9.75099 7.65559C11.6276 5.74119 13.9263 4.9715 16.5756 5.38818C19.2997 5.81671 21.2259 7.34543 22.4181 9.81795C22.7918 10.5926 22.9684 11.4215 23.0882 12.2656C23.1254 12.528 23.2851 12.653 23.5339 12.621C23.7763 12.5897 23.918 12.4319 23.9022 12.1736C23.8937 12.0347 23.866 11.897 23.8447 11.7591C23.1944 7.53011 19.6293 4.45715 15.3583 4.39186ZM23.0989 18.0275C23.0989 18.5971 23.1044 19.1668 23.0958 19.7362C23.093 19.924 23.1435 20.0127 23.3481 20.0042C23.6485 19.9916 23.9498 19.999 24.2507 20.0013C24.5465 20.0036 24.6813 19.8565 24.6805 19.5644C24.6783 18.5542 24.6831 17.544 24.6775 16.5338C24.6758 16.2095 24.5537 16.0968 24.2206 16.0906C23.9306 16.0852 23.6397 16.1047 23.3504 16.0894C23.1441 16.0785 23.0929 16.1612 23.0958 16.3511C23.1046 16.9097 23.0989 17.4687 23.0989 18.0275ZM7.60112 18.0623C7.60112 17.502 7.59154 16.9414 7.60577 16.3814C7.61161 16.149 7.52871 16.0794 7.30564 16.0925C7.0265 16.109 6.74552 16.0984 6.46536 16.095C6.17217 16.0914 6.01676 16.244 6.01475 16.5254C6.00755 17.5383 6.01001 18.5512 6.01239 19.564C6.01311 19.8705 6.17974 20.0131 6.48159 20.011C6.76175 20.0091 7.04272 19.9976 7.32188 20.0149C7.56046 20.0296 7.60962 19.9244 7.60505 19.7107C7.59319 19.1615 7.60112 18.6118 7.60112 18.0623ZM8.3482 18.0332C8.3482 18.7867 8.35168 19.5403 8.34639 20.2939C8.34446 20.5691 8.43439 20.7609 8.73498 20.78C9.00565 20.7973 9.15613 20.6245 9.15666 20.2946C9.15904 18.7983 9.15912 17.302 9.15649 15.8056C9.15594 15.4731 9.00593 15.3008 8.73579 15.3196C8.43813 15.3402 8.34356 15.5271 8.34593 15.8049C8.3523 16.5476 8.34812 17.2905 8.3482 18.0332ZM22.3517 18.0729C22.3517 17.3296 22.3528 16.5863 22.3511 15.843C22.3503 15.5001 22.2208 15.3321 21.9594 15.324C21.7015 15.316 21.5417 15.4959 21.5411 15.8205C21.5381 17.3072 21.5381 18.7938 21.5411 20.2804C21.5418 20.624 21.6809 20.7839 21.9507 20.7799C22.2178 20.776 22.3497 20.6126 22.3508 20.2705C22.3531 19.538 22.3515 18.8054 22.3517 18.0729ZM16.9137 25.4048C16.7634 25.4048 16.6105 25.3868 16.4635 25.4091C16.2526 25.4409 16.1162 25.5592 16.1122 25.7966C16.108 26.0472 16.2386 26.1895 16.4707 26.2065C16.759 26.2276 17.0514 26.2275 17.3394 26.2047C17.5531 26.1878 17.6892 26.055 17.6929 25.8202C17.6967 25.5726 17.5655 25.4381 17.3319 25.4086C17.1946 25.3914 17.0532 25.4055 16.9137 25.4048Z" fill="white"/>
<path d="M15.35 17.6889C16.1903 17.6887 17.0307 17.688 17.8711 17.689C18.6952 17.6899 19.1912 18.1477 19.2094 18.9755C19.2304 19.9339 19.2209 20.893 19.2122 21.8517C19.2067 22.4749 18.7769 23.0535 18.047 23.0635C17.4332 23.0719 16.8186 23.0622 16.2058 23.0898C16.0031 23.0988 15.7799 23.1588 15.6088 23.2645C14.9679 23.6602 14.3454 24.0858 13.7145 24.4976C13.3665 24.7249 13.082 24.5847 13.0564 24.1665C13.0415 23.9196 13.0426 23.6707 13.0553 23.4236C13.0674 23.1885 13.0024 23.0881 12.7382 23.0662C12.0111 23.0063 11.662 22.7305 11.5259 22.1657C11.4985 22.0521 11.4909 21.9315 11.4905 21.814C11.4878 20.8768 11.4876 19.9396 11.4897 19.0024C11.4916 18.1848 11.9739 17.6967 12.7965 17.6904C13.6477 17.6837 14.4988 17.689 15.35 17.6889ZM13.774 23.5515C13.9302 23.4667 14.0249 23.4246 14.1095 23.3677C14.5471 23.0736 14.9763 22.7663 15.4219 22.4848C15.557 22.3994 15.7341 22.3433 15.8935 22.3399C16.5931 22.3245 17.2933 22.3345 17.9933 22.3327C18.3494 22.3317 18.4662 22.229 18.4683 21.8801C18.4745 20.8896 18.4746 19.8989 18.4689 18.9083C18.4668 18.5513 18.3427 18.4073 17.9836 18.4056C16.2285 18.3975 14.4733 18.3999 12.7182 18.4099C12.3695 18.412 12.2313 18.5566 12.2179 18.9055C12.1993 19.3893 12.2027 19.8742 12.2019 20.3586C12.2011 20.8539 12.194 21.3496 12.2131 21.8442C12.2284 22.2388 12.3433 22.3314 12.7323 22.3332C12.9154 22.334 13.0985 22.331 13.2815 22.3338C13.6436 22.3394 13.764 22.4562 13.773 22.8175C13.7784 23.0394 13.774 23.2616 13.774 23.5515Z" fill="white"/>
<path d="M15.3316 19.9732C14.707 19.9732 14.0824 19.9749 13.4577 19.9725C13.1255 19.9713 12.9606 19.8441 12.9744 19.5925C12.9907 19.2974 13.1918 19.2301 13.445 19.2302C14.7157 19.2315 15.9865 19.232 17.2572 19.23C17.5138 19.2295 17.7083 19.3055 17.7261 19.596C17.7413 19.8423 17.5704 19.9712 17.2377 19.9724C16.6023 19.9749 15.967 19.9732 15.3316 19.9732Z" fill="white"/>
<path d="M14.5569 21.5255C14.1802 21.5255 13.8034 21.5237 13.4267 21.5262C13.166 21.5278 12.9739 21.4377 12.9756 21.1471C12.9773 20.8731 13.1648 20.784 13.4094 20.7837C14.1844 20.7827 14.9594 20.7834 15.7344 20.7833C15.9812 20.7832 16.1664 20.8766 16.1707 21.146C16.1754 21.4367 15.978 21.5262 15.7194 21.5257C15.3319 21.5249 14.9444 21.5255 14.5569 21.5255Z" fill="white"/>
<defs>
<linearGradient id="paint0_linear_1087_8204" x1="3.15651" y1="-3.89287e-06" x2="42.0787" y2="6.16274" gradientUnits="userSpaceOnUse">
<stop stop-color="#DF7D8D"/>
<stop offset="0.14" stop-color="#DF7D8D"/>
<stop offset="1" stop-color="#AF4F63"/>
</linearGradient>
</defs>
</svg>
