<svg width="11" height="13" viewBox="0 0 11 13" fill="none" xmlns="http://www.w3.org/2000/svg">
<path d="M5.5 10.8333C5.59713 10.8332 5.69024 10.7951 5.75893 10.7274C5.82761 10.6598 5.86627 10.5681 5.86645 10.4724V6.1391C5.86645 6.0433 5.82781 5.95143 5.75902 5.88368C5.69024 5.81594 5.59695 5.77789 5.49967 5.77789C5.4024 5.77789 5.30911 5.81594 5.24032 5.88368C5.17154 5.95143 5.1329 6.0433 5.1329 6.1391V10.4724C5.13307 10.5682 5.17182 10.66 5.24065 10.7277C5.30948 10.7953 5.40275 10.8333 5.5 10.8333ZM7.7 10.8333C7.79708 10.833 7.89009 10.7949 7.95874 10.7273C8.02738 10.6596 8.0661 10.568 8.06645 10.4724V6.1391C8.06645 6.0433 8.02781 5.95143 7.95902 5.88368C7.89024 5.81594 7.79695 5.77789 7.69967 5.77789C7.6024 5.77789 7.50911 5.81594 7.44032 5.88368C7.37154 5.95143 7.3329 6.0433 7.3329 6.1391V10.4724C7.33324 10.5682 7.37205 10.6599 7.44084 10.7275C7.50963 10.7951 7.6028 10.8332 7.7 10.8333ZM10.2664 1.44423H7.33355V0.722438C7.33364 0.627542 7.31472 0.533561 7.27789 0.445873C7.24106 0.358184 7.18703 0.278509 7.11889 0.211408C7.05076 0.144306 6.96986 0.0910951 6.88082 0.0548193C6.79178 0.0185436 6.69636 -8.47802e-05 6.6 2.90056e-07H4.4C4.30364 -8.47802e-05 4.20822 0.0185436 4.11918 0.0548193C4.03014 0.0910951 3.94924 0.144306 3.88111 0.211408C3.81297 0.278509 3.75894 0.358184 3.72211 0.445873C3.68528 0.533561 3.66636 0.627542 3.66645 0.722438V1.44423H0.733553C0.637197 1.44414 0.54177 1.46277 0.452732 1.49905C0.363694 1.53532 0.282794 1.58854 0.21466 1.65564C0.146526 1.72274 0.0924966 1.80241 0.0556627 1.8901C0.0188288 1.97779 -8.60845e-05 2.07177 2.94519e-07 2.16667V4.33333H0.733553V11.5558C0.733553 11.9388 0.888053 12.3061 1.16307 12.577C1.43808 12.8478 1.81107 13 2.2 13H8.8C9.18893 13 9.56192 12.8478 9.83694 12.577C10.1119 12.3061 10.2664 11.9388 10.2664 11.5558V4.33333H11V2.16667C11.0001 2.07177 10.9812 1.97779 10.9443 1.8901C10.9075 1.80241 10.8535 1.72274 10.7853 1.65564C10.7172 1.58854 10.6363 1.53532 10.5473 1.49905C10.4582 1.46277 10.3628 1.44414 10.2664 1.44423ZM4.4 1.08333C4.40017 0.987671 4.43884 0.895975 4.50752 0.828331C4.57621 0.760687 4.66931 0.722609 4.76645 0.722438H6.23355C6.33069 0.722609 6.42379 0.760687 6.49248 0.828331C6.56116 0.895975 6.59983 0.987671 6.6 1.08333V1.44423H4.4V1.08333ZM9.53355 11.5558C9.53355 11.6506 9.51457 11.7445 9.4777 11.8321C9.44083 11.9198 9.38678 11.9994 9.31866 12.0664C9.25053 12.1334 9.16966 12.1866 9.08067 12.2228C8.99167 12.259 8.8963 12.2776 8.8 12.2776H2.2C2.10364 12.2776 2.00822 12.259 1.91918 12.2227C1.83014 12.1865 1.74924 12.1333 1.68111 12.0662C1.61297 11.9991 1.55894 11.9194 1.52211 11.8317C1.48528 11.744 1.46636 11.65 1.46645 11.5551V4.33333H9.53355V11.5558ZM10.2664 3.6109H0.733553V2.52756C0.733726 2.4319 0.77239 2.3402 0.841074 2.27256C0.909759 2.20492 1.00287 2.16684 1.1 2.16667H9.9C9.99713 2.16684 10.0902 2.20492 10.1589 2.27256C10.2276 2.3402 10.2663 2.4319 10.2664 2.52756V3.6109ZM3.3 10.8333C3.39713 10.8332 3.49024 10.7951 3.55893 10.7274C3.62761 10.6598 3.66627 10.5681 3.66645 10.4724V6.1391C3.66645 6.0433 3.62781 5.95143 3.55902 5.88368C3.49024 5.81594 3.39695 5.77789 3.29967 5.77789C3.2024 5.77789 3.10911 5.81594 3.04032 5.88368C2.97154 5.95143 2.9329 6.0433 2.9329 6.1391V10.4724C2.93307 10.5682 2.97182 10.66 3.04065 10.7277C3.10948 10.7953 3.20275 10.8333 3.3 10.8333Z" fill="#BC6470"/>
</svg>
