<svg width="24" height="24" viewBox="0 0 24 24" fill="none" xmlns="http://www.w3.org/2000/svg">
<path d="M23.9995 17.1908C23.7983 17.6349 23.4421 17.7698 22.9769 17.7545C22.3456 17.7333 21.7131 17.7492 21.1088 17.7492C20.921 18.0961 20.7808 18.4501 20.5608 18.7447C19.8339 19.7183 18.8411 20.1394 17.6489 19.948C16.4978 19.7636 15.7016 19.0822 15.2874 17.9795C15.2229 17.8075 15.1519 17.7427 14.96 17.7439C13.617 17.7539 12.274 17.7522 10.9316 17.7451C10.7715 17.7445 10.7058 17.7934 10.6524 17.9436C10.2141 19.1841 9.08995 19.9904 7.80329 19.9987C6.53423 20.0069 5.38368 19.187 4.93895 17.9577C4.91548 17.8923 4.89202 17.8276 4.86327 17.7492C4.23666 17.7492 3.61298 17.7522 2.98872 17.748C2.54282 17.7451 2.21484 17.4842 2.16497 17.1042C2.09867 16.603 2.42723 16.2195 2.94765 16.2107C3.49388 16.2013 4.04069 16.2083 4.58693 16.2083C4.672 16.2083 4.75707 16.2083 4.85623 16.2083C5.0252 15.6087 5.32149 15.0939 5.78382 14.6863C7.42017 13.2421 9.94245 13.9047 10.6535 15.9727C10.7204 16.1677 10.809 16.2136 10.9985 16.2125C12.3257 16.2048 13.6528 16.2078 14.9806 16.2095C15.1026 16.2095 15.1894 16.2095 15.2428 16.0552C15.7005 14.7223 16.8575 13.8776 18.1647 13.9071C19.52 13.9377 20.6218 14.7929 21.0478 16.1453C21.0525 16.16 21.0595 16.1736 21.0701 16.1983H22.47C22.4741 16.1141 22.4823 16.0316 22.4823 15.9498C22.4829 14.8053 22.487 13.6608 22.477 12.5164C22.4758 12.3886 22.4195 12.2419 22.3438 12.1371C22.0786 11.7689 21.7894 11.4185 21.5183 11.055C21.4256 10.9308 21.3253 10.8825 21.1675 10.8825C19.3715 10.8883 17.5756 10.8677 15.7802 10.8954C15.0281 10.9072 14.7236 10.5491 14.7347 9.83048C14.7582 8.2631 14.7418 6.69455 14.7418 5.12659V4.81559C14.6256 4.81559 14.527 4.81559 14.4279 4.81559C10.6412 4.81559 6.85457 4.81559 3.06792 4.81382C2.92946 4.81382 2.78454 4.8044 2.6537 4.76317C2.32045 4.65714 2.13036 4.33908 2.1591 3.97447C2.18551 3.63932 2.41843 3.37368 2.75227 3.30948C2.86609 3.28768 2.98461 3.28002 3.10078 3.27944C7.16964 3.27826 11.2373 3.28356 15.305 3.27296C15.9228 3.27119 16.3241 3.60516 16.2702 4.2466C16.2549 4.42331 16.2678 4.60296 16.2678 4.80617C16.3763 4.80617 16.4602 4.80617 16.5441 4.80617C17.4735 4.80617 18.4023 4.81677 19.3316 4.80145C19.7787 4.7938 20.0591 4.98346 20.2528 5.37987C20.7568 6.41182 21.3036 7.42434 21.7858 8.46631C22.2271 9.41993 22.7997 10.2769 23.4609 11.0845C23.6622 11.3301 23.8217 11.6105 24.0001 11.875V17.1908H23.9995ZM20.5009 9.33924C20.4857 9.28799 20.4798 9.24912 20.4628 9.21613C20.0022 8.29373 19.5434 7.37074 19.0735 6.45364C19.04 6.38826 18.9198 6.33231 18.8394 6.33172C18.0438 6.32288 17.2476 6.32583 16.452 6.32701C16.3934 6.32701 16.3341 6.33879 16.2854 6.3435V9.33865H20.5009V9.33924ZM9.29471 16.9446C9.29119 16.1094 8.62234 15.4438 7.78803 15.4473C6.96546 15.4509 6.28077 16.1424 6.28898 16.9617C6.2972 17.7846 6.98658 18.4672 7.80505 18.4631C8.63173 18.459 9.29765 17.7804 9.29413 16.9446H9.29471ZM16.6316 16.9364C16.6216 17.7704 17.2858 18.4554 18.1118 18.4631C18.9321 18.4708 19.6138 17.804 19.6373 16.9699C19.6602 16.1624 18.9661 15.4538 18.1453 15.4473C17.3104 15.4409 16.641 16.0988 16.631 16.9358L16.6316 16.9364Z" fill="#DF7E8E"/>
<path d="M4.00239 9.38399C5.07138 9.38399 6.14096 9.38164 7.20995 9.38576C7.54966 9.38694 7.81603 9.58249 7.9275 9.88937C8.03253 10.178 7.97386 10.522 7.72509 10.6963C7.5567 10.8141 7.32964 10.9066 7.12781 10.9078C5.03618 10.9231 2.94455 10.9213 0.852913 10.9143C0.219262 10.9119 -0.166209 10.3753 0.0702367 9.84519C0.212221 9.52653 0.472136 9.38223 0.81771 9.38281C1.87907 9.38399 2.94044 9.38281 4.0018 9.3834L4.00239 9.38399Z" fill="#DF7E8E"/>
<path d="M5.22445 7.92216C4.14783 7.92216 3.07062 7.9251 1.994 7.92039C1.60149 7.91862 1.30286 7.64414 1.24184 7.25068C1.19138 6.92495 1.40142 6.56977 1.73116 6.4555C1.85319 6.4131 1.99048 6.39955 2.12073 6.39955C4.18831 6.39601 6.25648 6.39542 8.32406 6.39837C8.86853 6.39896 9.20178 6.69111 9.2053 7.15526C9.20823 7.58759 8.87909 7.9198 8.43201 7.92157C7.36302 7.9251 6.29403 7.92274 5.22504 7.92274L5.22445 7.92216Z" fill="#DF7E8E"/>
<path d="M3.71002 13.8964C3.15557 13.8964 2.60172 13.8988 2.04727 13.8959C1.59081 13.8929 1.2558 13.5854 1.23526 13.1578C1.2159 12.7614 1.51571 12.4168 1.95222 12.3791C2.29311 12.3497 2.63809 12.3638 2.98132 12.3632C3.75402 12.3615 4.52672 12.3591 5.29943 12.3656C5.45315 12.3668 5.61449 12.3821 5.75824 12.4327C6.08562 12.5482 6.28276 12.9034 6.23171 13.2379C6.1748 13.6114 5.87206 13.8888 5.48952 13.8941C4.89635 13.9023 4.30319 13.8964 3.71002 13.8964Z" fill="#DF7E8E"/>
</svg>
