<svg width="128" height="128" viewBox="0 0 128 128" fill="none" xmlns="http://www.w3.org/2000/svg">

<path fill-rule="evenodd" clip-rule="evenodd" d="M122.334 39.3103C125.29 39.3103 127.686 41.6994 127.686 44.6465C127.686 47.5936 125.29 49.9827 122.334 49.9827H91.7504C94.7063 49.9827 97.1025 52.3717 97.1025 55.3188C97.1025 58.2659 94.7063 60.655 91.7504 60.655H108.571C111.527 60.655 113.923 63.0441 113.923 65.9912C113.923 68.9383 111.527 71.3274 108.571 71.3274H100.792C97.0655 71.3274 94.0442 73.7165 94.0442 76.6635C94.0442 78.6283 95.5733 80.407 98.6317 81.9997C101.588 81.9997 103.984 84.3888 103.984 87.3359C103.984 90.283 101.588 92.6721 98.6317 92.6721H35.171C32.2151 92.6721 29.8189 90.283 29.8189 87.3359C29.8189 84.3888 32.2151 81.9997 35.171 81.9997H5.35211C2.39622 81.9997 0 79.6106 0 76.6635C0 73.7165 2.39622 71.3274 5.35211 71.3274H35.9356C38.8915 71.3274 41.2877 68.9383 41.2877 65.9912C41.2877 63.0441 38.8915 60.655 35.9356 60.655H16.8209C13.865 60.655 11.4688 58.2659 11.4688 55.3188C11.4688 52.3717 13.865 49.9827 16.8209 49.9827H47.4044C44.4485 49.9827 42.0523 47.5936 42.0523 44.6465C42.0523 41.6994 44.4485 39.3103 47.4044 39.3103H122.334ZM122.334 60.655C125.29 60.655 127.686 63.0441 127.686 65.9912C127.686 68.9383 125.29 71.3274 122.334 71.3274C119.378 71.3274 116.982 68.9383 116.982 65.9912C116.982 63.0441 119.378 60.655 122.334 60.655Z" fill="#FFD0D9" fill-opacity="0.24"/>
<path d="M89.7083 101.626C99.1183 101.626 106.747 93.9979 106.747 84.5878C106.747 75.1778 99.1183 67.5494 89.7083 67.5494C80.2983 67.5494 72.6699 75.1778 72.6699 84.5878C72.6699 93.9979 80.2983 101.626 89.7083 101.626Z" stroke="#EE788E" stroke-width="4" stroke-linecap="round" stroke-linejoin="round"/>
<path d="M81.1873 31.0374H54.4121" stroke="#EE788E" stroke-width="4" stroke-linecap="round" stroke-linejoin="round"/>
<path d="M44.6756 31.0374H36.1575C33.467 31.0374 31.2891 33.2153 31.2891 35.9058V89.4563C31.2891 92.1468 33.467 94.3247 36.1575 94.3247H70.1001" stroke="#EE788E" stroke-width="4" stroke-linecap="round" stroke-linejoin="round"/>
<path d="M90.9248 31.0374H99.4451C102.136 31.0374 104.314 33.2153 104.314 35.9058V68.2798" stroke="#EE788E" stroke-width="4" stroke-linecap="round" stroke-linejoin="round"/>
<path d="M36.1572 48.0757H99.4446" stroke="#EE788E" stroke-width="4" stroke-linecap="round" stroke-linejoin="round"/>
<path d="M49.5439 26.1689V40.7742" stroke="#EE788E" stroke-width="4" stroke-linecap="round" stroke-linejoin="round"/>
<path d="M47.1113 40.7742H51.9798" stroke="#EE788E" stroke-width="4" stroke-linecap="round" stroke-linejoin="round"/>
<path d="M86.0557 26.1689V40.7742" stroke="#EE788E" stroke-width="4" stroke-linecap="round" stroke-linejoin="round"/>
<path d="M83.623 40.7742H88.4915" stroke="#EE788E" stroke-width="4" stroke-linecap="round" stroke-linejoin="round"/>
<path d="M41.0254 62.681H48.3269" stroke="#EE788E" stroke-width="4" stroke-linecap="round" stroke-linejoin="round"/>
<path d="M56.8477 62.681H64.1492" stroke="#EE788E" stroke-width="4" stroke-linecap="round" stroke-linejoin="round"/>
<path d="M72.6699 62.681H79.9715" stroke="#EE788E" stroke-width="4" stroke-linecap="round" stroke-linejoin="round"/>
<path d="M88.4912 62.681H95.7927" stroke="#EE788E" stroke-width="4" stroke-linecap="round" stroke-linejoin="round"/>
<path d="M41.0254 80.936H48.3269" stroke="#EE788E" stroke-width="4" stroke-linecap="round" stroke-linejoin="round"/>
<path d="M56.8477 80.936H64.1492" stroke="#EE788E" stroke-width="4" stroke-linecap="round" stroke-linejoin="round"/>
<path d="M95.3373 78.9583L84.0781 90.2174" stroke="#EE788E" stroke-width="4" stroke-linecap="round" stroke-linejoin="round"/>
<path d="M84.0781 78.9583L95.3373 90.2174" stroke="#EE788E" stroke-width="4" stroke-linecap="round" stroke-linejoin="round"/>
</svg>
