<svg width="24" height="25" viewBox="0 0 24 25" fill="none" xmlns="http://www.w3.org/2000/svg">
<path d="M12 0.96582C9.62666 0.96582 7.30662 1.66959 5.33324 2.98813C3.35987 4.30667 1.8218 6.18077 0.913527 8.37343C0.00525234 10.5661 -0.232434 12.9789 0.230524 15.3066C0.693482 17.6344 1.83629 19.7726 3.51444 21.4508C5.19259 23.1291 7.33071 24.272 9.65843 24.7351C11.9861 25.1983 14.3989 24.9607 16.5917 24.0526C18.7844 23.1445 20.6586 21.6065 21.9772 19.6332C23.2959 17.66 23.9998 15.34 24 12.9666C24.0002 11.3907 23.69 9.83009 23.087 8.37405C22.484 6.918 21.6001 5.59499 20.4858 4.48059C19.3715 3.36618 18.0485 2.4822 16.5925 1.87913C15.1365 1.27606 13.576 0.965716 12 0.96582ZM15.1534 9.13897H13.2456C13.2456 9.13897 12.6415 9.03364 12.6415 9.74459V11.0037L15.1518 10.9862L14.8191 12.9674H12.6431V18.912H10.077V12.9666H8.8466V11.0316L10.077 11.0221V9.3975C10.077 9.3975 10.1329 7.02447 12.2952 7.02447H15.1534V9.13897Z" fill="url(#paint0_linear_1114_8752)"/>
<defs>
<linearGradient id="paint0_linear_1114_8752" x1="12" y1="0.96582" x2="12" y2="24.9658" gradientUnits="userSpaceOnUse">
<stop stop-color="#DF7E8E"/>
<stop offset="1" stop-color="#AF4F64"/>
</linearGradient>
</defs>
</svg>
