<svg width="25" height="22" viewBox="0 0 25 22" fill="none" xmlns="http://www.w3.org/2000/svg">
<path d="M0.917571 6.5829V6.32426C0.968903 5.68012 1.07934 5.05225 1.29089 4.4504C1.90999 2.69691 2.95218 1.39887 4.47658 0.622969C5.43322 0.136611 6.43652 -0.0602101 7.47716 0.016241C8.63601 0.100825 9.67976 0.556278 10.6084 1.35495C11.3224 1.96981 11.8917 2.72944 12.3755 3.58016C12.503 3.80626 12.5108 3.80626 12.6399 3.57528C13.189 2.59118 13.8656 1.74534 14.7243 1.09957C15.9267 0.193542 17.2473 -0.128528 18.6722 0.0536532C19.8792 0.206555 20.9681 0.691287 21.9076 1.57942C23.1552 2.76034 23.8925 4.28123 24.0822 6.1063C24.2456 7.6711 24.0776 9.19687 23.3931 10.6071C23.0043 11.4091 22.5485 12.1557 22.0181 12.8421C20.8561 14.3435 19.5293 15.6432 18.1697 16.9005C16.4478 18.493 14.6947 20.0432 12.9712 21.6356C12.4175 22.148 12.5528 22.0943 12.0535 21.6389C10.2429 19.9797 8.41047 18.3498 6.60607 16.6826C5.43944 15.6041 4.30858 14.4769 3.28661 13.2195C2.36109 12.0825 1.58022 10.8349 1.15245 9.33676C1.02179 8.87643 0.964236 8.40308 0.916016 7.92811V7.61905C0.953348 7.51657 0.953348 7.41247 0.916016 7.30999V6.7423C0.950237 6.69025 0.950237 6.63983 0.916016 6.58778L0.917571 6.5829Z" fill="url(#paint0_linear_453_611)"/>
<defs>
<linearGradient id="paint0_linear_453_611" x1="12.5281" y1="0.000244141" x2="12.5281" y2="22.0004" gradientUnits="userSpaceOnUse">
<stop stop-color="#DF7E8E"/>
<stop offset="1" stop-color="#AF4F64"/>
</linearGradient>
</defs>
</svg>
