<svg width="24" height="18" viewBox="0 0 24 18" fill="none" xmlns="http://www.w3.org/2000/svg">
<g clip-path="url(#clip0_1042_4715)">
<path d="M5.07925 4.21555C6.12007 4.21555 6.98346 3.47626 7.1715 2.50102H22.0927C22.3125 2.50102 22.49 2.32537 22.49 2.10778C22.49 1.89018 22.3125 1.71454 22.0927 1.71454H7.16885C6.98346 0.739295 6.11743 0 5.0766 0C3.9007 0 2.94727 0.943781 2.94727 2.10778C2.94727 3.27177 3.9007 4.21555 5.0766 4.21555H5.07925ZM5.07925 0.786484C5.81551 0.786484 6.41405 1.37897 6.41405 2.10778C6.41405 2.83659 5.81551 3.42907 5.07925 3.42907C4.34298 3.42907 3.74444 2.83659 3.74444 2.10778C3.74444 1.37897 4.34298 0.786484 5.07925 0.786484Z" fill="white"/>
<path d="M15.3185 9.44633C15.5039 10.4216 16.3699 11.1609 17.4107 11.1609C18.5866 11.1609 19.5401 10.2171 19.5401 9.05309C19.5401 7.88909 18.5866 6.94531 17.4107 6.94531C16.3699 6.94531 15.5065 7.68461 15.3185 8.65985H0.397263C0.177444 8.65985 0 8.8355 0 9.05309C0 9.27068 0.177444 9.44633 0.397263 9.44633H15.3185ZM17.4107 7.7318C18.147 7.7318 18.7455 8.32428 18.7455 9.05309C18.7455 9.7819 18.147 10.3744 17.4107 10.3744C16.6745 10.3744 16.0759 9.7819 16.0759 9.05309C16.0759 8.32428 16.6745 7.7318 17.4107 7.7318Z" fill="white"/>
<path d="M23.6031 15.4997H10.7742C10.5888 14.5245 9.72275 13.7852 8.68192 13.7852C7.64109 13.7852 6.7777 14.5245 6.58967 15.4997H0.530076C0.310257 15.4997 0.132812 15.6753 0.132812 15.8929C0.132812 16.1105 0.310257 16.2862 0.530076 16.2862H6.59231C6.7777 17.2614 7.64374 18.0007 8.68457 18.0007C9.7254 18.0007 10.5888 17.2614 10.7768 16.2862H23.6058C23.8256 16.2862 24.003 16.1105 24.003 15.8929C24.003 15.6753 23.8256 15.4997 23.6058 15.4997H23.6031ZM8.68457 17.2142C7.94831 17.2142 7.34976 16.6217 7.34976 15.8929C7.34976 15.1641 7.94831 14.5716 8.68457 14.5716C9.42083 14.5716 10.0194 15.1641 10.0194 15.8929C10.0194 16.6217 9.42083 17.2142 8.68457 17.2142Z" fill="white"/>
</g>
<defs>
<clipPath id="clip0_1042_4715">
<rect width="24" height="18" fill="white"/>
</clipPath>
</defs>
</svg>
