<svg width="30" height="28" viewBox="0 0 30 28" fill="none" xmlns="http://www.w3.org/2000/svg">
<g clip-path="url(#clip0_2866_31205)">
<path d="M19.9754 25.8205C17.1492 25.8205 14.324 25.8205 11.4978 25.8205C10.4692 25.8205 10.0167 25.35 10.0301 24.2963C10.0909 19.4655 13.6633 15.2009 18.3098 14.4128C23.9159 13.4621 29.0921 17.3423 29.9074 23.112C29.961 23.4912 29.9878 23.8757 29.9981 24.2591C30.026 25.3436 29.5704 25.8205 28.5294 25.8205C26.1402 25.8205 23.751 25.8205 21.3628 25.8205H19.9754Z" fill="url(#paint0_linear_2866_31205)"/>
<path d="M20.0039 3.34791C22.6271 3.34154 24.7627 5.53175 24.7658 8.23286C24.7699 10.9329 22.6384 13.1412 20.0245 13.1454C17.4065 13.1497 15.2698 10.9552 15.2647 8.25516C15.2595 5.54768 17.3776 3.35429 20.0029 3.34791H20.0039Z" fill="url(#paint1_linear_2866_31205)"/>
<path d="M10.4011 3.86582e-05C13.0273 0.0106604 15.1403 2.20511 15.1331 4.91472C15.1258 7.61159 12.9799 9.81241 10.367 9.80392C7.74181 9.79542 5.61544 7.56591 5.63193 4.84037C5.64945 2.169 7.79643 -0.0105831 10.4011 3.86582e-05Z" fill="url(#paint2_linear_2866_31205)"/>
<path d="M3.65903 15.9125L4.46814 14.8599L5.27622 15.9125L8.83837 20.5531C9.22077 19.4028 9.7722 18.3289 10.4896 17.3315C11.9759 15.2624 13.9095 13.8179 16.3286 12.9564C16.1853 12.8438 16.0884 12.7599 15.9843 12.6877C13.9188 11.2644 11.6533 10.6961 9.18263 10.9904C4.57224 11.5384 0.920418 15.4217 0.446289 20.0996L3.65903 15.9135V15.9125Z" fill="url(#paint3_linear_2866_31205)"/>
<path d="M7.17687 26.478C6.17295 25.6017 5.81633 24.2134 5.97403 22.9154C5.99567 22.7391 6.02144 22.5638 6.05958 22.3918H8.93527L4.46712 16.571L0 22.3928H2.84065C3.0303 23.6738 3.50649 24.9176 4.29396 25.932C5.76582 27.8386 8.04679 28.2805 10.2515 27.8471C9.10637 27.6251 8.03855 27.2491 7.1779 26.478H7.17687Z" fill="url(#paint4_linear_2866_31205)"/>
</g>
<defs>
<linearGradient id="paint0_linear_2866_31205" x1="20.0146" y1="14.2695" x2="20.0146" y2="25.8205" gradientUnits="userSpaceOnUse">
<stop stop-color="#DF7E8E"/>
<stop offset="1" stop-color="#AF4A64"/>
</linearGradient>
<linearGradient id="paint1_linear_2866_31205" x1="20.0152" y1="3.3479" x2="20.0152" y2="13.1454" gradientUnits="userSpaceOnUse">
<stop stop-color="#DF7E8E"/>
<stop offset="1" stop-color="#AF4A64"/>
</linearGradient>
<linearGradient id="paint2_linear_2866_31205" x1="10.3825" y1="0" x2="10.3825" y2="9.80394" gradientUnits="userSpaceOnUse">
<stop stop-color="#DF7E8E"/>
<stop offset="1" stop-color="#AF4A64"/>
</linearGradient>
<linearGradient id="paint3_linear_2866_31205" x1="8.38743" y1="10.915" x2="8.38743" y2="20.5531" gradientUnits="userSpaceOnUse">
<stop stop-color="#DF7E8E"/>
<stop offset="1" stop-color="#AF4A64"/>
</linearGradient>
<linearGradient id="paint4_linear_2866_31205" x1="5.12575" y1="16.571" x2="5.12575" y2="28.0001" gradientUnits="userSpaceOnUse">
<stop stop-color="#DF7E8E"/>
<stop offset="1" stop-color="#AF4A64"/>
</linearGradient>
<clipPath id="clip0_2866_31205">
<rect width="30" height="28" fill="white"/>
</clipPath>
</defs>
</svg>
