<svg width="21" height="21" viewBox="0 0 21 21" fill="none" xmlns="http://www.w3.org/2000/svg">
<g clip-path="url(#clip0_1289_5739)">
<path d="M4.60972 12.5697L3.8857 15.2726L1.23943 15.3286C0.448581 13.8617 0 12.1835 0 10.4001C0 8.67548 0.419413 7.04918 1.16285 5.61719H1.16342L3.51934 6.04911L4.55138 8.3909C4.33538 9.02063 4.21765 9.69663 4.21765 10.4001C4.21773 11.1635 4.35602 11.8949 4.60972 12.5697Z" fill="#FBBB00"/>
<path d="M20.6186 8.45703C20.738 9.08615 20.8003 9.73587 20.8003 10.3999C20.8003 11.1445 20.722 11.8708 20.5729 12.5713C20.0666 14.9553 18.7437 17.037 16.9112 18.5102L16.9106 18.5096L13.9432 18.3582L13.5232 15.7365C14.7392 15.0233 15.6895 13.9073 16.1901 12.5713H10.6289V8.45703H16.2712H20.6186Z" fill="#518EF8"/>
<path d="M16.9111 18.5103L16.9117 18.5109C15.1294 19.9434 12.8654 20.8006 10.4008 20.8006C6.44023 20.8006 2.99682 18.5869 1.24023 15.3292L4.61053 12.5703C5.4888 14.9143 7.74994 16.5829 10.4008 16.5829C11.5402 16.5829 12.6077 16.2749 13.5237 15.7372L16.9111 18.5103Z" fill="#28B446"/>
<path d="M17.0375 2.39428L13.6684 5.15255C12.7204 4.55999 11.5998 4.21769 10.3993 4.21769C7.68839 4.21769 5.38496 5.96282 4.55068 8.39085L1.16268 5.61714H1.16211C2.89298 2.28 6.37982 0 10.3993 0C12.9227 0 15.2364 0.898869 17.0375 2.39428Z" fill="#F14336"/>
</g>
<defs>
<clipPath id="clip0_1289_5739">
<rect width="20.8" height="20.8" fill="white"/>
</clipPath>
</defs>
</svg>
