<svg width="24" height="24" viewBox="0 0 24 24" fill="none" xmlns="http://www.w3.org/2000/svg">
<path d="M0 20.4832C0 14.8274 0 9.1716 0 3.51583C0.0144405 3.4725 0.0341321 3.42918 0.0420088 3.38454C0.307189 1.838 1.17231 0.781149 2.63999 0.22975C2.92092 0.123408 3.22286 0.0748327 3.51561 0C9.17105 0 14.8265 0 20.4819 0C20.5252 0.0144414 20.5672 0.0354471 20.6119 0.0420114C22.5456 0.320337 23.991 1.95353 23.9936 3.90312C24.0015 9.30026 24.0028 14.6974 23.9936 20.0946C23.9897 22.2306 22.2528 23.9859 20.1196 23.9911C14.707 24.0042 9.29445 24.0016 3.88188 23.9911C2.27373 23.9885 0.83755 22.9736 0.269119 21.4678C0.149656 21.1527 0.0879559 20.8127 0 20.4832ZM11.9883 21.8157C14.6361 21.8157 17.2827 21.817 19.9306 21.8157C21.0792 21.8157 21.8144 21.0897 21.8157 19.9488C21.8183 14.6462 21.8196 9.34228 21.8157 4.03965C21.8157 2.92373 21.0779 2.1859 19.966 2.1859C14.6558 2.18328 9.34433 2.18328 4.03416 2.1859C2.92092 2.1859 2.1884 2.92373 2.18708 4.04097C2.18446 9.34359 2.18446 14.6475 2.18971 19.9501C2.18971 20.1733 2.21596 20.4057 2.28292 20.6171C2.52447 21.3772 3.18742 21.8157 4.0696 21.8157C6.70959 21.817 9.34958 21.8157 11.9883 21.8157Z" fill="#BC6470"/>
<path d="M13.1173 10.1405V17.3035H10.9591V11.5886H9.95355C9.95355 11.1239 9.95092 10.6814 9.9588 10.239C9.9588 10.2049 10.0402 10.1445 10.0835 10.1445C11.0891 10.1392 12.0947 10.1405 13.1173 10.1405Z" fill="#BC6470"/>
<path d="M13.1289 7.88228C13.1289 8.55578 12.5999 9.09011 11.9343 9.09273C11.2661 9.09536 10.7292 8.56234 10.7266 7.89541C10.7253 7.21272 11.2596 6.68364 11.9461 6.68758C12.6038 6.69152 13.1303 7.22323 13.1289 7.88228Z" fill="#BC6470"/>
</svg>
