<svg width="25" height="25" viewBox="0 0 25 25" fill="none" xmlns="http://www.w3.org/2000/svg">
<path d="M15.6402 8.27595H9.21897C8.84465 8.26932 8.48294 8.41127 8.21303 8.67073C7.94311 8.93019 7.78698 9.28603 7.77881 9.66035V16.272C7.78636 16.6467 7.94222 17.0031 8.2122 17.2631C8.48218 17.5231 8.84424 17.6654 9.21897 17.6588H15.6402C16.0143 17.6643 16.3753 17.5216 16.6444 17.2617C16.9136 17.0018 17.0689 16.646 17.0764 16.272V9.66035C17.0684 9.28666 16.9129 8.93131 16.6438 8.67192C16.3747 8.41253 16.0139 8.27017 15.6402 8.27595ZM12.4296 15.9081C11.8481 15.9083 11.2797 15.736 10.7961 15.4131C10.3125 15.0901 9.93554 14.6311 9.71284 14.0939C9.49013 13.5567 9.43171 12.9656 9.54494 12.3952C9.65816 11.8248 9.93796 11.3008 10.349 10.8895C10.76 10.4781 11.2837 10.1978 11.8539 10.0841C12.4242 9.97045 13.0154 10.0284 13.5527 10.2507C14.09 10.473 14.5493 10.8496 14.8726 11.3329C15.1959 11.8163 15.3687 12.3846 15.369 12.9662C15.3683 13.7458 15.0585 14.4934 14.5075 15.0449C13.9565 15.5964 13.2092 15.9068 12.4296 15.9081ZM15.5852 10.5676C15.4493 10.5676 15.3165 10.5273 15.2035 10.4518C15.0906 10.3763 15.0025 10.269 14.9505 10.1435C14.8985 10.0179 14.8849 9.87981 14.9114 9.74655C14.9379 9.61328 15.0034 9.49087 15.0994 9.39478C15.1955 9.2987 15.3179 9.23327 15.4512 9.20676C15.5844 9.18025 15.7226 9.19386 15.8481 9.24586C15.9736 9.29786 16.0809 9.38591 16.1564 9.49889C16.2319 9.61187 16.2722 9.7447 16.2722 9.88058C16.272 10.0627 16.1995 10.2373 16.0707 10.3661C15.9419 10.4949 15.7673 10.5674 15.5852 10.5676Z" fill="url(#paint0_linear_1170_60)"/>
<path d="M12.4319 10.9976C12.0423 10.9974 11.6615 11.1128 11.3376 11.3291C11.0136 11.5454 10.7611 11.853 10.612 12.2129C10.4628 12.5727 10.4238 12.9688 10.4997 13.3508C10.5757 13.7329 10.7632 14.0839 11.0387 14.3593C11.3141 14.6348 11.665 14.8224 12.0471 14.8983C12.4292 14.9743 12.8251 14.9352 13.185 14.7861C13.5448 14.6369 13.8524 14.3844 14.0687 14.0604C14.285 13.7364 14.4004 13.3556 14.4002 12.966C14.3996 12.4442 14.192 11.9438 13.823 11.5748C13.454 11.2058 12.9537 10.9982 12.4319 10.9976Z" fill="url(#paint1_linear_1170_60)"/>
<path d="M12.436 0.96582C10.0627 0.96582 7.74265 1.66959 5.76928 2.98813C3.79591 4.30667 2.25784 6.18077 1.34956 8.37343C0.441286 10.5661 0.203601 12.9789 0.666559 15.3066C1.12952 17.6344 2.27233 19.7726 3.95048 21.4508C5.62863 23.1291 7.76674 24.272 10.0945 24.7351C12.4222 25.1983 14.8349 24.9607 17.0277 24.0526C19.2204 23.1445 21.0946 21.6065 22.4133 19.6332C23.732 17.66 24.4359 15.34 24.436 12.9666C24.4358 9.78401 23.1715 6.7318 20.9211 4.48129C18.6708 2.23077 15.6186 0.966243 12.436 0.96582ZM18.0598 16.2724C18.0518 16.9044 17.7936 17.5073 17.3417 17.9492C16.8899 18.391 16.2812 18.6357 15.6493 18.6295H9.22678C8.59468 18.6357 7.98589 18.3911 7.53377 17.9493C7.08166 17.5075 6.82307 16.9045 6.81466 16.2724V9.66321C6.82307 9.03113 7.08166 8.42815 7.53377 7.98635C7.98589 7.54455 8.59468 7.29996 9.22678 7.30613H15.6493C16.2812 7.29996 16.8899 7.54461 17.3417 7.98645C17.7936 8.42829 18.0518 9.03127 18.0598 9.66321V16.2724Z" fill="url(#paint2_linear_1170_60)"/>
<defs>
<linearGradient id="paint0_linear_1170_60" x1="12.4276" y1="8.27573" x2="12.4276" y2="17.659" gradientUnits="userSpaceOnUse">
<stop stop-color="#DF7E8E"/>
<stop offset="1" stop-color="#AF4F64"/>
</linearGradient>
<linearGradient id="paint1_linear_1170_60" x1="12.4311" y1="10.9976" x2="12.4311" y2="14.9361" gradientUnits="userSpaceOnUse">
<stop stop-color="#DF7E8E"/>
<stop offset="1" stop-color="#AF4F64"/>
</linearGradient>
<linearGradient id="paint2_linear_1170_60" x1="12.436" y1="0.96582" x2="12.436" y2="24.9658" gradientUnits="userSpaceOnUse">
<stop stop-color="#DF7E8E"/>
<stop offset="1" stop-color="#AF4F64"/>
</linearGradient>
</defs>
</svg>
