<svg width="128" height="128" viewBox="0 0 128 128" fill="none" xmlns="http://www.w3.org/2000/svg">

<path fill-rule="evenodd" clip-rule="evenodd" d="M32.2561 81.2717H78.8481C79.1117 81.2717 79.3687 81.2434 79.6161 81.1897C79.8635 81.2434 80.1205 81.2717 80.3841 81.2717H107.008C108.987 81.2717 110.592 79.675 110.592 77.7053C110.592 75.7356 108.987 74.1389 107.008 74.1389H103.936C101.957 74.1389 100.352 72.5421 100.352 70.5724C100.352 68.6028 101.957 67.006 103.936 67.006H113.664C115.643 67.006 117.248 65.4093 117.248 63.4396C117.248 61.4699 115.643 59.8731 113.664 59.8731H102.4C104.379 59.8731 105.984 58.2764 105.984 56.3067C105.984 54.337 104.379 52.7403 102.4 52.7403H69.6321C71.6115 52.7403 73.2161 51.1435 73.2161 49.1739C73.2161 47.2042 71.6115 45.6074 69.6321 45.6074H40.4481C38.4687 45.6074 36.8641 47.2042 36.8641 49.1739C36.8641 51.1435 38.4687 52.7403 40.4481 52.7403H19.9681C17.9887 52.7403 16.3841 54.337 16.3841 56.3067C16.3841 58.2764 17.9887 59.8731 19.9681 59.8731H32.7681C34.7475 59.8731 36.3521 61.4699 36.3521 63.4396C36.3521 65.4093 34.7475 67.006 32.7681 67.006H12.2881C10.3087 67.006 8.7041 68.6028 8.7041 70.5724C8.7041 72.5421 10.3087 74.1389 12.2881 74.1389H32.2561C30.2767 74.1389 28.6721 75.7356 28.6721 77.7053C28.6721 79.675 30.2767 81.2717 32.2561 81.2717ZM115.712 81.2717C117.691 81.2717 119.296 79.675 119.296 77.7053C119.296 75.7356 117.691 74.1389 115.712 74.1389C113.733 74.1389 112.128 75.7356 112.128 77.7053C112.128 79.675 113.733 81.2717 115.712 81.2717Z" fill="#FFD0D9" fill-opacity="0.24"/>
<path fill-rule="evenodd" clip-rule="evenodd" d="M47.1038 84.3286C40.8829 84.3286 35.8398 79.4243 35.8398 73.3745C35.8398 67.3248 40.8829 62.4205 47.1038 62.4205C47.3684 62.4205 47.6308 62.4294 47.8908 62.4468C47.7101 61.4463 47.6158 60.4159 47.6158 59.3636C47.6158 49.7965 55.4097 42.0409 65.0238 42.0409C72.6993 42.0409 79.2145 46.984 81.53 53.8455C82.0786 53.7884 82.6358 53.7592 83.1998 53.7592C91.8243 53.7592 98.8158 60.6024 98.8158 69.0439C98.8158 77.0636 92.5056 83.6802 84.4798 84.3175V84.3286H55.5558M53.2458 84.3286H49.6799Z" fill="white"/>
<path d="M47.1038 85.5786C47.7942 85.5786 48.3538 85.0189 48.3538 84.3286C48.3538 83.6382 47.7942 83.0786 47.1038 83.0786V85.5786ZM47.8908 62.4468L47.8071 63.694L49.4055 63.8013L49.1209 62.2247L47.8908 62.4468ZM81.53 53.8455L80.3456 54.2452L80.6652 55.1923L81.6594 55.0888L81.53 53.8455ZM84.4798 84.3175L84.3809 83.0714L83.2298 83.1628V84.3175H84.4798ZM84.4798 84.3286V85.5786H85.7298V84.3286H84.4798ZM55.5558 83.0786C54.8655 83.0786 54.3058 83.6382 54.3058 84.3286C54.3058 85.0189 54.8655 85.5786 55.5558 85.5786V83.0786ZM53.2458 85.5786C53.9361 85.5786 54.4958 85.0189 54.4958 84.3286C54.4958 83.6382 53.9361 83.0786 53.2458 83.0786V85.5786ZM49.6799 83.0786C48.9895 83.0786 48.4299 83.6382 48.4299 84.3286C48.4299 85.0189 48.9895 85.5786 49.6799 85.5786V83.0786ZM47.1038 83.0786C41.5402 83.0786 37.0898 78.7013 37.0898 73.3745H34.5898C34.5898 80.1473 40.2257 85.5786 47.1038 85.5786V83.0786ZM37.0898 73.3745C37.0898 68.0478 41.5402 63.6705 47.1038 63.6705V61.1705C40.2257 61.1705 34.5898 66.6018 34.5898 73.3745H37.0898ZM47.1038 63.6705C47.3404 63.6705 47.5749 63.6784 47.8071 63.694L47.9745 61.1996C47.6867 61.1803 47.3963 61.1705 47.1038 61.1705V63.6705ZM49.1209 62.2247C48.9534 61.2971 48.8658 60.341 48.8658 59.3636H46.3658C46.3658 60.4907 46.4669 61.5954 46.6607 62.6689L49.1209 62.2247ZM48.8658 59.3636C48.8658 50.4927 56.0942 43.2909 65.0238 43.2909V40.7909C54.7251 40.7909 46.3658 49.1004 46.3658 59.3636H48.8658ZM65.0238 43.2909C72.1501 43.2909 78.1975 47.8796 80.3456 54.2452L82.7144 53.4458C80.2315 46.0883 73.2484 40.7909 65.0238 40.7909V43.2909ZM81.6594 55.0888C82.1651 55.0362 82.679 55.0092 83.1998 55.0092V52.5092C82.5925 52.5092 81.9922 52.5407 81.4007 52.6022L81.6594 55.0888ZM83.1998 55.0092C91.1594 55.0092 97.5658 61.3179 97.5658 69.0439H100.066C100.066 59.8869 92.4893 52.5092 83.1998 52.5092V55.0092ZM97.5658 69.0439C97.5658 76.3882 91.7803 82.4838 84.3809 83.0714L84.5788 85.5635C93.2309 84.8765 100.066 77.739 100.066 69.0439H97.5658ZM83.2298 84.3175V84.3286H85.7298V84.3175H83.2298ZM84.4798 83.0786H55.5558V85.5786H84.4798V83.0786ZM53.2458 83.0786H49.6799V85.5786H53.2458V83.0786Z" fill="#DF7E8E"/>
<path fill-rule="evenodd" clip-rule="evenodd" d="M59.7052 45.782C59.7052 62.1993 74.5637 75.7274 93.6957 77.5539C91.2981 80.4877 87.5955 82.4779 83.3773 82.7906V82.8002H49.0201C44.8516 82.8002 37.8877 81.0525 37.8877 73.3992C37.8877 65.746 43.3017 63.9983 49.0201 63.9983C49.2633 63.9983 49.5045 64.0059 49.7435 64.0209C49.5775 63.1622 49.5483 62.2771 49.4908 61.3748C49.1024 55.2796 51.7746 47.598 59.7145 45.0979C59.7081 45.3258 59.7052 45.5536 59.7052 45.782Z" fill="#FFD0D9"/>
<path d="M70.144 48.1548C73.4765 49.0324 76.1078 51.6259 77.0254 54.9275" stroke="#FFD0D9" stroke-width="2.5" stroke-linecap="round"/>
<path d="M55.2959 64.7132C55.2959 66.5422 56.9005 68.0249 58.8799 68.0249C60.8593 68.0249 62.4639 66.5422 62.4639 64.7132" stroke="#DF7E8E" stroke-width="2.5" stroke-linecap="round"/>
<path d="M70.1435 64.7132C70.1435 66.5422 71.7481 68.0249 73.7275 68.0249C75.7069 68.0249 77.3115 66.5422 77.3115 64.7132" stroke="#DF7E8E" stroke-width="2.5" stroke-linecap="round"/>
<path d="M62.4639 74.1389H69.8879" stroke="#DF7E8E" stroke-width="2.5" stroke-linecap="round"/>
<path fill-rule="evenodd" clip-rule="evenodd" d="M35.4075 43.7181H29.2911V44.9287H33.6165L28.9307 50.5779V51.7212H35.5201V50.5107H30.7216L35.4075 44.783V43.7181ZM42.2744 51.5052H37.8262V52.3856H40.9719L37.564 56.4941V57.3256H42.3563V56.4452H38.8665L42.2744 52.2796V51.5052Z" fill="#FFD0D9"/>
</svg>
