<svg width="24" height="24" viewBox="0 0 24 24" fill="none" xmlns="http://www.w3.org/2000/svg">
<path d="M12.0455 24C11.6328 23.8887 11.2234 23.7764 10.8713 23.512C10.3656 23.1325 10.0163 22.6511 9.87588 22.0317C9.83691 21.8588 9.75052 21.7466 9.60826 21.647C8.92417 21.168 8.24618 20.6805 7.56726 20.1939C7.00336 19.7896 7.00524 19.2711 7.57101 18.8667C8.23726 18.3895 8.90022 17.9072 9.57539 17.4432C9.74629 17.3258 9.79606 17.2009 9.79513 17.0027C9.78902 15.4171 9.78151 13.8311 9.79982 12.2456C9.81484 10.9545 10.9473 9.80859 12.2324 9.80248C15.3411 9.78793 18.4498 9.78793 21.5585 9.80248C22.836 9.80859 23.9863 10.9705 23.9915 12.2489C24.0032 15.342 24.0009 18.4356 23.9924 21.5287C23.9892 22.6676 23.0928 23.7069 21.9435 23.9497C21.8928 23.9605 21.8444 23.9831 21.7946 24H12.0451H12.0455ZM17.7586 18.4783C17.8366 18.7446 17.9145 19.0057 17.9896 19.2673C18.1033 19.6618 18.3291 19.7633 18.7028 19.5857C18.9611 19.4627 19.0188 19.3368 18.9357 19.0644C18.4794 17.5752 18.023 16.0864 17.5647 14.5976C17.46 14.258 17.2548 14.1186 16.8802 14.1251C16.5102 14.1317 16.3252 14.2632 16.2214 14.6014C15.7627 16.0977 15.3049 17.5944 14.8481 19.0917C14.7636 19.3678 14.8753 19.5571 15.1965 19.6285C15.5143 19.6994 15.7031 19.6679 15.7712 19.3772C15.8416 19.0752 15.9411 18.7798 16.0285 18.4783H17.7582H17.7586Z" fill="url(#paint0_linear_1114_8774)"/>
<path d="M0 2.2036C0.0610375 2.01293 0.111276 1.81849 0.184521 1.63251C0.569527 0.651414 1.51044 0.00376811 2.56451 0.00282882C5.57131 -0.000458726 8.57859 -0.00139802 11.5854 0.00282882C12.8343 0.00470741 13.8302 0.796535 14.1452 2.004C14.1767 2.12517 14.2682 2.25526 14.3696 2.32947C15.0364 2.81931 15.7134 3.2946 16.3867 3.77505C17.0074 4.21793 17.0093 4.71669 16.3937 5.15629C15.7204 5.63721 15.0495 6.12141 14.3725 6.59623C14.2513 6.68123 14.1992 6.76812 14.2025 6.91982C14.2133 7.40168 14.2067 7.88354 14.2067 8.38794C13.5973 8.38794 13.0137 8.38841 12.4301 8.38794C11.6718 8.387 10.9628 8.57157 10.3153 8.96889C10.097 9.10274 9.89606 9.26477 9.66036 9.43338C9.58101 9.10744 9.3223 9.09523 9.0467 9.07738C8.58328 9.04733 8.14522 8.91676 7.73016 8.6547C8.28842 8.03288 8.61333 7.31244 8.71803 6.47365C8.89222 6.47365 9.05468 6.47694 9.21666 6.47271C9.48194 6.46614 9.65613 6.30927 9.65519 6.08431C9.65472 5.87109 9.4918 5.7039 9.23826 5.69826C8.71522 5.68652 8.1917 5.69309 7.66866 5.69122C7.62264 5.69122 7.57663 5.68323 7.50104 5.67619C7.50104 5.38735 7.51559 5.09946 7.49447 4.81438C7.48461 4.68429 7.43812 4.51897 7.34704 4.44336C7.25783 4.36915 7.06016 4.33064 6.96626 4.3809C6.85075 4.44289 6.74652 4.60445 6.72164 4.7383C6.68126 4.95762 6.70896 5.18916 6.70802 5.41553C6.70802 5.49913 6.70802 5.58273 6.70802 5.69169C6.19108 5.69169 5.7009 5.69075 5.21072 5.69262C5.1018 5.69262 4.99146 5.69356 4.88441 5.71094C4.68439 5.74335 4.54448 5.91665 4.55528 6.10169C4.56654 6.29237 4.71679 6.45393 4.91774 6.46755C5.09616 6.47976 5.27599 6.46989 5.48633 6.46989C5.59714 7.29554 5.91125 8.02819 6.48124 8.65282C6.01407 8.94259 5.52295 9.06376 5.00085 9.09006C4.65998 9.10697 4.47499 9.3587 4.59143 9.63392C4.66561 9.8091 4.81116 9.87485 4.98629 9.86968C5.66005 9.84996 6.29954 9.69732 6.87141 9.32818C7.03528 9.2225 7.15782 9.21358 7.32919 9.32207C7.83768 9.64472 8.39641 9.826 9.00256 9.8509C9.07768 9.85418 9.15234 9.87062 9.2223 9.88001C9.04576 10.2027 8.86217 10.5014 8.71522 10.817C8.48186 11.3185 8.38843 11.8549 8.38843 12.4077C8.38843 12.999 8.38843 13.5907 8.38843 14.1937C8.32035 14.1989 8.27575 14.206 8.23067 14.206C6.32489 14.2055 4.41911 14.2158 2.51381 14.1989C1.30198 14.1881 0.284059 13.3117 0.047891 12.1254C0.0394396 12.0817 0.0169027 12.0409 0.000469519 11.9991C0 8.73501 0 5.46907 0 2.2036Z" fill="url(#paint1_linear_1114_8774)"/>
<path d="M6.2959 6.48773H7.91011C7.82606 7.13679 7.55327 7.68393 7.10441 8.16203C6.65649 7.68534 6.38464 7.1396 6.2959 6.48773Z" fill="url(#paint2_linear_1114_8774)"/>
<path d="M16.2349 17.6959C16.4504 16.9332 16.6584 16.1968 16.8668 15.4604C16.8819 15.4599 16.8969 15.4595 16.9119 15.459C17.1218 16.1968 17.3317 16.9346 17.5476 17.6959H16.2349Z" fill="url(#paint3_linear_1114_8774)"/>
<defs>
<linearGradient id="paint0_linear_1114_8774" x1="15.5725" y1="9.79156" x2="15.5725" y2="24" gradientUnits="userSpaceOnUse">
<stop stop-color="#DF7E8E"/>
<stop offset="1" stop-color="#AF4F64"/>
</linearGradient>
<linearGradient id="paint1_linear_1114_8774" x1="8.4269" y1="0" x2="8.4269" y2="14.2086" gradientUnits="userSpaceOnUse">
<stop stop-color="#DF7E8E"/>
<stop offset="1" stop-color="#AF4F64"/>
</linearGradient>
<linearGradient id="paint2_linear_1114_8774" x1="7.103" y1="6.48773" x2="7.103" y2="8.16203" gradientUnits="userSpaceOnUse">
<stop stop-color="#DF7E8E"/>
<stop offset="1" stop-color="#AF4F64"/>
</linearGradient>
<linearGradient id="paint3_linear_1114_8774" x1="16.8913" y1="15.459" x2="16.8913" y2="17.6959" gradientUnits="userSpaceOnUse">
<stop stop-color="#DF7E8E"/>
<stop offset="1" stop-color="#AF4F64"/>
</linearGradient>
</defs>
</svg>
