<svg width="25" height="25" viewBox="0 0 25 25" fill="none" xmlns="http://www.w3.org/2000/svg">
<path d="M12.2168 0.964844C9.84342 0.964844 7.52335 1.66863 5.54996 2.98721C3.57657 4.30578 2.0385 6.17993 1.13025 8.37264C0.221996 10.5654 -0.0156434 12.9782 0.447379 15.3059C0.910402 17.6337 2.05329 19.7719 3.73152 21.4501C5.40975 23.1284 7.54795 24.2712 9.87572 24.7343C12.2035 25.1973 14.6163 24.9596 16.809 24.0514C19.0017 23.1431 20.8759 21.6051 22.1944 19.6317C23.513 17.6583 24.2168 15.3382 24.2168 12.9648C24.2169 11.3889 23.9066 9.82847 23.3036 8.37252C22.7005 6.91656 21.8166 5.59365 20.7023 4.47933C19.588 3.365 18.2651 2.48109 16.8091 1.87808C15.3532 1.27506 13.7927 0.964739 12.2168 0.964844ZM9.1009 18.7642H6.60898V10.0404H9.1009V18.7642ZM7.93194 9.50823C7.70058 9.50839 7.47438 9.43994 7.28193 9.31153C7.08947 9.18313 6.93942 9.00054 6.85074 8.78685C6.76205 8.57317 6.73873 8.33799 6.78371 8.11104C6.82869 7.8841 6.93995 7.6756 7.10344 7.51189C7.26692 7.34819 7.47527 7.23664 7.70215 7.19135C7.92903 7.14606 8.16425 7.16906 8.37806 7.25745C8.59186 7.34584 8.77466 7.49565 8.90332 7.68792C9.03199 7.8802 9.10075 8.10632 9.1009 8.33767C9.10122 8.49135 9.07121 8.64357 9.0126 8.78563C8.95398 8.92769 8.86791 9.05678 8.75932 9.16552C8.65073 9.27426 8.52176 9.3605 8.37978 9.41931C8.2378 9.47812 8.08561 9.50833 7.93194 9.50823ZM17.8262 18.7642H15.3343V13.3702C15.3343 12.7382 15.154 12.2962 14.3768 12.2962C14.0366 12.2734 13.6989 12.3675 13.4194 12.5628C13.1399 12.7581 12.9355 13.0429 12.84 13.3702V18.7642H10.3449V10.0404H12.8368V10.8743C13.5569 10.3354 14.4317 10.0435 15.3311 10.042C16.1394 10.042 17.823 10.5256 17.823 13.4452L17.8262 18.7642Z" fill="url(#paint0_linear_1114_8756)"/>
<defs>
<linearGradient id="paint0_linear_1114_8756" x1="12.2168" y1="0.964844" x2="12.2168" y2="24.9648" gradientUnits="userSpaceOnUse">
<stop stop-color="#DF7E8E"/>
<stop offset="1" stop-color="#AF4F64"/>
</linearGradient>
</defs>
</svg>
