<svg width="22" height="32" viewBox="0 0 22 32" fill="none" xmlns="http://www.w3.org/2000/svg">
<path d="M10.9975 32C10.4092 31.25 9.8273 30.5389 9.27737 29.8083C7.22473 27.0864 5.27441 24.2934 3.59905 21.3129C2.33933 19.0824 1.2139 16.7937 0.491323 14.3175C-0.359146 11.4017 -0.116155 8.57634 1.30342 5.89325C2.56954 3.49464 4.48149 1.77488 6.98814 0.779224C9.31574 -0.145309 11.6945 -0.242286 14.0924 0.462428C16.3177 1.11542 18.1529 2.38908 19.6045 4.21875C20.9473 5.90618 21.7083 7.84576 21.9449 9.99223C22.1047 11.4598 21.9065 12.8951 21.4845 14.2981C20.7683 16.6709 19.6876 18.8755 18.4855 21.0155C16.3561 24.8106 13.8622 28.3536 11.1893 31.7737C11.1446 31.8319 11.0934 31.8901 11.0039 32H10.9975ZM10.9847 15.7592C13.5809 15.7657 15.6911 13.6451 15.6974 11.0267C15.6974 8.42764 13.6064 6.2941 11.0359 6.28117C8.43969 6.26824 6.34229 8.36298 6.31671 11.0008C6.29114 13.6128 8.38853 15.7528 10.9911 15.7592H10.9847Z" fill="url(#paint0_linear_1114_8664)"/>
<defs>
<linearGradient id="paint0_linear_1114_8664" x1="11" y1="0" x2="11" y2="32" gradientUnits="userSpaceOnUse">
<stop stop-color="#DF7E8E"/>
<stop offset="1" stop-color="#AF4F64"/>
</linearGradient>
</defs>
</svg>
