<svg width="24" height="24" viewBox="0 0 24 24" fill="none" xmlns="http://www.w3.org/2000/svg">
<path d="M16.4456 15.6531C16.8177 14.7584 16.8144 14.768 17.7259 14.9568C19.3635 15.2961 20.9433 15.7875 22.3476 16.6918C23.3038 17.308 24.068 18.065 23.9952 19.307C23.9274 20.4737 23.1499 21.1827 22.2385 21.7557C20.4288 22.8953 18.376 23.3978 16.2719 23.6907C12.6509 24.1949 9.0448 24.1068 5.48172 23.249C4.16003 22.9305 2.89956 22.4615 1.7466 21.7461C-0.584128 20.2993 -0.582473 18.089 1.75322 16.6438C3.37099 15.6434 5.17073 15.1185 7.03829 14.7792C7.3989 14.7136 7.40221 14.728 7.86538 15.629C6.70415 15.8243 5.57104 16.0692 4.46275 16.4181C3.53641 16.711 2.66466 17.0999 1.90044 17.6857C0.671388 18.6284 0.656501 19.6463 1.86239 20.6066C3.16753 21.6469 4.73734 22.1366 6.35016 22.4583C10.7982 23.3434 15.2198 23.3082 19.5753 21.9318C20.538 21.6277 21.4412 21.1988 22.2219 20.5618C23.2607 19.7151 23.3137 18.7692 22.3245 17.8729C21.2096 16.863 19.7853 16.4421 18.3528 16.0692C17.7259 15.9043 17.0841 15.7907 16.4456 15.6531Z" fill="url(#paint0_linear_2866_19374)"/>
<path d="M9.87508 18.2122C9.26304 18.3979 8.70393 18.5163 8.20437 18.8108C7.87188 19.0061 7.86195 19.1981 8.22422 19.339C10.8196 20.3425 13.4266 20.3233 16.0269 19.3614C16.4736 19.1965 16.3892 18.9548 16.0038 18.7596C15.5092 18.5083 14.9732 18.3883 14.4323 18.2746C14.7731 17.3768 14.8459 17.3335 15.7259 17.6264C16.0534 17.7353 16.3826 17.8681 16.6721 18.049C17.5802 18.6171 17.5934 19.475 16.7101 20.0752C16.1278 20.4705 15.4529 20.653 14.7632 20.7714C12.6508 21.1331 10.5533 21.1315 8.48557 20.4993C8.07038 20.3729 7.68165 20.192 7.35578 19.9071C6.75862 19.3838 6.76855 18.7084 7.39217 18.2122C7.87684 17.8265 8.44753 17.6008 9.06123 17.4904C9.66169 17.3816 9.53432 18.0266 9.87508 18.2122Z" fill="url(#paint1_linear_2866_19374)"/>
<path d="M19.1038 5.56986C18.3941 2.06958 15.0676 -0.11829 11.8701 0.00494776C7.19373 0.185803 3.87546 4.85444 5.48828 8.84286C7.0432 12.6904 9.58731 15.9378 12.1232 19.3133C12.5317 18.7899 12.8841 18.3498 13.2265 17.9016C15.2181 15.2896 17.0906 12.604 18.4752 9.63191C19.0789 8.33711 19.3949 7.0007 19.1038 5.56986ZM12.148 9.15016C10.6096 9.15496 9.43182 8.01701 9.41032 6.50615C9.39212 5.10892 10.646 3.89894 12.1298 3.88454C13.6268 3.87014 14.8426 5.0609 14.8509 6.55096C14.8592 7.9978 13.6665 9.14376 12.148 9.15016Z" fill="url(#paint2_linear_2866_19374)"/>
<defs>
<linearGradient id="paint0_linear_2866_19374" x1="0.19544" y1="24.0001" x2="24" y2="24.0001" gradientUnits="userSpaceOnUse">
<stop stop-color="#DF7E8E"/>
<stop offset="1" stop-color="#AF4F64"/>
</linearGradient>
<linearGradient id="paint1_linear_2866_19374" x1="7.00109" y1="21.0152" x2="17.363" y2="21.0152" gradientUnits="userSpaceOnUse">
<stop stop-color="#DF7E8E"/>
<stop offset="1" stop-color="#AF4F64"/>
</linearGradient>
<linearGradient id="paint2_linear_2866_19374" x1="5.19057" y1="19.3133" x2="19.2134" y2="19.3133" gradientUnits="userSpaceOnUse">
<stop stop-color="#DF7E8E"/>
<stop offset="1" stop-color="#AF4F64"/>
</linearGradient>
</defs>
</svg>
