<svg width="32" height="32" viewBox="0 0 32 32" fill="none" xmlns="http://www.w3.org/2000/svg">
<path d="M32 15.9914C31.9492 24.809 25.028 31.7408 16.4922 31.9928C7.40074 32.2608 0.0627269 25.0138 0.000389374 16.1072C-0.060167 7.31981 6.95013 0.0835221 15.8216 0.000714879C24.784 -0.0820924 31.9501 7.03933 32 15.9914ZM27.477 23.7628C31.3232 18.1542 30.5947 10.0756 24.8196 5.28791C19.1229 0.564339 10.6922 1.18317 5.70338 6.72324C0.843727 12.12 1.44662 19.5023 4.55993 23.7424C7.73736 20.6162 11.5471 18.9484 16.0122 18.9493C20.4765 18.9493 24.2853 20.6197 27.4779 23.7637L27.477 23.7628Z" fill="white"/>
<path d="M22.4076 10.6606C22.4192 14.1643 19.5445 17.0537 16.0421 17.0608C12.5155 17.067 9.61863 14.2151 9.60794 10.7274C9.59725 7.1275 12.4425 4.26753 16.0412 4.2613C19.533 4.25507 22.396 7.13373 22.4076 10.6615V10.6606Z" fill="white"/>
</svg>
