<svg width="24" height="24" viewBox="0 0 24 24" fill="none" xmlns="http://www.w3.org/2000/svg">
<path d="M3.33647 24C2.92933 23.8724 2.49626 23.7986 2.1208 23.6087C0.798554 22.9402 0.0937374 21.8439 0.0111567 20.363C-0.00996859 19.989 0.00539526 19.613 0.00539526 19.238C0.00539526 14.1057 0.00347478 8.97445 0.00539526 3.8422C0.0063555 2.15511 0.973318 0.751921 2.53851 0.220569C2.93797 0.0853332 3.37872 0.0153175 3.80123 0.0124402C6.91432 -0.00386483 10.0274 -0.00194659 13.1396 0.00572636C15.2943 0.010522 16.9335 1.65541 16.945 3.80959C16.9479 4.38794 16.9479 4.96533 16.945 5.54368C16.9421 6.14121 16.558 6.55938 16.0145 6.56322C15.4614 6.56706 15.0716 6.14505 15.0696 5.53409C15.0677 5.00274 15.0696 4.47138 15.0696 3.94099C15.0696 2.65961 14.2919 1.87889 13.0157 1.87889C11.3266 1.87889 9.63661 1.87889 7.94754 1.87889C6.5792 1.87889 5.2099 1.87601 3.84156 1.87984C2.90628 1.88272 2.20339 2.40065 1.95948 3.27153C1.90571 3.46431 1.88651 3.67244 1.88651 3.87289C1.88267 9.29383 1.88267 14.7148 1.88459 20.1357C1.88459 21.3231 2.68447 22.123 3.87036 22.124C6.94409 22.1268 10.0178 22.1268 13.0916 22.124C14.265 22.123 15.0639 21.3221 15.0696 20.1511C15.0725 19.589 15.0677 19.026 15.0706 18.464C15.0735 17.8559 15.4681 17.4329 16.0212 17.4396C16.5647 17.4463 16.9498 17.8645 16.946 18.4649C16.9402 19.2293 16.9796 20.0005 16.8941 20.7572C16.7078 22.4136 15.3971 23.7065 13.7436 23.9549C13.6994 23.9616 13.6581 23.9837 13.6158 23.999H3.33647V24Z" fill="url(#paint0_linear_1114_8673)"/>
<path d="M21.4246 11.1113C20.8927 10.5838 20.4097 10.1167 19.9401 9.63622C19.5608 9.24778 19.5474 8.70204 19.8892 8.32799C20.2311 7.95393 20.8082 7.89255 21.174 8.24358C21.9624 9.00225 22.7411 9.77146 23.4911 10.5675C23.832 10.9301 23.9731 11.3962 23.9971 11.916C24.0336 12.7112 23.7436 13.3346 23.1828 13.8736C22.5347 14.4961 21.9115 15.1435 21.271 15.7746C20.8927 16.1477 20.3789 16.1803 19.9987 15.8715C19.556 15.5118 19.5224 14.897 19.9363 14.4673C20.354 14.0338 20.7851 13.6146 21.2105 13.1888C21.2633 13.1351 21.3132 13.0785 21.3997 12.9864H21.1087C17.4963 12.9864 13.8839 12.9864 10.2705 12.9864C9.75003 12.9864 9.39571 12.762 9.25743 12.3515C9.06154 11.7683 9.45812 11.1679 10.0756 11.1171C10.1687 11.1094 10.2628 11.1123 10.3569 11.1123C13.9386 11.1123 17.5193 11.1123 21.101 11.1123H21.4256L21.4246 11.1113Z" fill="url(#paint1_linear_1114_8673)"/>
<defs>
<linearGradient id="paint0_linear_1114_8673" x1="8.47506" y1="0" x2="8.47506" y2="24" gradientUnits="userSpaceOnUse">
<stop stop-color="#DF7E8E"/>
<stop offset="1" stop-color="#AF4F64"/>
</linearGradient>
<linearGradient id="paint1_linear_1114_8673" x1="16.6036" y1="8.01114" x2="16.6036" y2="16.081" gradientUnits="userSpaceOnUse">
<stop stop-color="#DF7E8E"/>
<stop offset="1" stop-color="#AF4F64"/>
</linearGradient>
</defs>
</svg>
