<svg width="91" height="13" viewBox="0 0 91 13" fill="none" xmlns="http://www.w3.org/2000/svg">
<path d="M0.50791 0.856323H4.50992V0.993297C4.25979 0.993297 4.07518 1.04094 3.95012 1.13623C3.82505 1.23151 3.75359 1.36253 3.73572 1.52928C3.71786 1.69603 3.73572 1.87469 3.79528 2.08313C3.84888 2.28561 3.93225 2.4881 4.03349 2.69653L8.22608 11.2842L10.2449 6.99036L8.16057 2.69653C8.05932 2.49405 7.93426 2.29157 7.79729 2.08313C7.65436 1.88065 7.49952 1.69603 7.32086 1.54119C7.14815 1.3804 6.94567 1.25533 6.72532 1.14814C6.50497 1.0469 6.27271 0.993297 6.02259 0.993297V0.856323H10.0246V0.993297C9.77447 0.993297 9.58986 1.04094 9.46479 1.13623C9.33973 1.23151 9.26827 1.36253 9.2504 1.52928C9.23253 1.69603 9.2504 1.87469 9.30995 2.08313C9.36355 2.28561 9.44693 2.4881 9.54817 2.69653L10.9239 5.53129L12.2638 2.67867C12.3412 2.51787 12.4127 2.34517 12.4782 2.14268C12.5378 1.94616 12.5675 1.76154 12.5556 1.58883C12.5437 1.42208 12.4782 1.27915 12.3591 1.166C12.24 1.05285 12.0435 0.999252 11.7755 0.999252V0.862279H14.4197V0.999252C14.1576 0.999252 13.9254 1.05285 13.7169 1.15409C13.5085 1.25533 13.3179 1.38635 13.1571 1.5531C12.9904 1.71985 12.8474 1.90447 12.7224 2.11291C12.5973 2.32135 12.4842 2.53574 12.3829 2.75013L11.0072 5.68613L13.7408 11.2842L17.7606 2.68462C17.838 2.52383 17.9095 2.35112 17.975 2.14864C18.0346 1.95211 18.0644 1.7675 18.0524 1.59479C18.0405 1.42804 17.975 1.28511 17.8559 1.17196C17.7368 1.05881 17.5403 1.00521 17.2723 1.00521V0.868234H19.9343V1.00521C19.6604 1.00521 19.4222 1.05881 19.2137 1.16005C19.0053 1.26129 18.8147 1.39231 18.6539 1.55906C18.4872 1.72581 18.3443 1.91042 18.2192 2.11886C18.0941 2.3273 17.981 2.54169 17.8797 2.75609L13.2167 12.7492H13.0618L10.3105 7.15115L7.69605 12.7492H7.54121L2.63993 2.70249C2.53869 2.50001 2.41363 2.29752 2.27665 2.08909C2.13373 1.8866 1.97889 1.70199 1.80023 1.54715C1.62752 1.38635 1.43099 1.26129 1.2166 1.15409C1.00221 1.05285 0.76399 0.999252 0.501953 0.999252V0.856323H0.50791Z" fill="white"/>
<path d="M20.2554 6.79976C20.2554 5.95409 20.4162 5.15607 20.7378 4.40569C21.0593 3.66127 21.5 3.00618 22.0539 2.45233C22.6077 1.89848 23.2569 1.45778 24.0073 1.13619C24.7517 0.814603 25.5497 0.653809 26.4013 0.653809C27.2529 0.653809 28.045 0.814603 28.7835 1.13619C29.5219 1.45778 30.1711 1.89848 30.7249 2.45233C31.2788 3.00618 31.7195 3.65532 32.0411 4.40569C32.3626 5.15012 32.5234 5.94814 32.5234 6.79976C32.5234 7.64542 32.3626 8.44344 32.0411 9.19382C31.7195 9.93824 31.2788 10.5933 30.7249 11.1472C30.1711 11.701 29.5219 12.1417 28.7835 12.4633C28.045 12.7849 27.247 12.9457 26.4013 12.9457C25.5557 12.9457 24.7576 12.7849 24.0073 12.4633C23.2628 12.1417 22.6077 11.701 22.0539 11.1472C21.5 10.5933 21.0593 9.94419 20.7378 9.19382C20.4162 8.44344 20.2554 7.64542 20.2554 6.79976ZM21.7144 8.22309C21.9169 8.87818 22.1968 9.47967 22.5541 10.0216C22.9115 10.5636 23.3224 11.034 23.7869 11.4211C24.2514 11.8142 24.7517 12.1119 25.2877 12.3204C25.8236 12.5288 26.3715 12.636 26.9254 12.636C27.3006 12.636 27.6996 12.5765 28.1284 12.4514C28.7716 12.2489 29.3314 11.9095 29.8078 11.439C30.2842 10.9685 30.6535 10.4147 30.9214 9.77744C31.1894 9.14022 31.3383 8.43748 31.3681 7.68115C31.4038 6.92482 31.3026 6.15658 31.0644 5.37642C30.8619 4.70942 30.582 4.10793 30.2247 3.57194C29.8673 3.03596 29.4564 2.57144 28.9919 2.1903C28.5274 1.8032 28.0271 1.51138 27.4912 1.29699C26.9552 1.08855 26.4073 0.981354 25.8534 0.981354C25.4365 0.981354 25.0375 1.04091 24.6683 1.1481C24.0251 1.33868 23.4653 1.67218 22.9889 2.14265C22.5125 2.61313 22.1432 3.16698 21.8693 3.8042C21.5953 4.44143 21.4464 5.14416 21.4107 5.90645C21.375 6.66874 21.4762 7.44294 21.7144 8.22309Z" fill="white"/>
<path d="M32.8629 0.856323H36.8649V0.993297C36.6148 0.993297 36.4302 1.04094 36.3051 1.13623C36.18 1.23151 36.1086 1.36253 36.0907 1.52928C36.0728 1.69603 36.0907 1.87469 36.1503 2.08313C36.2039 2.28561 36.2872 2.4881 36.3885 2.69653L40.5811 11.2842L42.5999 6.99036L40.5155 2.69653C40.4143 2.49405 40.2892 2.29157 40.1523 2.08313C40.0093 1.88065 39.8545 1.69603 39.6758 1.54119C39.5031 1.3804 39.3007 1.25533 39.0803 1.14814C38.86 1.04094 38.6277 0.993297 38.3776 0.993297V0.856323H42.3796V0.993297C42.1295 0.993297 41.9448 1.04094 41.8198 1.13623C41.6947 1.23151 41.6232 1.36253 41.6054 1.52928C41.5875 1.69603 41.6054 1.87469 41.6649 2.08313C41.7185 2.28561 41.8019 2.4881 41.9032 2.69653L43.2788 5.53129L44.6188 2.67867C44.6962 2.51787 44.7677 2.34517 44.8332 2.14268C44.8927 1.94616 44.9225 1.76154 44.9106 1.58883C44.8987 1.42208 44.8332 1.27915 44.7141 1.166C44.595 1.05285 44.3985 0.999252 44.1305 0.999252V0.862279H46.7746V0.999252C46.5126 0.999252 46.2804 1.05285 46.0719 1.15409C45.8635 1.25533 45.6789 1.38635 45.5121 1.5531C45.3454 1.71985 45.2024 1.90447 45.0774 2.11291C44.9523 2.32135 44.8392 2.53574 44.7379 2.75013L43.3622 5.68613L46.0957 11.2842L50.1156 2.68462C50.193 2.52383 50.2645 2.35112 50.33 2.14864C50.3896 1.95211 50.4193 1.7675 50.4074 1.59479C50.3955 1.42804 50.33 1.28511 50.2109 1.17196C50.0918 1.05881 49.8953 1.00521 49.6273 1.00521V0.868234H52.2893V1.00521C52.0154 1.00521 51.7772 1.05881 51.5687 1.16005C51.3603 1.26129 51.1697 1.39231 51.0089 1.55906C50.8422 1.72581 50.6992 1.91042 50.5742 2.11886C50.4491 2.3273 50.336 2.54169 50.2347 2.75609L45.5717 12.7492H45.4168L42.6654 7.15115L40.051 12.7492H39.8962L34.9949 2.70249C34.8937 2.50001 34.7686 2.29752 34.6316 2.08909C34.4887 1.8866 34.3339 1.70199 34.1552 1.54715C33.9825 1.38635 33.786 1.26129 33.5716 1.15409C33.3572 1.05285 33.119 0.999252 32.8569 0.999252V0.856323H32.8629Z" fill="white"/>
<path d="M57.4829 0.856323H61.4849V0.993297C61.2348 0.993297 61.0502 1.04094 60.9251 1.13623C60.8001 1.23151 60.7286 1.36253 60.7107 1.52928C60.6929 1.69603 60.7107 1.87469 60.7703 2.08313C60.8239 2.28561 60.9072 2.4881 61.0085 2.69653L65.2011 11.2842L69.2388 2.68462C69.3162 2.52383 69.3877 2.35112 69.4532 2.14864C69.5128 1.95211 69.5426 1.7675 69.5306 1.59479C69.5187 1.42804 69.4532 1.28511 69.3341 1.17196C69.215 1.05881 69.0185 1.00521 68.7505 1.00521V0.868234H71.3947V1.00521C71.1326 1.00521 70.9004 1.05881 70.6919 1.16005C70.4835 1.26129 70.2989 1.39231 70.1321 1.55906C69.9654 1.72581 69.8225 1.91042 69.6974 2.11886C69.5723 2.3273 69.4592 2.54169 69.3579 2.75609L64.677 12.7492H64.5222L59.6209 2.70249C59.5197 2.50001 59.3946 2.29752 59.2576 2.08909C59.1147 1.8866 58.9598 1.70199 58.7812 1.54715C58.6085 1.38635 58.412 1.26129 58.1976 1.15409C57.9832 1.05285 57.7449 0.999252 57.4829 0.999252V0.856323Z" fill="white"/>
<path d="M74.1274 12.6004C74.3895 12.6004 74.5979 12.5468 74.7647 12.4456C74.9255 12.3443 75.0624 12.2133 75.1637 12.0525C75.2649 11.8917 75.3364 11.7131 75.3781 11.4987C75.4198 11.2902 75.4376 11.0818 75.4376 10.8793V2.70854C75.4376 2.50606 75.4198 2.29762 75.3781 2.08918C75.3364 1.88074 75.2649 1.69613 75.1637 1.53533C75.0624 1.37454 74.9314 1.24947 74.7647 1.14228C74.5979 1.04104 74.3895 0.987437 74.1274 0.987437V0.850464H77.9984V0.987437C77.7483 0.987437 77.5399 1.04104 77.3731 1.14228C77.2004 1.24352 77.0694 1.37454 76.9681 1.53533C76.8669 1.69613 76.7954 1.87479 76.7538 2.08918C76.7121 2.29762 76.6942 2.50606 76.6942 2.70854V10.8853C76.6942 11.0878 76.7121 11.2962 76.7538 11.5046C76.7954 11.7131 76.8669 11.8977 76.9681 12.0585C77.0694 12.2193 77.2064 12.3443 77.3731 12.4515C77.5399 12.5528 77.7543 12.6064 77.9984 12.6064V12.7434H74.1274V12.6004Z" fill="white"/>
<path d="M80.5719 12.6004C80.8339 12.6004 81.0423 12.5468 81.2091 12.4456C81.3699 12.3443 81.5069 12.2133 81.6081 12.0525C81.7093 11.8917 81.7808 11.7131 81.8225 11.4987C81.8642 11.2902 81.8821 11.0818 81.8821 10.8793V2.70854C81.8821 2.50606 81.8642 2.29762 81.8225 2.08918C81.7808 1.88074 81.7093 1.69613 81.6081 1.53533C81.5069 1.37454 81.3759 1.24947 81.2091 1.14228C81.0423 1.04104 80.8339 0.987437 80.5719 0.987437V0.850464H86.0687C86.9977 0.850464 87.766 1.01721 88.3734 1.35072C88.9868 1.68422 89.4454 2.10109 89.7551 2.59539C90.0647 3.09564 90.2196 3.63758 90.2136 4.22716C90.2077 4.81674 90.0528 5.35868 89.7491 5.85298C89.4454 6.35323 88.9809 6.76415 88.3675 7.09765C87.7481 7.43115 86.9858 7.5979 86.0687 7.5979H85.7114C86.1997 7.68723 86.6106 7.87185 86.9441 8.13984C87.2776 8.41379 87.5575 8.72347 87.7898 9.08079C88.022 9.43811 88.2186 9.8133 88.3853 10.2064C88.5521 10.6054 88.7069 10.9627 88.8498 11.2902C88.9987 11.6178 89.1476 11.8917 89.3084 12.1061C89.4692 12.3205 89.6598 12.4277 89.8861 12.4277C90.0588 12.4277 90.2315 12.386 90.4102 12.3026C90.5888 12.2193 90.7615 12.0704 90.9164 11.856L90.9997 11.9215C90.7972 12.2491 90.5412 12.4992 90.2374 12.6659C89.9337 12.8386 89.63 12.922 89.3382 12.922C88.832 12.922 88.427 12.791 88.1352 12.529C87.8434 12.2669 87.5933 11.9453 87.3967 11.5523C87.2002 11.1592 87.0215 10.7423 86.8727 10.2897C86.7178 9.83712 86.5332 9.41429 86.3188 9.01528C86.1044 8.62223 85.8245 8.28873 85.4791 8.02074C85.1337 7.75274 84.6751 7.60981 84.0975 7.58599H83.1327V10.8614C83.1327 11.0639 83.1505 11.2724 83.1922 11.4808C83.2339 11.6892 83.3054 11.8739 83.4066 12.0347C83.5079 12.1955 83.6448 12.3205 83.8116 12.4277C83.9783 12.529 84.1927 12.5826 84.4369 12.5826V12.7195H80.5659V12.6004H80.5719ZM86.0687 7.49071C86.7119 7.49071 87.2478 7.32991 87.6707 7.00832C88.0935 6.68673 88.4151 6.28177 88.6295 5.80534C88.8439 5.32295 88.9511 4.80483 88.9511 4.24503C88.9511 3.68522 88.8439 3.1671 88.6295 2.68472C88.4151 2.20233 88.0935 1.80332 87.6707 1.48173C87.2478 1.16014 86.7119 0.999348 86.0687 0.999348H83.1327V7.49071H86.0687Z" fill="white"/>
</svg>
