<svg width="25" height="17" viewBox="0 0 25 17" fill="none" xmlns="http://www.w3.org/2000/svg">
<path d="M9.12954 8.43675C9.12954 5.94996 10.328 3.74873 12.1727 2.36053C10.9002 1.40294 9.32329 0.828796 7.60795 0.828796C3.40633 0.828796 0 4.23513 0 8.43675C0 12.6384 3.40633 16.0447 7.60795 16.0447C9.32329 16.0447 10.9002 15.47 12.1727 14.513C10.328 13.1243 9.12954 10.9235 9.12954 8.43675Z" fill="#F44336"/>
<path d="M16.7376 0.828583C15.0223 0.828583 13.4454 1.40273 12.1729 2.36032C14.0175 3.74851 15.216 5.94975 15.216 8.43653C15.216 10.9233 14.0175 13.124 12.1729 14.5127C13.4454 15.4703 15.0223 16.0445 16.7376 16.0445C20.9392 16.0445 24.3456 12.6381 24.3456 8.43653C24.3456 4.23492 20.9392 0.828583 16.7376 0.828583Z" fill="#FF9800"/>
<ellipse cx="12.1731" cy="8.43647" rx="3.04318" ry="6.07621" fill="#FF7300"/>
</svg>
