<svg width="17" height="22" viewBox="0 0 17 22" fill="none" xmlns="http://www.w3.org/2000/svg">
<g clip-path="url(#clip0_394_382)">
<path d="M8.29733 21.9957C5.99776 22.0212 3.70638 21.9532 1.47842 21.2875C0.19156 20.9025 0.0463027 20.743 0.15678 19.3393C0.416607 15.9938 1.65641 13.1396 4.30787 11.1021C7.19255 8.88376 11.0572 9.33891 13.6514 12.1846C15.6768 14.4072 16.532 17.121 16.6261 20.1369C16.6425 20.6835 16.2906 20.8664 15.9121 21.0386C14.8728 21.5129 13.7578 21.6405 12.651 21.8064C11.2066 22.0234 9.7499 21.9723 8.29937 21.9915L8.29733 21.9957Z" fill="#949BAB"/>
<path d="M8.35595 1.67929e-06C10.8969 -0.00212516 12.8528 2.01624 12.8671 4.65565C12.8814 7.20785 10.8847 9.26238 8.38868 9.26663C5.8252 9.27088 3.87343 7.22487 3.86525 4.52591C3.85911 2.06091 5.90294 0.00212852 8.35595 1.67929e-06Z" fill="#949BAB"/>
</g>
<defs>
<clipPath id="clip0_394_382">
<rect width="16.5" height="22" fill="white" transform="translate(0.125977)"/>
</clipPath>
</defs>
</svg>
