<svg width="128" height="128" viewBox="0 0 128 128" fill="none" xmlns="http://www.w3.org/2000/svg">

<path fill-rule="evenodd" clip-rule="evenodd" d="M122.334 33.0525C125.29 33.0525 127.686 35.4416 127.686 38.3887C127.686 41.3358 125.29 43.7248 122.334 43.7248H91.7504C94.7063 43.7248 97.1025 46.1139 97.1025 49.061C97.1025 52.0081 94.7063 54.3972 91.7504 54.3972H108.571C111.527 54.3972 113.923 56.7863 113.923 59.7334C113.923 62.6805 111.527 65.0696 108.571 65.0696H100.792C97.0655 65.0696 94.0442 67.4586 94.0442 70.4057C94.0442 72.3705 95.5733 74.1492 98.6317 75.7419C101.588 75.7419 103.984 78.131 103.984 81.0781C103.984 84.0252 101.588 86.4143 98.6317 86.4143H35.171C32.2151 86.4143 29.8189 84.0252 29.8189 81.0781C29.8189 78.131 32.2151 75.7419 35.171 75.7419H5.35211C2.39622 75.7419 0 73.3528 0 70.4057C0 67.4586 2.39622 65.0696 5.35211 65.0696H35.9356C38.8915 65.0696 41.2877 62.6805 41.2877 59.7334C41.2877 56.7863 38.8915 54.3972 35.9356 54.3972H16.8209C13.865 54.3972 11.4688 52.0081 11.4688 49.061C11.4688 46.1139 13.865 43.7248 16.8209 43.7248H47.4044C44.4485 43.7248 42.0523 41.3358 42.0523 38.3887C42.0523 35.4416 44.4485 33.0525 47.4044 33.0525H122.334ZM122.334 54.3972C125.29 54.3972 127.686 56.7863 127.686 59.7334C127.686 62.6805 125.29 65.0696 122.334 65.0696C119.378 65.0696 116.982 62.6805 116.982 59.7334C116.982 56.7863 119.378 54.3972 122.334 54.3972Z" fill="#FFD0D9" fill-opacity="0.24"/>
<path d="M86.4954 74.6646C86.4565 74.6259 86.4361 74.575 86.4361 74.5201V57.6049C86.4361 53.2622 85.0482 49.1413 82.4195 45.6899C79.8808 42.3545 76.271 39.8595 72.2564 38.665C72.1644 38.6385 72.1031 38.5591 72.1031 38.4696V37.3748C72.1031 35.8322 71.447 34.3487 70.3043 33.3067C69.268 32.3604 67.9516 31.8558 66.5596 31.8578C65.1655 31.8578 63.8512 32.3604 62.8149 33.3067C61.6722 34.3507 61.0161 35.8322 61.0161 37.3748V38.4696C61.0161 38.5591 60.9548 38.6385 60.8628 38.665C56.8482 39.8595 53.2405 42.3545 50.6997 45.6899C48.0731 49.1413 46.6831 53.2622 46.6831 57.6049V74.5201C46.6831 74.573 46.6606 74.6259 46.6238 74.6646L39.9111 81.3476C39.486 81.7709 39.2529 82.3326 39.2529 82.9308V86.2296C39.2529 87.4649 40.2607 88.4682 41.5014 88.4682H57.8907C58.3976 92.7824 62.0913 96.1422 66.5596 96.1422C71.0279 96.1422 74.7216 92.7824 75.2285 88.4682H91.6178C92.8585 88.4682 93.8663 87.4649 93.8663 86.2296V82.9308C93.8663 82.3326 93.6332 81.7709 93.2081 81.3476L86.4954 74.6646ZM66.5596 94.1072C63.2196 94.1072 60.4438 91.657 59.9511 88.4682H73.1701C72.6775 91.657 69.9016 94.1072 66.5616 94.1072H66.5596ZM91.8242 86.2296C91.8242 86.3416 91.7323 86.4331 91.6198 86.4331H41.4994C41.3869 86.4331 41.295 86.3416 41.295 86.2296V82.9308C41.295 82.8759 41.3154 82.825 41.3542 82.7864L48.0669 76.1033C48.4921 75.68 48.7251 75.1184 48.7251 74.5201V57.6049C48.7251 49.8311 53.9559 42.8449 61.4453 40.6145C62.4101 40.3276 63.0581 39.4647 63.0581 38.4696V37.3748C63.0581 36.4 63.471 35.4639 64.1946 34.8065C64.8487 34.2103 65.6766 33.8908 66.5555 33.8908C66.5555 33.8908 66.5555 33.8908 66.5576 33.8908C66.5596 33.8908 66.5576 33.8908 66.5596 33.8908C67.4385 33.8908 68.2684 34.2103 68.9205 34.8065C69.642 35.4659 70.057 36.402 70.057 37.3748V38.4696C70.057 39.4668 70.705 40.3276 71.6698 40.6145C79.1592 42.8449 84.39 49.8311 84.39 57.6049V74.5201C84.39 75.1184 84.623 75.68 85.0482 76.1033L91.7609 82.7864C91.7997 82.825 91.8202 82.8759 91.8202 82.9308V86.2296H91.8242Z" fill="#EE788E"/>
<path d="M42.0997 57.5815C42.0997 58.1413 42.5537 58.5956 43.113 58.5956C43.6724 58.5956 44.1264 58.1413 44.1264 57.5815C44.1264 49.6611 48.3865 42.2721 55.2449 38.3007C55.7293 38.0208 55.8955 37.4002 55.6138 36.9154C55.3341 36.4307 54.7139 36.2643 54.2295 36.5463C46.7469 40.8787 42.0977 48.939 42.0977 57.5815H42.0997Z" fill="#DF7E8E"/>
<path d="M52.9698 34.3205C53.4541 34.0403 53.6202 33.419 53.3386 32.9337C53.0589 32.4484 52.4388 32.2819 51.9545 32.5641C43.0688 37.7156 37.5469 47.3017 37.5469 57.5803C37.5469 58.1407 38.0008 58.5955 38.5601 58.5955C39.1194 58.5955 39.5733 58.1407 39.5733 57.5803C39.5733 48.0246 44.7061 39.1126 52.9698 34.3205Z" fill="#DF7E8E"/>
<path d="M77.8764 38.2999C84.7352 42.2714 88.9956 49.6587 88.9956 57.5814C88.9956 58.1413 89.4496 58.5956 90.0091 58.5956C90.5685 58.5956 91.0225 58.1413 91.0225 57.5814C91.0225 48.9386 86.3729 40.8779 78.8898 36.5454C78.4054 36.2655 77.7852 36.4298 77.5055 36.9145C77.2258 37.3993 77.3899 38.02 77.8744 38.2999H77.8764Z" fill="#DF7E8E"/>
<path d="M81.1649 32.5632C80.6806 32.283 80.0605 32.4475 79.7808 32.9328C79.5012 33.4181 79.6653 34.0395 80.1497 34.3197C88.4138 39.1099 93.5469 48.0242 93.5469 57.5802C93.5469 58.1407 94.0009 58.5955 94.5602 58.5955C95.1195 58.5955 95.5734 58.1407 95.5734 57.5802C95.5734 47.3013 90.0512 37.7149 81.1649 32.5632Z" fill="#DF7E8E"/>
</svg>
