<svg width="22" height="26" viewBox="0 0 22 26" fill="none" xmlns="http://www.w3.org/2000/svg">
<path d="M11.2902 0.00628513C11.6309 0.150843 12.0038 0.24512 12.3059 0.446244C12.8845 0.829637 13.1674 1.40787 13.1931 2.09295C13.206 2.4512 13.1931 2.80945 13.1931 3.16771C13.5402 3.30598 13.8874 3.41911 14.2088 3.58252C16.9796 4.95897 18.4389 7.16505 18.5675 10.2071C18.5996 11.0493 18.5675 11.8978 18.6189 12.74C18.7603 14.8643 19.5061 16.7876 20.7854 18.5034C21.0747 18.8868 21.3961 19.2451 21.7239 19.6033C21.9554 19.8547 22.0711 20.125 21.9297 20.4518C21.7818 20.7849 21.4925 20.8918 21.1389 20.8918C14.376 20.8918 7.61944 20.8918 0.856474 20.8918C0.496468 20.8918 0.213607 20.7849 0.065747 20.4518C-0.0821125 20.125 0.0336036 19.8547 0.271465 19.6033C1.7822 18.0258 2.78508 16.1842 3.19008 14.0536C3.33794 13.2868 3.37009 12.4886 3.42151 11.7029C3.47294 10.8544 3.3958 9.98707 3.53723 9.15744C4.03224 6.24742 5.76798 4.29903 8.57731 3.26198C8.64803 3.23684 8.71231 3.21799 8.80231 3.18656C8.80231 2.87859 8.80231 2.57062 8.80231 2.25636C8.80231 1.10618 9.46447 0.295401 10.6216 0.0377108C10.6538 0.0314257 10.6795 0.0125703 10.7116 0C10.9045 0 11.1038 0 11.2966 0L11.2902 0.00628513ZM11.7274 2.89116C11.7274 2.61461 11.7402 2.35692 11.7274 2.09923C11.7016 1.74098 11.3995 1.46444 11.0395 1.44558C10.6859 1.42672 10.3323 1.67184 10.2873 2.02381C10.2488 2.31293 10.2809 2.60204 10.2809 2.89116H11.7338H11.7274Z" fill="url(#paint0_linear_1114_8659)"/>
<path d="M0.00772102 9.88033C0.115113 7.04 1.14482 4.5361 3.13473 2.45275C3.43796 2.12925 3.89279 2.11631 4.18339 2.40746C4.47398 2.69861 4.47398 3.15799 4.15812 3.48796C3.11578 4.57492 2.3514 5.83657 1.89656 7.29233C1.59965 8.24342 1.45436 9.22039 1.44804 10.2168C1.44804 10.5403 1.30275 10.7861 1.01215 10.922C0.746833 11.0449 0.475193 11.0191 0.27936 10.8055C0.153016 10.6697 0.0835273 10.4626 0.0140382 10.2815C-0.0175478 10.1909 0.0140382 10.068 0.0140382 9.89974L0.00772102 9.88033Z" fill="url(#paint1_linear_1114_8659)"/>
<path d="M21.9789 9.98282C21.9789 10.1124 21.9979 10.2486 21.9789 10.3782C21.9218 10.7541 21.5859 11.0198 21.2247 10.9939C20.8508 10.968 20.5593 10.6633 20.553 10.2615C20.5403 9.37359 20.4326 8.49215 20.1981 7.63663C19.7608 6.07467 18.9877 4.71362 17.8787 3.55348C17.7076 3.37849 17.5872 3.18405 17.5935 2.92481C17.5935 2.62019 17.7646 2.36094 18.0434 2.25724C18.3413 2.14706 18.6265 2.18595 18.8356 2.43872C19.2855 2.97018 19.7545 3.49515 20.1474 4.07198C21.3388 5.84782 21.9282 7.83107 21.9915 9.98282H21.9789Z" fill="url(#paint2_linear_1114_8659)"/>
<path d="M7.69678 21.9913H14.2942C14.019 23.7278 12.4001 25.3187 10.9475 25.2896C9.5333 25.2605 7.93994 23.6502 7.70318 21.9913H7.69678Z" fill="url(#paint3_linear_1114_8659)"/>
<defs>
<linearGradient id="paint0_linear_1114_8659" x1="10.9957" y1="0" x2="10.9957" y2="20.8918" gradientUnits="userSpaceOnUse">
<stop stop-color="#DF7E8E"/>
<stop offset="1" stop-color="#AF4F64"/>
</linearGradient>
<linearGradient id="paint1_linear_1114_8659" x1="2.19913" y1="2.1991" x2="2.19913" y2="10.9956" gradientUnits="userSpaceOnUse">
<stop stop-color="#DF7E8E"/>
<stop offset="1" stop-color="#AF4F64"/>
</linearGradient>
<linearGradient id="paint2_linear_1114_8659" x1="19.7924" y1="2.1991" x2="19.7924" y2="10.9956" gradientUnits="userSpaceOnUse">
<stop stop-color="#DF7E8E"/>
<stop offset="1" stop-color="#AF4F64"/>
</linearGradient>
<linearGradient id="paint3_linear_1114_8659" x1="10.9955" y1="21.9913" x2="10.9955" y2="25.29" gradientUnits="userSpaceOnUse">
<stop stop-color="#DF7E8E"/>
<stop offset="1" stop-color="#AF4F64"/>
</linearGradient>
</defs>
</svg>
