<svg width="24" height="24" viewBox="0 0 24 24" fill="none" xmlns="http://www.w3.org/2000/svg">
<g clip-path="url(#clip0_1572_7316)">
<path d="M11.997 23.9907C8.51151 23.9907 5.02604 23.9907 1.54056 23.9907C0.618898 23.9907 0.00401014 23.384 0.00334178 22.4597C0.000668356 18.4616 0.00334178 14.4635 0 10.4654C0 10.2132 0.0895597 10.025 0.276699 9.85546C1.54123 8.70695 2.79774 7.54909 4.0616 6.40058C4.19126 6.28246 4.23671 6.16233 4.23604 5.99082C4.23003 4.217 4.23203 2.44251 4.2327 0.668687C4.2327 0.147485 4.38174 0 4.89972 0C9.627 0 14.355 0 19.0829 0C19.6223 0 19.768 0.142146 19.768 0.674693C19.7686 2.44852 19.7706 4.22301 19.7646 5.99683C19.7646 6.17101 19.8174 6.28713 19.9457 6.40325C21.2163 7.55777 22.4795 8.72029 23.7487 9.87548C23.9218 10.0336 24.0007 10.2145 24 10.4461C23.998 14.4522 23.9973 18.459 24 22.4651C24 23.4908 23.1752 24.0033 22.4534 23.9993C18.9679 23.978 15.4825 23.99 11.9977 23.99L11.997 23.9907ZM12.0017 17.7022C14.224 16.1566 16.4262 14.627 18.6211 13.0874C18.7046 13.0287 18.7527 12.8659 18.7527 12.7511C18.7594 8.92851 18.7581 5.10591 18.7581 1.28332V1.01438H5.24258C5.24258 1.09446 5.24258 1.15986 5.24258 1.22459C5.24258 5.08055 5.24392 8.93652 5.23857 12.7918C5.23857 12.958 5.30207 13.0447 5.42906 13.1322C6.40218 13.8035 7.3713 14.4809 8.34108 15.1556C9.55682 16.0011 10.7726 16.8466 12.0017 17.7015V17.7022ZM21.8419 22.987C21.7851 22.9342 21.765 22.9102 21.7403 22.8929C19.2126 21.1324 16.6835 19.3732 14.1578 17.6094C14.0408 17.5273 13.9713 17.5627 13.8744 17.6315C13.3852 17.9778 12.8919 18.3182 12.3993 18.6598C12.0752 18.8841 11.9275 18.8841 11.6073 18.6612C11.1355 18.3335 10.6569 18.0145 10.1964 17.6722C10.024 17.544 9.91239 17.562 9.74597 17.6788C7.28374 19.4013 4.81617 21.1164 2.34994 22.8335C2.29447 22.8722 2.24434 22.9196 2.16213 22.987H21.8419ZM9.08897 16.9087C6.40018 15.0375 3.74012 13.1862 1.04731 11.3123V22.5051C3.73812 20.6325 6.39884 18.7806 9.08897 16.9087ZM22.9554 11.3123C20.2599 13.1882 17.5985 15.0408 14.9144 16.9087C17.6145 18.7873 20.2739 20.6379 22.9554 22.5031V11.3116V11.3123ZM19.7907 7.62851V12.2826C20.7692 11.6013 21.7149 10.9432 22.6773 10.2726C21.7129 9.38965 20.7692 8.52476 19.7907 7.62851ZM4.22 7.6205C3.23083 8.52676 2.28444 9.39365 1.32535 10.2726C2.29848 10.9493 3.24353 11.6059 4.22 12.2853V7.6205Z" fill="#DF7E8E"/>
<path d="M10.6161 2.33917C11.0639 2.33183 11.4702 2.45663 11.8585 2.66751C11.9327 2.70755 12.0664 2.71022 12.1393 2.67018C13.756 1.77593 15.6622 2.7883 15.7858 4.62552C15.8293 5.27419 15.6287 5.8708 15.1743 6.33928C14.2526 7.28959 13.3096 8.21922 12.3698 9.15151C12.1413 9.37841 11.8499 9.36906 11.6173 9.13749C10.7023 8.22722 9.77328 7.3303 8.8837 6.39601C8.16789 5.64457 8.00548 4.74031 8.41919 3.78933C8.82822 2.8497 9.59215 2.37988 10.6161 2.33917ZM12.0317 8.07173C12.3498 7.75207 12.6719 7.4284 12.9941 7.10474C13.4753 6.62024 13.9692 6.14709 14.4344 5.64724C14.8194 5.23415 14.8768 4.60817 14.6202 4.11033C14.3502 3.58646 13.8369 3.25879 13.2768 3.36156C12.958 3.42028 12.6526 3.61048 12.3685 3.78599C12.0751 3.96685 11.8866 3.98687 11.626 3.76664C11.5685 3.71792 11.5137 3.66654 11.4535 3.62249C10.8828 3.20206 10.0874 3.27147 9.61354 3.78266C9.12965 4.30453 9.07084 5.12337 9.55138 5.62388C10.3467 6.45207 11.1835 7.24021 12.0317 8.07307V8.07173Z" fill="#DF7E8E"/>
<path d="M12.0086 10.7566C13.584 10.7566 15.1593 10.7553 16.7346 10.7586C16.8576 10.7586 16.9886 10.7653 17.1029 10.8067C17.3214 10.8861 17.4283 11.0623 17.4183 11.2938C17.409 11.5141 17.294 11.6736 17.0815 11.741C16.9805 11.773 16.8683 11.781 16.7613 11.781C13.5853 11.783 10.4099 11.783 7.23391 11.781C7.12698 11.781 7.01536 11.773 6.91377 11.7416C6.6892 11.6716 6.57558 11.5 6.57425 11.2711C6.57224 11.0522 6.67985 10.8814 6.88971 10.808C7.004 10.768 7.13433 10.7599 7.25797 10.7593C8.84198 10.7559 10.4253 10.7573 12.0093 10.7573L12.0086 10.7566Z" fill="#DF7E8E"/>
<path d="M11.9997 14.1188C11.074 14.1188 10.149 14.1188 9.22336 14.1188C9.15652 14.1188 9.08969 14.1208 9.02352 14.1175C8.65793 14.1015 8.44205 13.9059 8.4494 13.5983C8.45608 13.3 8.68934 13.1011 9.04758 13.1011C11.0152 13.0998 12.9829 13.0998 14.9505 13.1011C15.3381 13.1011 15.5874 13.3447 15.5473 13.6724C15.5139 13.9493 15.3027 14.1141 14.9512 14.1168C14.359 14.1221 13.7675 14.1188 13.1753 14.1188C12.7837 14.1188 12.3914 14.1188 11.9997 14.1188Z" fill="#DF7E8E"/>
</g>
<defs>
<clipPath id="clip0_1572_7316">
<rect width="24" height="24" fill="white"/>
</clipPath>
</defs>
</svg>
