<svg width="23" height="23" viewBox="0 0 23 23" fill="none" xmlns="http://www.w3.org/2000/svg">
<g clip-path="url(#clip0_2866_31099)">
<path d="M18.6502 2.2994C18.3217 0.90822 17.1873 0.00623301 15.7258 0.00422264C11.4792 -0.0024786 7.23203 0.000872021 2.98548 0.00288239C2.8105 0.00288239 2.63284 0.0102538 2.46187 0.0410795C0.970152 0.31315 0.00271225 1.48185 0.00204182 3.02983C-0.00131037 8.67027 3.0508e-05 14.3114 0.00204182 19.9518C0.00204182 20.1435 0.00606444 20.3385 0.0389158 20.5261C0.302397 22.0057 1.46963 22.9868 2.99755 22.9908C6.27465 22.9989 9.55174 22.9935 12.8288 22.9908C12.8858 22.9908 12.9623 23.0304 13.0038 22.9479C9.94931 20.9972 8.88064 17.2726 10.1625 14.1023C11.376 11.1015 14.8247 8.86527 18.7153 9.86309C18.7186 9.82087 18.724 9.77932 18.724 9.73845C18.724 7.46538 18.724 5.19232 18.724 2.91926C18.724 2.70951 18.6985 2.50178 18.6502 2.2994ZM9.30569 10.1546C8.42876 10.1586 7.55116 10.1559 6.67423 10.1559V10.1546C5.78054 10.1546 4.88617 10.1593 3.99248 10.1526C3.63514 10.1499 3.34216 9.91938 3.24226 9.5937C3.14505 9.27807 3.25902 8.92156 3.52385 8.71986C3.68274 8.59856 3.86644 8.55165 4.06355 8.55165C5.80936 8.55165 7.55585 8.54897 9.30167 8.55299C9.8112 8.55434 10.1618 8.89811 10.1571 9.36787C10.1525 9.82958 9.80919 10.1526 9.30569 10.1553V10.1546ZM11.6904 5.85508C11.6026 5.87719 11.5087 5.87987 11.4176 5.87987C8.97785 5.88121 6.5388 5.88121 4.09908 5.87987C3.56809 5.87987 3.21075 5.55285 3.21142 5.07505C3.21276 4.59524 3.56608 4.27626 4.1031 4.27626C5.32263 4.27492 6.54282 4.27626 7.76235 4.27626C9.00735 4.27626 10.2517 4.27291 11.4967 4.27827C11.9177 4.28028 12.2556 4.59189 12.2985 4.9933C12.3401 5.38867 12.084 5.7559 11.6898 5.85508H11.6904Z" fill="url(#paint0_linear_2866_31099)"/>
<path d="M16.8371 10.6943C13.4534 10.693 10.6959 13.4573 10.6973 16.8508C10.6979 20.2416 13.4621 23.0012 16.8492 22.9925C20.2584 22.9837 23.0051 20.2416 22.9991 16.8528C22.9931 13.4392 20.2483 10.6957 16.8371 10.6943ZM19.0402 16.3227C18.3208 17.0431 17.6048 17.7668 16.8787 18.4798C16.5401 18.8122 16.0815 18.8015 15.7376 18.4671C15.3789 18.118 15.0249 17.7635 14.675 17.4056C14.3411 17.0639 14.3357 16.5861 14.6535 16.2631C14.9773 15.934 15.4607 15.9414 15.8154 16.2812C15.8335 16.2986 15.8496 16.3173 15.8683 16.3341C16.0239 16.4695 16.1493 16.7429 16.3195 16.7268C16.4818 16.7107 16.6246 16.4701 16.7714 16.324C17.1563 15.9421 17.5337 15.5521 17.9252 15.1768C18.178 14.9335 18.4857 14.8833 18.8049 15.0274C19.1126 15.1667 19.2668 15.4221 19.2775 15.7296C19.2735 15.9809 19.1937 16.1686 19.0395 16.3227H19.0402Z" fill="url(#paint1_linear_2866_31099)"/>
</g>
<defs>
<linearGradient id="paint0_linear_2866_31099" x1="0.152475" y1="23.0003" x2="18.724" y2="23.0003" gradientUnits="userSpaceOnUse">
<stop stop-color="#DF7E8E"/>
<stop offset="1" stop-color="#AF4F64"/>
</linearGradient>
<linearGradient id="paint1_linear_2866_31099" x1="10.7974" y1="22.9925" x2="22.9991" y2="22.9925" gradientUnits="userSpaceOnUse">
<stop stop-color="#DF7E8E"/>
<stop offset="1" stop-color="#AF4F64"/>
</linearGradient>
<clipPath id="clip0_2866_31099">
<rect width="23" height="23" fill="white"/>
</clipPath>
</defs>
</svg>
