<svg width="24" height="24" viewBox="0 0 24 24" fill="none" xmlns="http://www.w3.org/2000/svg">

<path d="M1.09038 11.0156V5.78797C1.2713 5.36505 1.59579 5.22144 2.05317 5.23095C3.06079 5.25207 4.06947 5.23781 5.07816 5.23728C5.15234 5.23728 5.22653 5.23095 5.31886 5.22672C5.29804 5.17339 5.2879 5.14119 5.27349 5.11109C5.00984 4.55248 4.95114 3.97011 5.05468 3.36609C5.25748 2.17547 6.38838 1.1781 7.60628 1.10471C9.0051 1.02023 10.1173 1.58676 11.0155 2.59575C11.3923 3.0192 11.6997 3.50284 12.0376 3.95849C12.0541 3.93051 12.0856 3.87824 12.116 3.82544C12.5574 3.06249 13.0916 2.37664 13.8201 1.85815C14.7002 1.23248 15.6752 0.9574 16.7512 1.15381C18.1932 1.41675 19.2088 2.83282 18.989 4.26261C18.9388 4.58997 18.8272 4.90782 18.7419 5.23728C18.8027 5.23728 18.8801 5.23728 18.9575 5.23728C20.0153 5.23728 21.0736 5.23517 22.1314 5.23887C22.5989 5.24045 22.9063 5.54616 22.9068 6.00392C22.9084 7.59845 22.9084 9.19298 22.9068 10.7875C22.9068 11.2395 22.5919 11.5494 22.1308 11.5589C21.9414 11.5626 21.7514 11.5594 21.5422 11.5594V11.8292C21.5422 14.8778 21.5422 17.9264 21.5411 20.9756C21.5411 21.0801 21.5427 21.1884 21.5181 21.2892C21.4215 21.6863 21.1275 21.8705 20.6061 21.8705C14.8758 21.8705 9.14546 21.8705 3.41516 21.87C3.31589 21.87 3.21662 21.8637 3.11842 21.851C2.87613 21.8204 2.67866 21.7 2.5874 21.4803C2.52015 21.3177 2.48973 21.1292 2.48973 20.9524C2.48386 17.9175 2.48546 14.8831 2.48546 11.8482C2.48546 11.759 2.48546 11.6698 2.48546 11.5779C2.19299 11.5615 1.92348 11.5631 1.6593 11.5272C1.3631 11.4866 1.2206 11.2506 1.08984 11.0151L1.09038 11.0156ZM11.2456 20.37V11.5753H4.00116V20.37H11.245H11.2456ZM12.7783 11.5679V20.3626H20.0222V11.5679H12.7783ZM2.60394 6.72621V10.0552C2.67652 10.0589 2.7459 10.0657 2.81475 10.0657C5.55582 10.0657 8.29742 10.0647 11.0385 10.07C11.2151 10.07 11.2664 10.0209 11.2653 9.84557C11.2573 8.87618 11.2616 7.90627 11.261 6.93688C11.261 6.8693 11.2536 6.80119 11.2493 6.72674H2.60394V6.72621ZM21.4034 6.73255H12.7767V10.0462H21.4034V6.73255ZM13.0756 5.23517C14.151 5.23517 15.172 5.24626 16.1924 5.23095C16.7565 5.22197 17.1899 4.95903 17.4055 4.43051C17.6094 3.93051 17.54 3.45057 17.1712 3.03979C16.7037 2.51866 16.1075 2.48699 15.4927 2.68287C14.2321 3.0852 13.6376 4.11636 13.0756 5.2357V5.23517ZM10.9211 5.21088C10.6398 4.57043 10.2849 3.9907 9.80778 3.49228C9.27034 2.93155 8.62884 2.57252 7.82243 2.58361C7.12115 2.59364 6.52448 3.16651 6.50953 3.87718C6.49352 4.63062 7.03789 5.19082 7.66552 5.20455C8.74252 5.22831 9.82059 5.21088 10.9211 5.21088Z" fill="#DF7E8E"/>
</svg>
