<svg width="31" height="31" viewBox="0 0 31 31" fill="none" xmlns="http://www.w3.org/2000/svg">
<circle cx="15.5" cy="15.5" r="15.5" fill="url(#paint0_linear_1087_8213)"/>
<g clip-path="url(#clip0_1087_8213)">
<path d="M17.6959 5C17.9507 5.06354 18.2109 5.10955 18.4592 5.19281C19.3964 5.50776 20.0907 6.1174 20.5515 6.99653C20.609 7.10718 20.6699 7.16414 20.803 7.18715C22.6665 7.51086 23.9503 9.07796 23.8634 10.9858C23.8443 11.4075 23.9416 11.6885 24.2013 12.0095C25.3634 13.4468 25.2406 15.5326 23.9497 16.8691C23.8655 16.9562 23.8128 17.0301 23.834 17.1676C24.1296 19.0683 22.9571 20.8035 21.2306 21.2905C21.2056 21.2976 21.1828 21.3135 21.1355 21.3365C21.8776 22.8839 22.6176 24.4263 23.3706 25.9962H23.1392C21.4647 25.9962 19.7898 25.994 18.1153 26C17.9643 26.0005 17.8899 25.9556 17.8258 25.8181C17.4938 25.1083 17.1477 24.4055 16.8147 23.6962C16.7555 23.5702 16.6756 23.5247 16.5468 23.4875C16.2426 23.3988 15.9432 23.2898 15.6499 23.1682C15.538 23.1216 15.4581 23.126 15.3483 23.1698C15.0474 23.2898 14.7355 23.3823 14.434 23.5001C14.3449 23.5351 14.2406 23.602 14.2004 23.6825C13.8429 24.4028 13.4974 25.1285 13.1518 25.8548C13.1067 25.9496 13.0616 25.9995 12.9437 25.9995C11.215 25.9945 9.48623 25.9962 7.75693 25.9956C7.72488 25.9956 7.69336 25.9907 7.63306 25.9858C8.38009 24.4285 9.11842 22.8894 9.86436 21.3343C9.79156 21.3075 9.73071 21.2828 9.66877 21.2626C7.95686 20.7011 6.91863 19.0475 7.15551 17.2481C7.17778 17.0783 7.14518 16.9649 7.02294 16.8362C5.65493 15.3913 5.65928 13.1543 7.03055 11.7269C7.1479 11.6047 7.17778 11.4963 7.15605 11.333C6.91483 9.47891 8.00195 7.77926 9.78178 7.29286C10.186 7.18222 10.4364 7.01242 10.6625 6.65145C11.2432 5.72521 12.1114 5.19993 13.1893 5.0367C13.2279 5.03067 13.2648 5.0126 13.3023 5H14.0754C14.5508 5.09695 15.0218 5.2065 15.4516 5.44806C15.4804 5.46394 15.5352 5.45901 15.5662 5.44148C15.9889 5.20157 16.4545 5.0975 16.9228 5C17.1803 5 17.4384 5 17.6959 5ZM15.4418 6.92752C15.3782 6.8815 15.2696 6.80153 15.1593 6.72266C13.7494 5.70933 11.8936 6.325 11.3546 7.98412C11.272 8.2379 11.1011 8.36516 10.8417 8.36589C9.08962 8.37082 7.93513 9.97517 8.47516 11.6551C8.55484 11.9023 8.48748 12.1048 8.27306 12.2626C6.86539 13.2983 6.86593 15.2773 8.27414 16.312C8.48748 16.4687 8.5543 16.6714 8.47462 16.92C7.93567 18.5994 9.09071 20.2027 10.8434 20.2087C11.1016 20.2094 11.2722 20.3372 11.3552 20.5921C11.8919 22.2408 13.7386 22.8592 15.1452 21.8618C15.2652 21.7763 15.3842 21.6892 15.5016 21.6049C15.6325 21.7007 15.7466 21.7862 15.8623 21.8695C17.2162 22.8428 19.0585 22.2567 19.611 20.6765C19.7179 20.3708 19.9303 20.2149 20.2483 20.2087C21.8863 20.1758 23.0218 18.6071 22.5535 17.0257C22.5073 16.8696 22.3954 16.6911 22.4367 16.5624C22.478 16.4342 22.6719 16.3548 22.8001 16.2562C24.0877 15.2702 24.1013 13.3416 22.8278 12.3398C22.6947 12.2352 22.4845 12.1574 22.4443 12.0254C22.4008 11.8841 22.5149 11.6929 22.5633 11.5247C23.0104 9.96914 21.8847 8.40917 20.2847 8.36699C20.1163 8.36261 19.9049 8.41683 19.7908 8.33467C19.6778 8.25306 19.6621 8.03341 19.6056 7.87402C19.172 6.65255 17.8958 5.9602 16.6642 6.32828C16.2518 6.45152 15.8786 6.70896 15.4423 6.92752H15.4418ZM9.57478 24.7659C10.4821 24.7659 11.3432 24.767 12.2038 24.7626C12.2538 24.7626 12.3287 24.7303 12.3488 24.6909C12.5428 24.3025 12.728 23.9093 12.9253 23.4968C12.0739 23.293 11.3818 22.8565 10.8189 22.1724C10.4 23.0449 9.99529 23.889 9.57424 24.7665L9.57478 24.7659ZM21.424 24.7659C21.0018 23.8868 20.5944 23.0383 20.2027 22.2217C19.8696 22.4955 19.573 22.7924 19.2264 23.0093C18.877 23.2279 18.4788 23.367 18.0952 23.5439C18.2702 23.9093 18.4478 24.2921 18.6402 24.6679C18.6668 24.7199 18.7657 24.761 18.8314 24.7615C19.4823 24.7687 20.1331 24.7659 20.784 24.7659H21.4245H21.424Z" fill="white"/>
<path d="M15.4979 8.09421C18.8815 8.09147 21.6414 10.8729 21.642 14.2854C21.6425 17.6995 18.888 20.476 15.5 20.4776C12.1137 20.4787 9.35596 17.7006 9.35596 14.2881C9.35596 10.8746 12.1104 8.09695 15.4973 8.09421H15.4979ZM15.493 19.2469C18.2018 19.2518 20.4141 17.0323 20.4217 14.3029C20.4293 11.562 18.2279 9.33321 15.5055 9.32445C12.8026 9.31569 10.5843 11.5423 10.5773 14.2706C10.5702 17.0121 12.7733 19.2425 15.4935 19.2474L15.493 19.2469Z" fill="white"/>
<path d="M14.5241 16.9195C13.8477 16.2381 13.1355 15.5211 12.4341 14.815C12.7036 14.5445 12.9844 14.2629 13.2762 13.9699C13.6853 14.384 14.1091 14.8134 14.5464 15.2565C15.5591 14.2333 16.5577 13.2244 17.5459 12.2259C17.8311 12.5156 18.1071 12.7955 18.3603 13.0529C17.0923 14.3308 15.8025 15.6306 14.5241 16.9195Z" fill="white"/>
</g>
<defs>
<linearGradient id="paint0_linear_1087_8213" x1="3.15651" y1="-3.89287e-06" x2="42.0787" y2="6.16274" gradientUnits="userSpaceOnUse">
<stop stop-color="#DF7D8D"/>
<stop offset="0.14" stop-color="#DF7D8D"/>
<stop offset="1" stop-color="#AF4F63"/>
</linearGradient>
<clipPath id="clip0_1087_8213">
<rect width="19" height="21" fill="white" transform="translate(6 5)"/>
</clipPath>
</defs>
</svg>
