<svg width="24" height="24" viewBox="0 0 24 24" fill="none" xmlns="http://www.w3.org/2000/svg">

<path d="M12.0006 3.27937C15.0977 3.27937 18.1957 3.29299 21.2928 3.27301C22.7378 3.26394 23.6696 4.21895 23.9091 5.19848C23.9622 5.41453 23.9955 5.64149 23.9955 5.86299C24.0009 9.90365 24.0009 13.9443 23.9982 17.985C23.9973 19.3848 22.8953 20.5241 21.5061 20.5722C21.435 20.5749 21.363 20.5749 21.2919 20.5749C15.0968 20.5749 8.90167 20.5749 2.70658 20.5749C1.41732 20.5749 0.40626 19.8333 0.0884474 18.6486C0.0335279 18.4434 0.00381735 18.2237 0.00291703 18.0113C0.000216077 13.9525 -0.00158456 9.89366 0.00201672 5.83576C0.00381735 4.49311 1.06169 3.36107 2.38786 3.29571C3.01088 3.26484 3.63751 3.27937 4.26143 3.27937C6.84084 3.27846 9.42116 3.27937 12.0006 3.27937ZM1.71442 10.2168V10.5146C1.71442 12.9348 1.71442 15.355 1.71442 17.7753C1.71442 18.5079 2.03134 18.832 2.75609 18.832C8.92328 18.832 15.0896 18.832 21.2568 18.832C21.9635 18.832 22.2858 18.5033 22.2858 17.7907C22.2858 15.3614 22.2858 12.9321 22.2858 10.5028V10.2168H1.71442ZM22.2759 8.44662C22.2759 7.54516 22.3011 6.65642 22.2651 5.76949C22.2471 5.31377 21.8609 5.02236 21.4008 5.02236C15.1355 5.02145 8.86926 5.02145 2.60394 5.02236C2.12947 5.02236 1.74594 5.32466 1.72973 5.79037C1.69912 6.66913 1.72073 7.55061 1.72073 8.44662H22.2759Z" fill="#DF7E8E"/>
<path d="M5.59857 15.3767C6.00011 15.3767 6.40076 15.3712 6.8023 15.3776C7.34969 15.3867 7.71702 15.7425 7.71432 16.2518C7.71162 16.7556 7.33079 17.1151 6.78789 17.1179C5.97671 17.1215 5.16552 17.1215 4.35433 17.1179C3.81324 17.1151 3.4324 16.7529 3.4297 16.25C3.427 15.7371 3.78983 15.3867 4.34173 15.3776C4.76037 15.3712 5.17992 15.3767 5.59857 15.3767Z" fill="#DF7E8E"/>
<path d="M9.84017 17.14C9.6205 17.1173 9.39272 17.1237 9.18114 17.0665C8.76069 16.9521 8.52391 16.5536 8.57793 16.1124C8.62474 15.7275 8.95066 15.4125 9.3567 15.388C9.67632 15.3689 9.99863 15.3689 10.3182 15.3834C10.8062 15.4052 11.1492 15.7774 11.1456 16.2567C11.1411 16.7279 10.7801 17.0965 10.2966 17.1173C10.1454 17.1237 9.99413 17.1183 9.84197 17.1183C9.84197 17.1255 9.84107 17.1328 9.84017 17.14Z" fill="#DF7E8E"/>
</svg>
