<svg width="24" height="17" viewBox="0 0 24 17" fill="none" xmlns="http://www.w3.org/2000/svg">
<g clip-path="url(#clip0_879_4703)">
<path d="M10.8792 4.38545C7.34731 4.38545 3.81543 4.3827 0.283549 4.39095C0.0555502 4.39095 -0.0122899 4.34283 0.0023971 4.11458C0.0422619 3.48417 -0.0577498 2.84756 0.114998 2.22264C0.463989 0.959053 1.60608 0.0550172 2.93281 0.00826856C3.25522 -0.0034186 3.57834 0.000706281 3.90075 0.000706281C8.79293 0.000706281 13.6851 -0.000668678 18.5773 0.000706281C20.1733 0.00139376 21.3881 0.936366 21.707 2.41857C21.8378 3.02699 21.7609 3.64916 21.7777 4.26514C21.7805 4.35314 21.7469 4.39095 21.6574 4.38545C21.5965 4.38201 21.535 4.38545 21.4741 4.38545C17.9422 4.38545 14.4104 4.38545 10.8785 4.38545H10.8792Z" fill="url(#paint0_linear_879_4703)"/>
<path d="M16.0507 6.03122H15.8751C10.6598 6.03122 5.44455 6.03191 0.229252 6.0271C0.0460142 6.0271 0.00195312 6.07247 0.00195312 6.25122C0.00894695 8.43672 0.00545004 10.6229 0.00824756 12.8091C0.00824756 12.9968 0.0138426 13.1879 0.047413 13.3721C0.323669 14.888 1.55668 15.9041 3.13309 15.9062C6.63909 15.9103 10.1451 15.9076 13.6511 15.9062C13.6973 15.9062 13.7553 15.9344 13.7924 15.878C11.076 12.6517 12.1502 7.88123 16.0507 6.03191V6.03122ZM7.46786 12.6145C6.3971 12.6166 5.32635 12.6166 4.2556 12.6145C3.72476 12.6132 3.35619 12.2715 3.35759 11.7896C3.35899 11.3069 3.72546 10.9721 4.25979 10.9701C4.79062 10.968 5.32215 10.9701 5.85298 10.9701C6.38382 10.9701 6.93283 10.968 7.47205 10.9701C7.99659 10.9721 8.38055 11.3234 8.37845 11.7944C8.37636 12.2667 7.99519 12.6138 7.46786 12.6145Z" fill="url(#paint1_linear_879_4703)"/>
<path d="M18.7021 6.58467C15.7689 6.58467 13.405 8.90835 13.4043 11.7916C13.4043 14.6742 15.7696 17 18.7021 17C21.6353 17 23.9992 14.6763 23.9999 11.7916C23.9999 8.90767 21.6367 6.58398 18.7021 6.58398V6.58467ZM21.0136 11.3214C20.3897 12.1038 19.7323 12.8607 19.1385 13.6643C18.5895 14.4068 17.995 14.4701 17.3747 13.7585C17.1201 13.4663 16.8201 13.2134 16.5473 12.9363C16.206 12.5898 16.2025 12.0845 16.5305 11.7614C16.8578 11.4397 17.3733 11.4431 17.7265 11.7745C17.8713 11.9099 18.0062 12.0543 18.1608 12.2103C18.6755 11.5737 19.1798 10.9515 19.6813 10.3273C19.8155 10.1603 19.9729 10.0344 20.1897 9.99251C20.5548 9.9217 20.8891 10.0544 21.0772 10.3431C21.2786 10.6525 21.264 11.0093 21.0136 11.3228V11.3214Z" fill="url(#paint2_linear_879_4703)"/>
</g>
<defs>
<linearGradient id="paint0_linear_879_4703" x1="0.177888" y1="4.39095" x2="21.7851" y2="4.39095" gradientUnits="userSpaceOnUse">
<stop stop-color="#DF7E8E"/>
<stop offset="1" stop-color="#AF4F64"/>
</linearGradient>
<linearGradient id="paint1_linear_879_4703" x1="0.132643" y1="15.9132" x2="16.0507" y2="15.9132" gradientUnits="userSpaceOnUse">
<stop stop-color="#DF7E8E"/>
<stop offset="1" stop-color="#AF4F64"/>
</linearGradient>
<linearGradient id="paint2_linear_879_4703" x1="13.4906" y1="17" x2="23.9999" y2="17" gradientUnits="userSpaceOnUse">
<stop stop-color="#DF7E8E"/>
<stop offset="1" stop-color="#AF4F64"/>
</linearGradient>
<clipPath id="clip0_879_4703">
<rect width="24" height="17" fill="white"/>
</clipPath>
</defs>
</svg>
