<svg width="24" height="24" viewBox="0 0 24 24" fill="none" xmlns="http://www.w3.org/2000/svg">
<g clip-path="url(#clip0_1114_8787)">
<path d="M13.1384 0.41156C13.409 0.551124 13.5994 0.721464 13.7784 0.904686C15.3757 2.5358 16.9723 4.16691 18.5667 5.80016C18.6956 5.93185 18.8072 6.08072 18.9247 6.21814C18.8624 6.31476 18.7836 6.27754 18.7206 6.27826C17.4634 6.28112 16.2055 6.28399 14.9483 6.27898C13.8615 6.27468 13.1427 5.55539 13.1391 4.46607C13.1348 3.12984 13.1377 1.7936 13.1377 0.41156H13.1384Z" fill="#BC6470"/>
<path d="M19.4182 7.63308C19.419 7.44914 19.3259 7.42695 19.1684 7.42767C17.7666 7.43268 16.3654 7.43554 14.9636 7.42982C13.2289 7.42266 12.0032 6.1902 12.0003 4.45746C11.9982 3.10047 12.0003 1.74419 12.0003 0.387201C12.0003 0.00143142 12.0003 0 11.6187 0C8.74418 0 5.86965 0 2.99512 0.000715713C1.2253 0.00143143 0.00102524 1.22387 0.00102524 2.99168C0.000309294 8.99794 0.000309294 15.0049 0.00102524 21.0119C0.00102524 22.7625 1.22888 23.9921 2.97794 23.9928C7.03091 23.9943 11.0839 23.9936 15.1369 23.9914C15.2092 23.9914 15.2929 24.0265 15.3696 23.952C15.2163 23.8497 15.0717 23.7488 14.9235 23.655C13.5919 22.8091 12.4936 21.7333 11.6774 20.3771C10.645 18.6615 10.2412 16.7964 10.2742 14.806C10.2885 13.9471 10.441 13.1849 11.1455 12.6073C11.0309 12.5479 10.9335 12.5736 10.8405 12.5736C8.63535 12.5715 6.43023 12.5729 4.22512 12.5708C4.10126 12.5708 3.97382 12.5672 3.85426 12.5386C3.59437 12.477 3.42827 12.2523 3.43041 11.9925C3.43185 11.732 3.59938 11.5115 3.86141 11.4514C3.98169 11.4242 4.10913 11.4213 4.23299 11.4213C7.45619 11.4199 10.6787 11.4199 13.9019 11.4213C14.0658 11.4213 14.2126 11.3913 14.3636 11.3204C15.0989 10.9769 15.797 10.5682 16.4914 10.1495C17.294 9.66642 18.1124 9.67358 18.925 10.1409C19.0846 10.2325 19.24 10.3306 19.4168 10.4372C19.4168 9.47962 19.4147 8.55563 19.4182 7.63165V7.63308ZM4.05257 4.5684C4.80074 4.56052 5.54962 4.56625 6.29778 4.56625C7.02877 4.56625 7.75903 4.56124 8.4893 4.56768C8.95681 4.57197 9.23746 4.91337 9.11146 5.31059C9.02411 5.58399 8.81792 5.71354 8.54514 5.71425C7.03951 5.71926 5.53387 5.72141 4.02751 5.71425C3.6631 5.7121 3.42325 5.45731 3.43041 5.13023C3.43757 4.80458 3.68028 4.57341 4.05186 4.56983L4.05257 4.5684ZM10.2849 18.8683C10.2742 19.2112 10.0193 19.4252 9.60403 19.4266C8.68547 19.4295 7.76691 19.4273 6.84763 19.4273C5.92907 19.4273 5.00979 19.4316 4.09123 19.4259C3.57002 19.4223 3.27076 18.9764 3.50702 18.5685C3.64448 18.3308 3.86857 18.2743 4.12417 18.275C5.16802 18.2772 6.21115 18.2757 7.25501 18.2757C8.04899 18.2757 8.84298 18.2722 9.63625 18.2772C10.0372 18.28 10.2942 18.5226 10.2835 18.8676L10.2849 18.8683ZM3.97024 14.8546C4.04971 14.8453 4.13061 14.8489 4.2108 14.8489C4.89668 14.8489 5.58327 14.8489 6.26915 14.8489C6.95502 14.8489 7.6946 14.8475 8.40768 14.8503C8.51364 14.8503 8.62247 14.8568 8.72485 14.8825C8.97901 14.9469 9.15012 15.1803 9.14439 15.4336C9.13938 15.6791 8.974 15.9017 8.73129 15.964C8.62103 15.9919 8.5029 15.999 8.38764 15.999C6.98867 16.0012 5.58971 16.0005 4.19075 16.0005C4.11916 16.0005 4.04756 16.0041 3.9774 15.9962C3.64806 15.959 3.4254 15.7213 3.43113 15.415C3.43614 15.118 3.65093 14.8918 3.97024 14.8546ZM12.5423 8.73241C12.4664 8.98721 12.2638 9.13536 11.9531 9.14323C11.6409 9.1511 11.3287 9.14538 11.0166 9.14538C8.75205 9.14538 6.48679 9.14538 4.22225 9.14538C4.12417 9.14538 4.02465 9.14824 3.92871 9.1325C3.62802 9.08383 3.42755 8.85051 3.43113 8.56351C3.43399 8.27507 3.63661 8.04962 3.94089 8.00453C4.02823 7.99165 4.11844 7.99451 4.20793 7.99451C5.47373 7.99451 6.74024 7.99451 8.00603 7.99451C9.27183 7.99451 10.592 7.99237 11.8843 7.99523C12.3755 7.99666 12.664 8.32589 12.5416 8.73313L12.5423 8.73241Z" fill="url(#paint0_linear_1114_8787)"/>
<path d="M23.9984 14.4152C23.9906 13.8677 23.667 13.4382 23.1465 13.2844C22.9245 13.2185 22.6997 13.162 22.4785 13.0947C21.0466 12.6581 19.7214 11.9925 18.4606 11.1952C17.9866 10.8953 17.5206 10.8402 17.0351 11.1551C15.5674 12.1063 13.9866 12.8063 12.3042 13.2808C11.7557 13.4354 11.4379 13.8512 11.425 14.4188C11.4164 14.7931 11.4114 15.1688 11.4278 15.5432C11.5553 18.4604 12.8003 20.7736 15.1937 22.4562C15.7693 22.8613 16.3643 23.2385 16.9499 23.63C17.5084 24.0029 17.9165 24.0057 18.4806 23.6314C18.9861 23.2965 19.4887 22.9587 19.9934 22.623C22.679 20.8387 23.9755 18.3144 23.9984 15.1116C23.9984 14.8797 24.0013 14.6471 23.9984 14.4152ZM19.7937 16.4428C19.062 17.1736 18.3332 17.9064 17.5979 18.6343C17.2965 18.9328 16.9893 18.9299 16.6858 18.6329C16.3357 18.2901 15.9891 17.9429 15.6455 17.593C15.3734 17.316 15.3555 16.9817 15.5896 16.7398C15.8338 16.4872 16.171 16.5058 16.4624 16.7906C16.6407 16.9653 16.8225 17.1378 16.9872 17.3246C17.1003 17.4527 17.1705 17.4591 17.2965 17.3296C17.8556 16.7541 18.4226 16.1866 18.994 15.6233C19.271 15.3499 19.6369 15.3578 19.8631 15.6247C19.9526 15.7307 19.9992 15.8531 19.9934 15.9976C20.002 16.1766 19.9183 16.3176 19.7937 16.4421V16.4428Z" fill="url(#paint1_linear_1114_8787)"/>
</g>
<defs>
<linearGradient id="paint0_linear_1114_8787" x1="0.158613" y1="23.9997" x2="19.4182" y2="23.9997" gradientUnits="userSpaceOnUse">
<stop stop-color="#DF7E8E"/>
<stop offset="1" stop-color="#AF4F64"/>
</linearGradient>
<linearGradient id="paint1_linear_1114_8787" x1="11.5195" y1="23.9109" x2="23.9997" y2="23.9109" gradientUnits="userSpaceOnUse">
<stop stop-color="#DF7E8E"/>
<stop offset="1" stop-color="#AF4F64"/>
</linearGradient>
<clipPath id="clip0_1114_8787">
<rect width="24" height="24" fill="white"/>
</clipPath>
</defs>
</svg>
