<svg width="128" height="128" viewBox="0 0 128 128" fill="none" xmlns="http://www.w3.org/2000/svg">
<path fill-rule="evenodd" clip-rule="evenodd" d="M122.334 38.884C125.29 38.884 127.686 41.2731 127.686 44.2202C127.686 47.1673 125.29 49.5564 122.334 49.5564H91.7504C94.7063 49.5564 97.1025 51.9455 97.1025 54.8926C97.1025 57.8397 94.7063 60.2287 91.7504 60.2287H108.571C111.527 60.2287 113.923 62.6178 113.923 65.5649C113.923 68.512 111.527 70.9011 108.571 70.9011H100.792C97.0655 70.9011 94.0442 73.2902 94.0442 76.2373C94.0442 78.202 95.5733 79.9807 98.6317 81.5735C101.588 81.5735 103.984 83.9625 103.984 86.9096C103.984 89.8567 101.588 92.2458 98.6317 92.2458H35.171C32.2151 92.2458 29.8189 89.8567 29.8189 86.9096C29.8189 83.9625 32.2151 81.5735 35.171 81.5735H5.35211C2.39622 81.5735 0 79.1844 0 76.2373C0 73.2902 2.39622 70.9011 5.35211 70.9011H35.9356C38.8915 70.9011 41.2877 68.512 41.2877 65.5649C41.2877 62.6178 38.8915 60.2287 35.9356 60.2287H16.8209C13.865 60.2287 11.4688 57.8397 11.4688 54.8926C11.4688 51.9455 13.865 49.5564 16.8209 49.5564H47.4044C44.4485 49.5564 42.0523 47.1673 42.0523 44.2202C42.0523 41.2731 44.4485 38.884 47.4044 38.884H122.334ZM122.334 60.2287C125.29 60.2287 127.686 62.6178 127.686 65.5649C127.686 68.512 125.29 70.9011 122.334 70.9011C119.378 70.9011 116.982 68.512 116.982 65.5649C116.982 62.6178 119.378 60.2287 122.334 60.2287Z" fill="#FFD0D9" fill-opacity="0.24"/>
<path d="M101.873 25.9138C98.006 22.0431 92.8632 19.9111 87.393 19.9111C81.9229 19.9111 76.7801 22.0431 72.9126 25.9138C64.9276 33.9062 64.9276 46.9077 72.9126 54.8993C76.7801 58.77 81.9229 60.9028 87.393 60.9028C92.8632 60.9028 98.006 58.77 101.873 54.8993C109.858 46.9077 109.858 33.9062 101.873 25.9138ZM99.8595 52.8838C96.5296 56.2164 92.1021 58.0524 87.393 58.0524C82.6839 58.0524 78.2565 56.2164 74.9265 52.8838C68.0523 46.0039 68.0523 34.8101 74.9265 27.9294C78.2565 24.5975 82.6839 22.7624 87.393 22.7624C92.1021 22.7624 96.5296 24.5983 99.8595 27.9294C106.734 34.8101 106.734 46.0039 99.8595 52.8838Z" fill="#EE788E"/>
<path d="M46.3338 67.7453L58.9606 52.7092L71.5875 67.7453C71.8583 68.0663 72.2571 68.2526 72.6784 68.2526H108.967C109.753 68.2526 110.391 67.6148 110.391 66.8273C110.391 66.0399 109.753 65.4021 108.967 65.4021H73.3414L62.0181 51.9184H63.3574C64.1433 51.9184 64.7814 51.2798 64.7814 50.4932C64.7814 49.7066 64.1433 49.068 63.3574 49.068H30.5016C30.0804 49.068 29.6816 49.2534 29.4107 49.5769L15.6939 65.9094C15.3374 66.3343 15.2602 66.9263 15.4936 67.4294C15.7271 67.9316 16.2306 68.2526 16.7847 68.2526H45.2437C45.6641 68.2526 46.0629 68.0655 46.3338 67.7445V67.7453ZM19.8422 65.4021L31.1663 51.9184H55.904L44.5807 65.4021H19.8422Z" fill="#EE788E"/>
<path d="M80.551 92.5675H65.6701C64.8842 92.5675 64.2461 93.2053 64.2461 93.9927C64.2461 94.7801 64.8842 95.4179 65.6701 95.4179H80.551C81.337 95.4179 81.975 94.7801 81.975 93.9927C81.975 93.2053 81.337 92.5675 80.551 92.5675Z" fill="#EE788E"/>
<path d="M80.551 98.0986H65.6701C64.8842 98.0986 64.2461 98.7364 64.2461 99.5238C64.2461 100.311 64.8842 100.949 65.6701 100.949H80.551C81.337 100.949 81.975 100.31 81.975 99.5238C81.975 98.7372 81.337 98.0986 80.551 98.0986Z" fill="#EE788E"/>
<path d="M94.0978 33.6975C93.5411 33.1404 92.6405 33.1404 92.0839 33.6975L87.3939 38.3914L82.7039 33.6975C82.1472 33.1404 81.2466 33.1404 80.6899 33.6975C80.1333 34.2546 80.1333 35.1576 80.6899 35.7131L85.3799 40.4069L80.6899 45.1C80.1333 45.6571 80.1333 46.5584 80.6899 47.1155C80.9683 47.3941 81.3322 47.533 81.6969 47.533C82.0616 47.533 82.4255 47.3941 82.7039 47.1155L87.3939 42.4225L92.0839 47.1155C92.3622 47.3941 92.7261 47.533 93.0908 47.533C93.4555 47.533 93.8194 47.3941 94.0978 47.1155C94.6544 46.5584 94.6544 45.6571 94.0978 45.1L89.4078 40.4069L94.0978 35.7131C94.6536 35.1568 94.6536 34.2538 94.0978 33.6975Z" fill="#EE788E"/>
<path d="M109.51 71.1029C108.724 71.1029 108.086 71.7407 108.086 72.5281V104.811H60.386V59.3545C60.386 58.5663 59.748 57.9293 58.962 57.9293C58.176 57.9293 57.538 58.5671 57.538 59.3545V104.811H31.9262V72.5289C31.9262 71.7407 31.2881 71.1037 30.5022 71.1037C29.7162 71.1037 29.0781 71.7415 29.0781 72.5289V106.237C29.0781 107.026 29.7162 107.663 30.5022 107.663H109.51C110.296 107.663 110.934 107.025 110.934 106.237V72.5289C110.935 71.7415 110.297 71.1037 109.51 71.1037V71.1029Z" fill="#EE788E"/>
</svg>
