<svg width="31" height="31" viewBox="0 0 31 31" fill="none" xmlns="http://www.w3.org/2000/svg">
<circle cx="15.5" cy="15.5" r="15.5" fill="url(#paint0_linear_1087_8182)"/>
<path d="M21.8781 12.9945C21.6929 12.4821 21.3802 12.337 20.9117 12.3465C19.6485 12.3722 18.3845 12.3564 17.1208 12.3545C16.6803 12.3538 16.6246 12.3031 16.6183 11.8608C16.6099 11.2767 16.6151 10.6925 16.6131 10.1083C16.6103 9.2749 16.3131 8.96554 15.4759 8.95537C14.6295 8.94515 13.783 8.95473 12.9366 8.95188C11.256 8.94608 9.57557 8.93743 7.89502 8.93055C7.37181 8.92834 6.95964 9.05277 6.7425 9.62404C6.60628 9.98234 6.23376 9.76577 5.96501 9.7833C5.82758 9.07673 6.42627 8.29066 7.22721 8.17911C7.81411 8.09734 8.41467 8.09633 9.00935 8.09141C11.1908 8.07323 13.3723 8.06536 15.5538 8.06C16.7625 8.05706 17.4643 8.7562 17.4796 9.96604C17.4844 10.3475 17.5008 10.7304 17.4745 11.1101C17.4519 11.4368 17.5809 11.5102 17.8857 11.5056C18.9703 11.4892 20.0553 11.504 21.1402 11.4973C21.6942 11.4939 22.1161 11.6835 22.4304 12.17C22.9532 12.9793 23.5084 13.7683 24.0691 14.5521C24.4218 15.0452 24.9297 15.3154 25.5307 15.3405C27.0034 15.4021 27.9868 16.5104 28.1616 17.9334C28.2281 18.4748 28.209 19.0284 28.204 19.5763C28.2003 19.9849 28.0929 20.0736 27.683 20.0749C26.8615 20.0776 26.0398 20.0757 25.1598 20.0757C25.2523 20.9665 25.0444 21.7314 24.304 22.2645C23.8508 22.5909 23.3389 22.7164 22.7827 22.6535C22.1669 22.5839 21.6832 22.2788 21.3128 21.7965C20.9373 21.3078 20.8704 20.7319 20.9235 20.1041C20.7797 20.0941 20.6654 20.0785 20.5512 20.0794C19.383 20.0878 18.2148 20.1031 17.0465 20.1035C16.9105 20.1036 16.6692 20.0445 16.6574 19.9799C16.6162 19.7535 16.6391 19.5104 16.677 19.2799C16.683 19.2431 16.8897 19.2227 17.0037 19.2223C18.339 19.2185 19.6742 19.2166 21.0095 19.2232C21.2218 19.2242 21.3781 19.1816 21.5409 19.0186C22.4048 18.1533 23.7037 18.1733 24.5893 19.0294C24.6943 19.1309 24.8697 19.207 25.0149 19.2112C25.6701 19.2305 26.3267 19.2035 26.9816 19.2261C27.3392 19.2385 27.3149 19.0287 27.322 18.7906C27.3294 18.5364 27.3157 18.3571 26.9718 18.3734C26.5132 18.395 26.3321 18.105 26.4989 17.6548C26.5223 17.5916 26.6317 17.5349 26.7088 17.5226C26.8432 17.5011 26.9835 17.5166 27.132 17.5166C26.9564 16.7477 26.267 16.2323 25.4567 16.2317C22.7744 16.2296 20.0923 16.2303 17.4101 16.2299C17.3028 16.2298 17.1953 16.2248 17.0882 16.2295C16.7756 16.2435 16.6119 16.0854 16.6106 15.7837C16.6072 14.9979 16.6152 14.2122 16.6232 13.4264C16.6259 13.1672 16.7752 13.0359 17.0258 13.0169C17.192 13.0042 17.3589 12.9958 17.5256 12.9955C18.837 12.9938 20.1484 12.9945 21.4598 12.9945H21.8781ZM21.78 20.4925C21.7666 21.2259 22.3104 21.7837 23.0436 21.7886C23.745 21.7932 24.2999 21.2627 24.3161 20.5718C24.3336 19.8206 23.8126 19.2562 23.0866 19.24C22.345 19.2235 21.7934 19.7523 21.78 20.4925ZM20.4871 15.325H23.5411C23.2368 14.8944 22.959 14.4825 22.6579 14.0882C22.5829 13.9899 22.4355 13.8951 22.3176 13.8903C21.7959 13.869 21.2727 13.8868 20.7503 13.8783C20.5452 13.8749 20.4806 13.9627 20.4848 14.1555C20.4928 14.5342 20.4871 14.9131 20.4871 15.325ZM18.5794 13.8805C18.3171 13.8805 18.054 13.8934 17.7928 13.8768C17.5368 13.8604 17.4534 13.9777 17.4575 14.2132C17.4628 14.5111 17.4353 14.8111 17.4643 15.106C17.4734 15.1976 17.6176 15.3452 17.7046 15.3486C18.2641 15.3704 18.8252 15.3683 19.3849 15.3492C19.4662 15.3464 19.6051 15.2152 19.611 15.1354C19.6356 14.8036 19.6373 14.4671 19.6069 14.1359C19.5985 14.0445 19.4582 13.9051 19.3648 13.8929C19.1069 13.8592 18.8417 13.8813 18.5794 13.8805Z" fill="white"/>
<path d="M8.48712 20.0582C8.21652 20.0582 7.97012 20.0605 7.72373 20.0578C6.60431 20.0456 5.9187 19.3676 5.90689 18.2569C5.9016 17.7578 5.90603 17.2586 5.90603 16.743C6.00027 16.7195 6.07646 16.689 6.15457 16.6829C6.69591 16.6406 6.71651 16.6621 6.71521 17.1924C6.71429 17.5498 6.70198 17.9082 6.72344 18.2645C6.7603 18.8747 7.1357 19.2212 7.74369 19.2334C7.89851 19.2366 8.05376 19.2283 8.20829 19.2361C8.61769 19.2571 8.94773 19.1944 9.28563 18.8665C10.0431 18.1317 11.2814 18.239 12.1085 18.9996C12.239 19.1196 12.451 19.2033 12.6289 19.2099C13.2832 19.2347 13.9395 19.2339 14.5942 19.2146C14.9518 19.204 14.8958 19.4353 14.89 19.6417C14.8841 19.8504 14.9767 20.1182 14.5907 20.1085C13.9856 20.0932 13.3797 20.1044 12.7332 20.1044C12.8085 20.9517 12.5983 21.6924 11.9058 22.2264C11.428 22.5948 10.8729 22.6907 10.2835 22.6333C9.16672 22.5248 8.45643 21.5343 8.48712 20.0582ZM10.531 21.807C11.2375 21.8318 11.8641 21.2562 11.8836 20.5647C11.9034 19.8605 11.3621 19.2734 10.6624 19.2403C9.94199 19.2062 9.3179 19.7752 9.28627 20.495C9.25687 21.1633 9.84484 21.783 10.531 21.807Z" fill="white"/>
<path d="M7.15648 15.7879C6.35803 15.7879 5.55957 15.7866 4.76112 15.7885C4.47988 15.7892 4.21889 15.756 4.19463 15.3995C4.17545 15.1168 4.37399 14.9612 4.76085 14.9589C6.35738 14.9494 7.95407 14.9408 9.5506 14.9467C9.71501 14.9473 9.92442 15.0033 10.0295 15.1132C10.1191 15.2071 10.1572 15.4572 10.0933 15.5626C10.0188 15.6857 9.81031 15.7895 9.65749 15.7931C8.89575 15.811 8.13322 15.7932 7.37096 15.7881C7.29949 15.7876 7.22794 15.788 7.15648 15.7879Z" fill="white"/>
<path d="M6.32113 13.6416C5.51245 13.6416 4.70377 13.6404 3.89509 13.6423C3.61199 13.643 3.35736 13.6015 3.33646 13.2464C3.31972 12.9627 3.51032 12.814 3.90575 12.8128C5.3328 12.8088 6.75985 12.8124 8.1869 12.8113C8.40053 12.8112 8.61503 12.7869 8.82752 12.8C9.09296 12.8163 9.28999 12.9398 9.28792 13.2379C9.2857 13.5398 9.0868 13.6536 8.817 13.6552C7.98507 13.6601 7.15307 13.657 6.32113 13.657V13.6416Z" fill="white"/>
<path d="M5.42435 11.4951C4.62726 11.4951 3.83017 11.4939 3.03308 11.4957C2.74897 11.4963 2.48683 11.4518 2.48011 11.0963C2.47345 10.7449 2.73266 10.6677 3.01534 10.667C4.63327 10.6627 6.2512 10.6623 7.8692 10.6669C8.23294 10.6678 8.42096 10.8224 8.40565 11.0957C8.38598 11.4468 8.13893 11.4976 7.85132 11.4963C7.04235 11.4927 6.23331 11.4951 5.42435 11.4951Z" fill="white"/>
<path d="M17.6987 17.5224C17.6275 17.5224 17.5548 17.5125 17.4855 17.5241C17.1227 17.5849 17.0157 17.4345 17.0272 17.0753C17.0371 16.7635 17.1028 16.6042 17.4448 16.6532C17.5843 16.6732 17.729 16.6562 17.8713 16.6565C18.3381 16.6574 18.3381 16.6575 18.3355 17.1237C18.3333 17.5225 18.3333 17.5225 17.6987 17.5224Z" fill="white"/>
<path d="M11.0094 20.5032C10.9958 20.7737 10.8624 20.9334 10.5933 20.9367C10.3388 20.9399 10.1943 20.7818 10.1868 20.5393C10.1794 20.2987 10.3149 20.1234 10.5627 20.1069C10.8266 20.0895 10.9741 20.2462 11.0094 20.5032Z" fill="white"/>
<defs>
<linearGradient id="paint0_linear_1087_8182" x1="3.15651" y1="-3.89287e-06" x2="42.0787" y2="6.16274" gradientUnits="userSpaceOnUse">
<stop stop-color="#DF7D8D"/>
<stop offset="0.14" stop-color="#DF7D8D"/>
<stop offset="1" stop-color="#AF4F63"/>
</linearGradient>
</defs>
</svg>
