<svg width="20" height="20" viewBox="0 0 20 20" fill="none" xmlns="http://www.w3.org/2000/svg">
<path d="M9.99881 20.0009C4.4785 19.9961 -0.030768 15.4797 0.000158133 9.98676C0.0310843 4.45337 4.49753 -0.00594139 10.0024 5.942e-06C15.5251 0.00595327 20.0308 4.51879 19.9998 10.0141C19.9689 15.5487 15.5048 20.0056 9.99881 20.0009ZM9.99762 18.9993C14.9422 19.0029 19.0043 14.9409 18.9983 9.99628C18.9936 5.05405 14.9601 1.017 10.0119 1.00154C5.07204 0.986073 1.01001 5.03858 1.0005 9.99271C0.990983 14.9361 5.04706 18.9958 9.99643 18.9993H9.99762Z" fill="#DF7E8E"/>
<path d="M6.00034 14.9185C6.10263 14.3237 6.21325 13.679 6.32387 13.0332C6.41784 12.4884 6.51656 11.9436 6.59745 11.3965C6.60815 11.3203 6.54392 11.2109 6.48207 11.1491C5.68751 10.364 4.88938 9.58371 4.08768 8.8058C3.91044 8.63452 3.77247 8.45848 3.85811 8.19085C3.94256 7.9256 4.15429 7.85423 4.39932 7.81973C5.51028 7.66035 6.62005 7.49382 7.7322 7.34157C7.87969 7.32135 7.94511 7.25831 8.00459 7.13579C8.49346 6.13426 8.99303 5.13868 9.47953 4.13596C9.59133 3.9052 9.73407 3.74105 10.0041 3.74343C10.2729 3.74581 10.4144 3.91353 10.5251 4.14309C11.0044 5.13154 11.4981 6.11404 11.9798 7.10249C12.0512 7.24879 12.1344 7.31778 12.3069 7.34157C13.4119 7.49025 14.5133 7.65559 15.6172 7.81617C15.8634 7.85185 16.0656 7.93868 16.1465 8.20393C16.2262 8.46443 16.0906 8.63452 15.9217 8.79867C15.1164 9.58371 14.3123 10.37 13.5047 11.1526C13.4119 11.2418 13.381 11.3203 13.4048 11.4559C13.6058 12.5919 13.7925 13.7302 13.9888 14.8661C14.0269 15.0886 13.9793 15.2717 13.7997 15.4061C13.6094 15.5489 13.4083 15.5251 13.2061 15.418C12.2201 14.8971 11.2316 14.382 10.2491 13.8539C10.0731 13.7587 9.93985 13.7492 9.75667 13.8479C8.77655 14.3785 7.7881 14.8947 6.80085 15.4121C6.38453 15.6298 5.98012 15.4026 5.99915 14.9173L6.00034 14.9185ZM14.5336 8.70113C14.4574 8.68329 14.3861 8.66188 14.3123 8.65117C13.5178 8.53579 12.7244 8.4109 11.9274 8.31336C11.5766 8.27054 11.3494 8.13019 11.1959 7.79595C10.851 7.04539 10.4692 6.31268 10.1016 5.57164C10.0731 5.51455 10.0374 5.46102 9.98981 5.38014C9.55922 6.24726 9.14529 7.07632 8.7373 7.90894C8.63619 8.11472 8.49703 8.23843 8.26151 8.27054C7.63585 8.35499 7.01257 8.45134 6.3881 8.54412C6.08003 8.59051 5.77196 8.63928 5.42107 8.6928C6.11571 9.36842 6.76516 10.0107 7.4277 10.6388C7.62396 10.8255 7.69652 11.0277 7.64894 11.287C7.54545 11.8615 7.44673 12.4384 7.34681 13.0141C7.28853 13.3484 7.23381 13.6826 7.17196 14.0502C7.26712 14.0073 7.32421 13.9859 7.37774 13.9586C8.1164 13.5708 8.861 13.1937 9.59015 12.7881C9.88513 12.624 10.1302 12.6335 10.4204 12.7929C11.1436 13.1926 11.8799 13.566 12.6114 13.9502C12.6697 13.98 12.7303 14.005 12.8065 14.0395C12.8065 13.9728 12.8124 13.9336 12.8065 13.8967C12.6578 13.0451 12.5127 12.1922 12.358 11.3417C12.3069 11.0587 12.3604 10.8327 12.5828 10.6269C13.0479 10.1987 13.4964 9.75262 13.9472 9.30895C14.1458 9.11387 14.3337 8.9081 14.5336 8.69875V8.70113Z" fill="#DF7E8E"/>
</svg>
