<svg width="35" height="35" viewBox="0 0 35 35" fill="none" xmlns="http://www.w3.org/2000/svg">
<path d="M18.2431 25.946C17.7753 25.7089 17.2247 25.7089 16.7569 25.946L10.7617 28.9846C9.49194 29.6281 8.06228 28.4656 8.40659 27.0696L9.8084 21.3857C9.94243 20.8422 9.80115 20.2668 9.43147 19.8504L4.80398 14.6385C3.88157 13.5996 4.5368 11.9396 5.9116 11.8324L12.367 11.329C12.9709 11.2819 13.5017 10.9055 13.7523 10.3467L15.9873 5.36234C16.5777 4.04589 18.4223 4.04589 19.0127 5.36234L21.2477 10.3467C21.4983 10.9055 22.0291 11.2819 22.633 11.329L29.0884 11.8324C30.4632 11.9396 31.1184 13.5996 30.196 14.6385L25.5685 19.8504C25.1988 20.2668 25.0576 20.8422 25.1916 21.3857L26.5934 27.0696C26.9377 28.4656 25.5081 29.6281 24.2383 28.9846L18.2431 25.946Z" fill="#FFDEEB" fill-opacity="0.6" stroke="#EB1C6B" stroke-width="1.5" stroke-linecap="round" stroke-linejoin="round"/>
</svg>
