<svg width="128" height="128" viewBox="0 0 128 128" fill="none" xmlns="http://www.w3.org/2000/svg">
<path fill-rule="evenodd" clip-rule="evenodd" d="M122.334 37.6036C125.29 37.6036 127.686 39.9927 127.686 42.9398C127.686 45.8869 125.29 48.276 122.334 48.276H91.7504C94.7063 48.276 97.1025 50.6651 97.1025 53.6122C97.1025 56.5593 94.7063 58.9483 91.7504 58.9483H108.571C111.527 58.9483 113.923 61.3374 113.923 64.2845C113.923 67.2316 111.527 69.6207 108.571 69.6207H100.792C97.0655 69.6207 94.0442 72.0098 94.0442 74.9569C94.0442 76.9216 95.5733 78.7003 98.6317 80.2931C101.588 80.2931 103.984 82.6821 103.984 85.6292C103.984 88.5763 101.588 90.9654 98.6317 90.9654H35.171C32.2151 90.9654 29.8189 88.5763 29.8189 85.6292C29.8189 82.6821 32.2151 80.2931 35.171 80.2931H5.35211C2.39622 80.2931 0 77.904 0 74.9569C0 72.0098 2.39622 69.6207 5.35211 69.6207H35.9356C38.8915 69.6207 41.2877 67.2316 41.2877 64.2845C41.2877 61.3374 38.8915 58.9483 35.9356 58.9483H16.8209C13.865 58.9483 11.4688 56.5593 11.4688 53.6122C11.4688 50.6651 13.865 48.276 16.8209 48.276H47.4044C44.4485 48.276 42.0523 45.8869 42.0523 42.9398C42.0523 39.9927 44.4485 37.6036 47.4044 37.6036H122.334ZM122.334 58.9483C125.29 58.9483 127.686 61.3374 127.686 64.2845C127.686 67.2316 125.29 69.6207 122.334 69.6207C119.378 69.6207 116.982 67.2316 116.982 64.2845C116.982 61.3374 119.378 58.9483 122.334 58.9483Z" fill="#FFD0D9" fill-opacity="0.24"/>
<path d="M45.7105 39.1872L47.8806 43.5937C48.022 43.8806 48.2951 44.0797 48.611 44.1256L53.4635 44.8324C54.2591 44.9482 54.5769 45.9283 54.0012 46.4905L50.4898 49.9205C50.2612 50.1438 50.1567 50.4657 50.2109 50.781L51.0399 55.6244C51.1759 56.4185 50.3439 57.0241 49.6323 56.6492L45.2921 54.3625C45.0094 54.2135 44.6719 54.2135 44.3892 54.3625L40.0489 56.6492C39.3374 57.0241 38.5054 56.4185 38.6414 55.6244L39.4701 50.781C39.5242 50.4657 39.4198 50.1438 39.1912 49.9205L35.6797 46.4905C35.1041 45.928 35.4215 44.9482 36.2175 44.8324L41.07 44.1256C41.3858 44.0797 41.659 43.8806 41.8004 43.5937L43.9705 39.1872C44.3265 38.4645 45.3545 38.4645 45.7105 39.1872Z" stroke="#EE788E" stroke-width="3" stroke-miterlimit="10" stroke-linecap="round"/>
<path d="M66.4012 33.5924L68.791 38.4454C68.9467 38.7613 69.2476 38.9804 69.5955 39.0312L74.9396 39.8094C75.8158 39.937 76.1658 41.0161 75.5318 41.6357L71.6647 45.4131C71.4129 45.6591 71.298 46.0136 71.3575 46.3607L72.2703 51.6945C72.4199 52.5691 71.5039 53.2362 70.7201 52.8234L65.9402 50.305C65.6288 50.141 65.2569 50.141 64.9458 50.305L60.1659 52.8234C59.3821 53.2362 58.4661 52.5694 58.6157 51.6945L59.5285 46.3607C59.5881 46.0133 59.4731 45.6591 59.2213 45.4131L55.3542 41.6357C54.7199 41.0164 55.0698 39.937 55.9464 39.8094L61.2905 39.0312C61.6385 38.9804 61.9393 38.7616 62.095 38.4454L64.4848 33.5924C64.8768 32.7967 66.0089 32.7967 66.4009 33.5924H66.4012Z" stroke="#EE788E" stroke-width="3" stroke-miterlimit="10" stroke-linecap="round"/>
<path d="M27.4824 45.1231L29.4328 49.0833C29.5599 49.3411 29.8053 49.5198 30.0893 49.5613L34.4503 50.1962C35.1654 50.3002 35.451 51.1811 34.9336 51.6865L31.7781 54.769C31.5727 54.9697 31.4788 55.2591 31.5272 55.5424L32.2722 59.8951C32.3945 60.6089 31.6469 61.1532 31.0072 60.8162L27.1067 58.7612C26.8526 58.6275 26.5492 58.6275 26.2951 58.7612L22.3946 60.8162C21.755 61.1532 21.0074 60.6089 21.1297 59.8951L21.8747 55.5424C21.9231 55.2591 21.8295 54.9697 21.6238 54.769L18.4683 51.6865C17.9509 51.1811 18.2365 50.3005 18.9516 50.1962L23.3125 49.5613C23.5965 49.5198 23.842 49.3411 23.969 49.0833L25.9194 45.1231C26.2391 44.4738 27.1634 44.4738 27.483 45.1231H27.4824Z" stroke="#EE788E" stroke-width="3" stroke-miterlimit="10" stroke-linecap="round"/>
<path d="M85.1218 39.1872L82.9517 43.5937C82.8103 43.8806 82.5371 44.0797 82.2213 44.1256L77.3688 44.8324C76.5731 44.9482 76.2554 45.9283 76.831 46.4905L80.3425 49.9205C80.5711 50.1438 80.6755 50.4657 80.6214 50.781L79.7927 55.6244C79.6567 56.4185 80.4886 57.0241 81.2002 56.6492L85.5405 54.3625C85.8232 54.2135 86.1607 54.2135 86.4434 54.3625L90.7836 56.6492C91.4952 57.0241 92.3272 56.4185 92.1912 55.6244L91.3625 50.781C91.3083 50.4657 91.4128 50.1438 91.6414 49.9205L95.1528 46.4905C95.7285 45.928 95.4111 44.9482 94.6151 44.8324L89.7626 44.1256C89.4467 44.0797 89.1736 43.8806 89.0322 43.5937L86.8621 39.1872C86.5061 38.4645 85.4781 38.4645 85.1221 39.1872H85.1218Z" stroke="#EE788E" stroke-width="3" stroke-miterlimit="10" stroke-linecap="round"/>
<path d="M103.35 45.1231L101.4 49.0833C101.273 49.3411 101.027 49.5198 100.743 49.5613L96.3822 50.1962C95.6671 50.3002 95.3816 51.1811 95.8989 51.6865L99.0544 54.769C99.2598 54.9697 99.3537 55.2591 99.3053 55.5424L98.5603 59.8951C98.4381 60.6089 99.1856 61.1532 99.8253 60.8162L103.726 58.7612C103.98 58.6275 104.283 58.6275 104.537 58.7612L108.438 60.8162C109.078 61.1532 109.825 60.6089 109.703 59.8951L108.958 55.5424C108.909 55.2591 109.003 54.9697 109.209 54.769L112.364 51.6865C112.882 51.1811 112.596 50.3005 111.881 50.1962L107.52 49.5613C107.236 49.5198 106.991 49.3411 106.863 49.0833L104.913 45.1231C104.593 44.4738 103.669 44.4738 103.349 45.1231H103.35Z" stroke="#EE788E" stroke-width="3" stroke-miterlimit="10" stroke-linecap="round"/>
<path d="M56.1466 73.2175H48.031C47.0857 73.2175 46.3193 73.9855 46.3193 74.9328V93.7726C46.3193 94.7199 47.0857 95.4879 48.031 95.4879H56.1466C57.0919 95.4879 57.8583 94.7199 57.8583 93.7726V74.9328C57.8583 73.9855 57.0919 73.2175 56.1466 73.2175Z" stroke="#EE788E" stroke-width="3" stroke-miterlimit="10" stroke-linecap="round"/>
<path d="M79.5615 82.6395H80.6953C82.3337 82.6395 83.6888 81.3314 83.7139 79.6898C83.741 78.0121 82.3917 76.6437 80.7236 76.6437H79.9888" stroke="#EE788E" stroke-width="3" stroke-miterlimit="10" stroke-linecap="round"/>
<path d="M79.1338 88.6354H80.0256C81.6503 88.6354 83.0206 87.361 83.0713 85.7341C83.1251 84.0345 81.7662 82.6395 80.0819 82.6395H79.5614" stroke="#EE788E" stroke-width="3" stroke-miterlimit="10" stroke-linecap="round"/>
<path d="M79.9884 76.644H80.7223C82.3744 76.644 83.7139 75.3017 83.7139 73.6461C83.7139 71.9904 82.3744 70.6481 80.7223 70.6481H69.8246L71.1851 63.8307C71.8078 60.7109 69.4266 57.8 66.2517 57.8C65.8441 57.8 65.4936 58.0882 65.4137 58.4886L63.873 66.2087C63.8523 66.3124 63.8125 66.4113 63.7559 66.5006L57.8584 75.7876V92.0621C60.0775 93.7302 62.7768 94.6319 65.5509 94.6319H79.3558C80.9665 94.6319 82.3528 93.3913 82.4285 91.7788C82.5094 90.0571 81.1407 88.636 79.4405 88.636H79.1339" stroke="#EE788E" stroke-width="3" stroke-miterlimit="10" stroke-linecap="round"/>
</svg>
