<svg width="128" height="128" viewBox="0 0 128 128" fill="none" xmlns="http://www.w3.org/2000/svg">
<g clip-path="url(#clip0_1459_6761)">

<path fill-rule="evenodd" clip-rule="evenodd" d="M116.379 41.344C119.01 41.344 121.142 43.4746 121.142 46.1027C121.142 48.7309 119.01 50.8615 116.379 50.8615H89.1635C91.7939 50.8615 93.9263 52.9921 93.9263 55.6203C93.9263 58.2484 91.7939 60.379 89.1635 60.379H104.132C106.763 60.379 108.895 62.5096 108.895 65.1378C108.895 67.766 106.763 69.8965 104.132 69.8965H97.2099C93.8933 69.8965 91.2047 72.0271 91.2047 74.6553C91.2047 76.4074 92.5655 77.9937 95.2871 79.414C97.9174 79.414 100.05 81.5446 100.05 84.1728C100.05 86.801 97.9174 88.9315 95.2871 88.9315H38.8146C36.1842 88.9315 34.0519 86.801 34.0519 84.1728C34.0519 81.5446 36.1842 79.414 38.8146 79.414H12.2793C9.64895 79.414 7.5166 77.2835 7.5166 74.6553C7.5166 72.0271 9.64895 69.8965 12.2793 69.8965H39.495C42.1254 69.8965 44.2577 67.766 44.2577 65.1378C44.2577 62.5096 42.1254 60.379 39.495 60.379H22.4852C19.8548 60.379 17.7225 58.2484 17.7225 55.6203C17.7225 52.9921 19.8548 50.8615 22.4852 50.8615H49.7009C47.0705 50.8615 44.9381 48.7309 44.9381 46.1027C44.9381 43.4746 47.0705 41.344 49.7009 41.344H116.379ZM116.379 60.379C119.01 60.379 121.142 62.5096 121.142 65.1378C121.142 67.766 119.01 69.8965 116.379 69.8965C113.749 69.8965 111.616 67.766 111.616 65.1378C111.616 62.5096 113.749 60.379 116.379 60.379Z" fill="#FFD0D9" fill-opacity="0.24"/>
<path d="M57.5255 87.5719C70.1138 87.5719 80.3186 77.3756 80.3186 64.7978C80.3186 52.2201 70.1138 42.0238 57.5255 42.0238C44.9372 42.0238 34.7324 52.2201 34.7324 64.7978C34.7324 77.3756 44.9372 87.5719 57.5255 87.5719Z" fill="#FFD0D9" fill-opacity="0.24" stroke="#DF7E8E" stroke-width="2.5"/>
<path fill-rule="evenodd" clip-rule="evenodd" d="M53.8732 82.4691C55.0698 82.6898 56.2873 82.8045 57.5255 82.8132C67.4834 82.8132 75.5558 74.7475 75.5558 64.7979C75.5558 54.8483 67.4834 46.7826 57.5255 46.7826C54.9675 46.7826 52.5339 47.3148 50.3295 48.2746C46.499 49.9423 43.3608 52.9009 41.4655 56.6005C40.2058 59.0595 39.4951 61.8457 39.4951 64.7979C39.4951 67.4764 40.0802 70.0184 41.1295 72.3032C41.8787 73.9344 42.8645 75.4346 44.0431 76.7598" fill="white"/>
<path d="M53.8732 82.4691C55.0698 82.6898 56.2873 82.8045 57.5255 82.8132C67.4834 82.8132 75.5558 74.7475 75.5558 64.7979C75.5558 54.8483 67.4834 46.7826 57.5255 46.7826C54.9675 46.7826 52.5339 47.3148 50.3295 48.2746C46.499 49.9423 43.3608 52.9009 41.4655 56.6005C40.2058 59.0595 39.4951 61.8457 39.4951 64.7979C39.4951 67.4764 40.0802 70.0184 41.1295 72.3032C41.8787 73.9344 42.8645 75.4346 44.0431 76.7598" stroke="#DF7E8E" stroke-width="2.5" stroke-linecap="round"/>
<path d="M46.1611 78.785C47.6227 79.972 49.2739 80.9348 51.0623 81.6212" stroke="#DF7E8E" stroke-width="2.5" stroke-linecap="round"/>
<path d="M76.2363 82.8131L80.3187 86.892" stroke="#DF7E8E" stroke-width="2.5"/>
<path fill-rule="evenodd" clip-rule="evenodd" d="M79.6592 86.2329C78.3714 87.5196 78.3714 89.6057 79.6592 90.8924L87.2015 98.4285C88.4893 99.7152 90.5772 99.7152 91.865 98.4285C93.1528 97.1418 93.1528 95.0556 91.865 93.7689L84.3227 86.2329C83.0349 84.9461 80.947 84.9461 79.6592 86.2329Z" fill="#FFD0D9" stroke="#DF7E8E" stroke-width="2.5"/>
<path d="M83.04 87.5719L90.5243 95.0499" stroke="white" stroke-width="2.5" stroke-linecap="round"/>
<path fill-rule="evenodd" clip-rule="evenodd" d="M53.103 56.9799C53.103 64.8645 59.5001 71.2562 67.3912 71.2562C68.9414 71.2562 70.4339 71.0095 71.8316 70.5533C69.5502 76.2101 64.0046 80.2031 57.5255 80.2031C49.0103 80.2031 42.1074 73.3059 42.1074 64.7979C42.1074 57.0884 47.7753 50.7016 55.1748 49.5706C53.8602 51.7312 53.103 54.2672 53.103 56.9799Z" fill="#FFD0D9"/>
<path d="M57.8659 52.2212C56.9995 52.2212 56.153 52.3064 55.3343 52.4688M52.8615 53.2247C48.207 55.179 44.9385 59.777 44.9385 65.1378" stroke="#FFD0D9" stroke-width="2.5" stroke-linecap="round"/>
<path d="M94.0454 64.9864H88.4827M98.3484 59.6992H86.6621H98.3484ZM103.111 59.6992H101.6H103.111Z" stroke="#FFD0D9" stroke-width="2.5" stroke-linecap="round" stroke-linejoin="round"/>
<path d="M32.8108 79.9425H27.2481M29.6295 73.9755H17.9432H29.6295ZM13.9805 73.9755H11.1084H13.9805Z" stroke="#FFD0D9" stroke-width="2.5" stroke-linecap="round" stroke-linejoin="round"/>
</g>
<defs>
<clipPath id="clip0_1459_6761">
<rect width="128" height="128" fill="white"/>
</clipPath>
</defs>
</svg>
