<svg width="31" height="31" viewBox="0 0 31 31" fill="none" xmlns="http://www.w3.org/2000/svg">
<circle cx="15.5" cy="15.5" r="15.5" fill="url(#paint0_linear_1087_8194)"/>
<path d="M24.1653 10.7652H5.73432C5.72632 10.886 5.71326 10.9911 5.71319 11.096C5.71202 13.2904 5.71047 15.4848 5.71319 17.6792C5.71427 18.5754 6.11183 19.2276 6.8507 19.4813C7.11866 19.5733 7.42034 19.5991 7.70679 19.6C10.289 19.6087 12.8712 19.6036 15.4534 19.6071C15.7343 19.6075 16.0785 19.5357 16.1241 19.9661C16.1544 20.2524 15.9615 20.3567 15.4478 20.3568C12.8655 20.357 10.2833 20.3578 7.70105 20.3566C5.97439 20.3558 4.9615 19.3487 4.96081 17.6319C4.95964 14.807 4.95964 11.9823 4.96104 9.15753C4.96182 7.56131 5.99793 6.51377 7.59748 6.51254C12.4953 6.50873 17.393 6.50873 22.2908 6.51587C23.8982 6.51828 24.9205 7.56459 24.9181 9.16738C24.9159 10.6222 24.9173 12.077 24.917 13.5318C24.917 13.6287 24.9188 13.7258 24.9144 13.8227C24.9039 14.0543 24.8158 14.2333 24.555 14.2334C24.2898 14.2335 24.1645 14.0818 24.1653 13.8155C24.1677 13.0639 24.1656 12.3122 24.1653 11.5606C24.1652 11.3078 24.1653 11.0552 24.1653 10.7652ZM5.68443 9.98734H24.1642C24.1642 9.67852 24.1714 9.39067 24.163 9.1032C24.1306 7.98683 23.4143 7.26748 22.2979 7.26607C17.3891 7.25978 12.4803 7.2604 7.57153 7.26508C6.6863 7.26593 5.9493 7.77326 5.79468 8.53077C5.69975 8.99623 5.71847 9.48492 5.68443 9.98734Z" fill="white"/>
<path d="M19.5224 18.5121C19.5224 17.8564 19.518 17.2277 19.5235 16.5989C19.5312 15.734 20.0126 15.2491 20.8748 15.2417C21.6137 15.2352 22.3528 15.233 23.0916 15.2427C23.8934 15.2533 24.3832 15.7299 24.4038 16.5314C24.4204 17.1836 24.4071 17.8365 24.4071 18.5063C24.5474 18.5306 24.6634 18.5515 24.7796 18.5704C25.4158 18.6739 25.9635 19.1497 25.996 19.7863C26.0494 20.8351 26.0586 21.8912 25.9991 22.9391C25.9568 23.6848 25.3685 24.2041 24.6125 24.2154C22.8447 24.2421 21.0759 24.2432 19.3081 24.2154C18.5238 24.2031 17.9676 23.699 17.9143 22.909C17.8477 21.9214 17.8379 20.9233 17.8996 19.9357C17.9554 19.0431 18.4228 18.6839 19.5224 18.5121ZM21.9214 23.4724C22.7565 23.4724 23.5917 23.4795 24.4267 23.4699C24.9974 23.4633 25.273 23.1858 25.2789 22.6167C25.2874 21.8059 25.2867 20.9948 25.2793 20.184C25.2738 19.5831 25.0135 19.3185 24.4137 19.3163C22.7799 19.3101 21.1458 19.3104 19.512 19.316C18.9093 19.3182 18.6454 19.5816 18.6394 20.1786C18.6316 20.9653 18.6345 21.752 18.6381 22.5387C18.6412 23.1934 18.9124 23.468 19.5613 23.4716C20.3479 23.4759 21.1346 23.4726 21.9214 23.4724ZM23.6485 18.5177C23.6485 17.8234 23.6612 17.1486 23.643 16.4746C23.6344 16.1554 23.4054 16.0018 23.1058 15.9975C22.3432 15.9865 21.5802 15.9867 20.8177 15.9976C20.5586 16.0013 20.3189 16.1031 20.3121 16.4073C20.2967 17.1042 20.3072 17.8017 20.3072 18.5177H23.6485Z" fill="white"/>
<path d="M11.0088 12.6218C11.9284 12.6223 12.8481 12.6221 13.7677 12.6225C13.8645 12.6225 13.9614 12.6233 14.0581 12.6275C14.2865 12.6373 14.4257 12.7552 14.4302 12.9854C14.4351 13.2351 14.288 13.359 14.0442 13.3675C13.8871 13.373 13.7297 13.37 13.5725 13.3701C11.8058 13.3711 10.0392 13.3724 8.27255 13.3727C8.15175 13.3727 8.00296 13.4088 7.91656 13.3524C7.78495 13.2665 7.61146 13.1127 7.61379 12.9909C7.61605 12.8688 7.79389 12.7176 7.9297 12.6412C8.0321 12.5838 8.18966 12.6219 8.32259 12.6217C9.21802 12.621 10.1133 12.6214 11.0088 12.6218Z" fill="white"/>
<path d="M9.68483 17.7377C9.15318 17.7377 8.62152 17.7381 8.09002 17.7375C7.82687 17.7373 7.58772 17.6867 7.59387 17.3557C7.59954 17.0561 7.81273 16.986 8.06903 16.9862C9.1565 16.987 10.244 16.9888 11.3315 16.9849C11.614 16.9838 11.8196 17.079 11.8085 17.3888C11.7976 17.6913 11.5665 17.7391 11.3161 17.7382C10.7723 17.7364 10.2285 17.7377 9.68483 17.7377Z" fill="white"/>
<path d="M20.6128 13.3728C20.214 13.3728 19.8154 13.3737 19.4166 13.3725C19.1656 13.3716 18.9458 13.3136 18.9396 13.0066C18.9334 12.7026 19.1411 12.6232 19.398 12.6227C20.2075 12.621 21.0169 12.6225 21.8263 12.6218C22.0884 12.6215 22.2901 12.7079 22.2847 13.006C22.2792 13.3075 22.0647 13.3743 21.8088 13.3733C21.4101 13.3716 21.0115 13.3728 20.6128 13.3728Z" fill="white"/>
<defs>
<linearGradient id="paint0_linear_1087_8194" x1="3.15651" y1="-3.89287e-06" x2="42.0787" y2="6.16274" gradientUnits="userSpaceOnUse">
<stop stop-color="#DF7D8D"/>
<stop offset="0.14" stop-color="#DF7D8D"/>
<stop offset="1" stop-color="#AF4F63"/>
</linearGradient>
</defs>
</svg>
