<svg width="128" height="128" viewBox="0 0 128 128" fill="none" xmlns="http://www.w3.org/2000/svg">

<path fill-rule="evenodd" clip-rule="evenodd" d="M122.334 31.9147C125.29 31.9147 127.686 34.3038 127.686 37.2509C127.686 40.1979 125.29 42.587 122.334 42.587H91.7504C94.7063 42.587 97.1025 44.9761 97.1025 47.9232C97.1025 50.8703 94.7063 53.2594 91.7504 53.2594H108.571C111.527 53.2594 113.923 55.6485 113.923 58.5956C113.923 61.5426 111.527 63.9317 108.571 63.9317H100.792C97.0655 63.9317 94.0442 66.3208 94.0442 69.2679C94.0442 71.2326 95.5733 73.0114 98.6317 74.6041C101.588 74.6041 103.984 76.9932 103.984 79.9403C103.984 82.8874 101.588 85.2764 98.6317 85.2764H35.171C32.2151 85.2764 29.8189 82.8874 29.8189 79.9403C29.8189 76.9932 32.2151 74.6041 35.171 74.6041H5.35211C2.39622 74.6041 0 72.215 0 69.2679C0 66.3208 2.39622 63.9317 5.35211 63.9317H35.9356C38.8915 63.9317 41.2877 61.5426 41.2877 58.5956C41.2877 55.6485 38.8915 53.2594 35.9356 53.2594H16.8209C13.865 53.2594 11.4688 50.8703 11.4688 47.9232C11.4688 44.9761 13.865 42.587 16.8209 42.587H47.4044C44.4485 42.587 42.0523 40.1979 42.0523 37.2509C42.0523 34.3038 44.4485 31.9147 47.4044 31.9147H122.334ZM122.334 53.2594C125.29 53.2594 127.686 55.6485 127.686 58.5956C127.686 61.5426 125.29 63.9317 122.334 63.9317C119.378 63.9317 116.982 61.5426 116.982 58.5956C116.982 55.6485 119.378 53.2594 122.334 53.2594Z" fill="#FFD0D9" fill-opacity="0.24"/>
<path d="M100.003 50.8078H19.8894C14.8838 50.8078 10.8125 46.7431 10.8125 41.7476V27.8334C10.8125 22.838 14.8838 18.7733 19.8894 18.7733H100.004C105.008 18.7733 109.08 22.838 109.08 27.8334V41.7476C109.08 46.7431 105.008 50.8078 100.004 50.8078H100.003ZM19.8894 21.6004C16.4466 21.6004 13.6448 24.397 13.6448 27.8343V41.7485C13.6448 45.1857 16.4466 47.9823 19.8894 47.9823H100.004C103.447 47.9823 106.249 45.1857 106.249 41.7485V27.8334C106.249 24.3962 103.447 21.5996 100.004 21.5996H19.8894V21.6004Z" fill="#EE788E"/>
<path d="M34.6841 40.4039C31.5832 40.4039 29.0615 37.886 29.0615 34.7901C29.0615 31.6941 31.5841 29.1779 34.6841 29.1779C37.7841 29.1779 40.3067 31.6957 40.3067 34.7901C40.3067 37.8844 37.7841 40.4039 34.6841 40.4039ZM34.6841 32.0041C33.1452 32.0041 31.893 33.254 31.893 34.7901C31.893 36.3261 33.1452 37.5777 34.6841 37.5777C36.223 37.5777 37.4752 36.327 37.4752 34.7901C37.4752 33.2532 36.223 32.0041 34.6841 32.0041Z" fill="#EE788E"/>
<path d="M22.6022 39.4352C20.0368 39.4352 17.9492 37.3515 17.9492 34.79C17.9492 32.2286 20.0368 30.1465 22.6022 30.1465C25.1675 30.1465 27.2551 32.2302 27.2551 34.79C27.2551 37.3499 25.1675 39.4352 22.6022 39.4352ZM22.6022 32.9727C21.5979 32.9727 20.7807 33.7876 20.7807 34.79C20.7807 35.7924 21.5979 36.6081 22.6022 36.6081C23.6064 36.6081 24.4236 35.7924 24.4236 34.79C24.4236 33.7876 23.6064 32.9727 22.6022 32.9727Z" fill="#EE788E"/>
<path d="M46.7662 39.4352C44.2008 39.4352 42.1133 37.3515 42.1133 34.79C42.1133 32.2286 44.2008 30.1465 46.7662 30.1465C49.3316 30.1465 51.4183 32.2302 51.4183 34.79C51.4183 37.3499 49.3308 39.4352 46.7662 39.4352ZM46.7662 32.9727C45.762 32.9727 44.9448 33.7876 44.9448 34.79C44.9448 35.7924 45.762 36.6081 46.7662 36.6081C47.7705 36.6081 48.5869 35.7924 48.5869 34.79C48.5869 33.7876 47.7705 32.9727 46.7662 32.9727Z" fill="#EE788E"/>
<path d="M93.3702 36.2037H56.7892C56.0074 36.2037 55.373 35.5705 55.373 34.7901C55.373 34.0098 56.0074 33.3766 56.7892 33.3766H93.3702C94.152 33.3766 94.7863 34.0098 94.7863 34.7901C94.7863 35.5705 94.152 36.2037 93.3702 36.2037Z" fill="#EE788E"/>
<path d="M19.8937 80.0151C14.8849 80.0151 10.8086 75.9521 10.8086 70.9575V57.0449C10.8086 52.0453 14.884 47.9766 19.8937 47.9766H100.007C105.011 47.9766 109.081 52.0445 109.081 57.0449V73.9326C109.081 74.7129 108.447 75.3461 107.665 75.3461C106.883 75.3461 106.249 74.7129 106.249 73.9326V57.0449C106.249 53.6036 103.449 50.8036 100.007 50.8036H19.8937C16.446 50.8036 13.6409 53.6036 13.6409 57.0449V70.9575C13.6409 74.3939 16.446 77.1881 19.8937 77.1881C20.6755 77.1881 21.3098 77.8212 21.3098 78.6016C21.3098 79.382 20.6755 80.0151 19.8937 80.0151Z" fill="#EE788E"/>
<path d="M73.3571 65.4118H56.7892C56.0074 65.4118 55.373 64.7786 55.373 63.9983C55.373 63.2179 56.0074 62.5847 56.7892 62.5847H73.3571C74.1389 62.5847 74.7732 63.2179 74.7732 63.9983C74.7732 64.7786 74.1389 65.4118 73.3571 65.4118Z" fill="#EE788E"/>
<path d="M34.6841 69.6122C31.5832 69.6122 29.0615 67.0943 29.0615 63.9983C29.0615 60.9024 31.5841 58.3861 34.6841 58.3861C37.7841 58.3861 40.3067 60.904 40.3067 63.9983C40.3067 67.0927 37.7841 69.6122 34.6841 69.6122ZM34.6841 61.2124C33.1452 61.2124 31.893 62.4623 31.893 63.9983C31.893 65.5344 33.1452 66.7859 34.6841 66.7859C36.223 66.7859 37.4752 65.5352 37.4752 63.9983C37.4752 62.4614 36.223 61.2124 34.6841 61.2124Z" fill="#EE788E"/>
<path d="M22.6022 68.6436C20.0368 68.6436 17.9492 66.5598 17.9492 63.9975C17.9492 61.4353 20.0368 59.354 22.6022 59.354C25.1675 59.354 27.2551 61.4377 27.2551 63.9975C27.2551 66.5574 25.1675 68.6436 22.6022 68.6436ZM22.6022 62.1811C21.5979 62.1811 20.7807 62.996 20.7807 63.9984C20.7807 65.0008 21.5979 65.8173 22.6022 65.8173C23.6064 65.8173 24.4236 65.0008 24.4236 63.9984C24.4236 62.996 23.6064 62.1811 22.6022 62.1811Z" fill="#EE788E"/>
<path d="M46.7662 68.6436C44.2008 68.6436 42.1133 66.5598 42.1133 63.9975C42.1133 61.4353 44.2008 59.354 46.7662 59.354C49.3316 59.354 51.4183 61.4377 51.4183 63.9975C51.4183 66.5574 49.3308 68.6436 46.7662 68.6436ZM46.7662 62.1811C45.762 62.1811 44.9448 62.996 44.9448 63.9984C44.9448 65.0008 45.762 65.8173 46.7662 65.8173C47.7705 65.8173 48.5869 65.0008 48.5869 63.9984C48.5869 62.996 47.7705 62.1811 46.7662 62.1811Z" fill="#EE788E"/>
<path d="M74.3071 109.227H19.8937C14.8849 109.227 10.8086 105.159 10.8086 100.158V86.2458C10.8086 81.2511 14.884 77.1881 19.8937 77.1881H63.2448C64.0266 77.1881 64.661 77.8213 64.661 78.6016C64.661 79.382 64.0266 80.0152 63.2448 80.0152H19.8937C16.446 80.0152 13.6409 82.8102 13.6409 86.2458V100.158C13.6409 103.6 16.446 106.4 19.8937 106.4H74.3079C75.0897 106.4 75.7241 107.033 75.7241 107.813C75.7241 108.594 75.0897 109.227 74.3079 109.227H74.3071Z" fill="#EE788E"/>
<path d="M34.6841 98.8196C31.5832 98.8196 29.0615 96.3017 29.0615 93.2057C29.0615 90.1098 31.5841 87.5935 34.6841 87.5935C37.7841 87.5935 40.3067 90.1114 40.3067 93.2057C40.3067 96.3001 37.7841 98.8196 34.6841 98.8196ZM34.6841 90.4198C33.1452 90.4198 31.893 91.6697 31.893 93.2057C31.893 94.7418 33.1452 95.9933 34.6841 95.9933C36.223 95.9933 37.4752 94.7426 37.4752 93.2057C37.4752 91.6688 36.223 90.4198 34.6841 90.4198Z" fill="#EE788E"/>
<path d="M22.6022 97.8517C20.0368 97.8517 17.9492 95.768 17.9492 93.2057C17.9492 90.6434 20.0368 88.5621 22.6022 88.5621C25.1675 88.5621 27.2551 90.6458 27.2551 93.2057C27.2551 95.7655 25.1675 97.8517 22.6022 97.8517ZM22.6022 91.3892C21.5979 91.3892 20.7807 92.2041 20.7807 93.2065C20.7807 94.2089 21.5979 95.0254 22.6022 95.0254C23.6064 95.0254 24.4236 94.2089 24.4236 93.2065C24.4236 92.2041 23.6064 91.3892 22.6022 91.3892Z" fill="#EE788E"/>
<path d="M46.7662 97.8517C44.2008 97.8517 42.1133 95.768 42.1133 93.2057C42.1133 90.6434 44.2008 88.5621 46.7662 88.5621C49.3316 88.5621 51.4183 90.6458 51.4183 93.2057C51.4183 95.7655 49.3308 97.8517 46.7662 97.8517ZM46.7662 91.3892C45.762 91.3892 44.9448 92.2041 44.9448 93.2065C44.9448 94.2089 45.762 95.0254 46.7662 95.0254C47.7705 95.0254 48.5869 94.2089 48.5869 93.2065C48.5869 92.2041 47.7705 91.3892 46.7662 91.3892Z" fill="#EE788E"/>
<path d="M106.874 109.227H68.648C65.3066 109.227 62.3408 107.487 60.7138 104.574C59.0859 101.661 59.1642 98.2275 60.9214 95.3905L80.0349 64.5311C81.7023 61.8389 84.5914 60.2313 87.7615 60.2313C90.9315 60.2313 93.8207 61.8389 95.4881 64.5311L114.602 95.3905C116.359 98.2275 116.436 101.661 114.809 104.574C113.182 107.487 110.216 109.227 106.875 109.227H106.874ZM87.7615 63.0576C85.5792 63.0576 83.5913 64.1636 82.4437 66.017L63.3302 96.8764C62.1209 98.8286 62.0681 101.192 63.1869 103.197C64.3073 105.202 66.3487 106.4 68.648 106.4H106.874C109.173 106.4 111.216 105.202 112.335 103.197C113.455 101.192 113.401 98.8294 112.192 96.8764L93.0784 66.017C91.9308 64.1636 89.943 63.0576 87.7607 63.0576H87.7615Z" fill="#EE788E"/>
<path d="M87.7617 91.4206C85.5687 91.4206 83.7176 89.711 83.5471 87.5294L82.7513 77.337C82.6433 75.9473 83.1244 74.5633 84.0735 73.5404C85.0217 72.5175 86.3662 71.9312 87.7617 71.9312C89.1573 71.9312 90.5018 72.5175 91.45 73.5404C92.3982 74.5642 92.8801 75.9473 92.7722 77.337L91.9764 87.5294C91.8059 89.7118 89.9547 91.4206 87.7617 91.4206ZM87.7617 74.7566C87.1439 74.7566 86.5721 75.0066 86.152 75.4588C85.7318 75.9119 85.5259 76.5007 85.5745 77.1166L86.3703 87.309C86.4263 88.0294 87.0376 88.5935 87.7617 88.5935C88.4859 88.5935 89.0971 88.0294 89.1532 87.309L89.949 77.1166C89.9976 76.5007 89.7916 75.9127 89.3715 75.4588C88.9522 75.0057 88.3804 74.7566 87.7617 74.7566Z" fill="#EE788E"/>
<path d="M87.7615 102.992C85.2604 102.992 83.2256 100.96 83.2256 98.4635C83.2256 95.967 85.2604 93.9359 87.7615 93.9359C90.2627 93.9359 92.2975 95.967 92.2975 98.4635C92.2975 100.96 90.2627 102.992 87.7615 102.992ZM87.7615 96.763C86.8216 96.763 86.0571 97.5261 86.0571 98.4643C86.0571 99.4026 86.8216 100.167 87.7615 100.167C88.7015 100.167 89.466 99.4034 89.466 98.4643C89.466 97.5253 88.7015 96.763 87.7615 96.763Z" fill="#EE788E"/>
</svg>
