<svg width="24" height="24" viewBox="0 0 24 24" fill="none" xmlns="http://www.w3.org/2000/svg">
<path d="M10.6357 0C11.5404 0 12.4451 0 13.3566 0C13.3834 0.0134116 13.4102 0.0335273 13.4437 0.0402331C14.1139 0.214583 14.5026 0.650458 14.6031 1.32774C14.6902 1.87762 14.7505 2.4275 14.8109 2.97737C14.831 3.13831 14.8913 3.21878 15.0454 3.27243C15.3872 3.39984 15.729 3.54065 16.0574 3.69488C16.1847 3.75524 16.2651 3.73512 16.3724 3.65465C16.7946 3.31936 17.2235 2.99078 17.6457 2.6622C18.3427 2.12573 19.1134 2.15926 19.7367 2.77619C20.2393 3.26572 20.7352 3.76865 21.2244 4.26488C21.8276 4.88181 21.8745 5.65297 21.3518 6.33696C21.0234 6.76613 20.695 7.1886 20.3599 7.61106C20.2661 7.72506 20.246 7.81894 20.313 7.95976C20.4671 8.28164 20.6012 8.61693 20.7218 8.95222C20.7754 9.10645 20.8558 9.16681 21.0234 9.18692C21.6064 9.25398 22.1895 9.31433 22.7658 9.41492C23.4829 9.53562 23.9856 10.1324 23.9923 10.8567C23.999 11.6211 24.0057 12.3856 23.9923 13.1567C23.9789 13.8676 23.4762 14.4644 22.7725 14.5851C22.1895 14.6857 21.5997 14.746 21.01 14.8131C20.8558 14.8332 20.7821 14.8868 20.7285 15.0344C20.6079 15.3697 20.4738 15.7049 20.3197 16.0268C20.2527 16.1676 20.2527 16.2548 20.3532 16.3822C20.695 16.8047 21.0301 17.2406 21.3585 17.6764C21.8745 18.3537 21.8276 19.1249 21.2311 19.7351C20.7352 20.2448 20.2326 20.7477 19.7232 21.2439C19.1201 21.8407 18.3427 21.8877 17.6658 21.3646C17.2235 21.0293 16.7879 20.6873 16.3523 20.3386C16.2517 20.2582 16.178 20.2515 16.0574 20.3051C15.7089 20.4593 15.3604 20.6136 14.9985 20.7477C14.8645 20.7946 14.8176 20.8684 14.8042 20.9958C14.7438 21.5323 14.6701 22.062 14.6098 22.5985C14.5026 23.4635 13.8994 24 13.0282 24C12.3111 24 11.594 24 10.8702 24C10.133 23.9933 9.52989 23.4971 9.40926 22.7661C9.31543 22.1894 9.24841 21.606 9.1814 21.0226C9.16129 20.8617 9.10098 20.7812 8.94684 20.7209C8.61175 20.6002 8.27666 20.4593 7.95498 20.3118C7.82764 20.2515 7.73382 20.2515 7.61989 20.3453C7.19098 20.6873 6.76206 21.0226 6.32645 21.3512C5.63617 21.8743 4.86547 21.8273 4.25561 21.2238C3.75298 20.7276 3.25705 20.2313 2.76782 19.7351C2.16467 19.1249 2.11775 18.3537 2.64049 17.663C2.97558 17.2205 3.32407 16.7913 3.65245 16.342C3.69937 16.2816 3.71277 16.1542 3.68596 16.0805C3.55193 15.7184 3.39779 15.3562 3.23694 15.0008C3.20344 14.9204 3.09621 14.8332 3.00909 14.8198C2.47965 14.7393 1.94351 14.679 1.40737 14.6119C0.985157 14.565 0.609859 14.4174 0.355193 14.0687C0.207754 13.8743 0.120631 13.606 0 13.3646C0 12.4392 0 11.5205 0 10.5951C0.0134035 10.5683 0.0335087 10.5482 0.0469122 10.5214C0.247965 9.8508 0.696982 9.48198 1.38726 9.3881C1.9234 9.31434 2.45284 9.24727 2.98898 9.19363C3.14312 9.18021 3.21684 9.11987 3.27045 8.97234C3.39779 8.63035 3.53852 8.28835 3.69266 7.95976C3.75968 7.82565 3.73958 7.73848 3.65245 7.63119C3.31066 7.20202 2.97558 6.77284 2.64719 6.33696C2.12445 5.65297 2.17807 4.87511 2.78793 4.26488C3.27716 3.76865 3.76638 3.27913 4.26231 2.78961C4.88558 2.17268 5.64957 2.11902 6.34656 2.65549C6.78887 2.99077 7.21778 3.33948 7.6668 3.66807C7.72712 3.71501 7.84105 3.73512 7.90806 3.7083C8.28336 3.56748 8.65866 3.40654 9.02726 3.2456C9.09427 3.21207 9.16799 3.1249 9.1814 3.05113C9.24171 2.64208 9.28862 2.23303 9.34224 1.82397C9.39585 1.41492 9.40926 0.999156 9.67062 0.64375C9.91859 0.301755 10.2604 0.120707 10.6491 0.0134144L10.6357 0ZM11.8487 17.0059C14.5495 17.1333 16.8616 14.9539 16.9956 12.1643C17.123 9.44845 14.9382 7.12155 12.1503 7.00084C9.44276 6.88014 7.13066 9.05952 7.00333 11.8424C6.8827 14.565 9.05406 16.8785 11.8554 17.0059H11.8487Z" fill="url(#paint0_linear_1114_8666)"/>
<defs>
<linearGradient id="paint0_linear_1114_8666" x1="12" y1="0" x2="12" y2="24" gradientUnits="userSpaceOnUse">
<stop stop-color="#DF7E8E"/>
<stop offset="1" stop-color="#AF4F64"/>
</linearGradient>
</defs>
</svg>
