<svg width="25" height="24" viewBox="0 0 25 24" fill="none" xmlns="http://www.w3.org/2000/svg">
<path d="M23.7013 10.732L18.7267 14.515C18.3075 14.8331 18.1323 15.3953 18.2921 15.9087L20.1828 21.9909C20.3791 22.6238 20.1606 23.3162 19.6419 23.7049C19.1232 24.0936 18.4228 24.0899 17.908 23.6957L13.0161 19.949C12.5932 19.6258 12.0176 19.6258 11.5948 19.949L6.70292 23.6957C6.18827 24.0953 5.48408 24.1019 4.96254 23.7121C4.441 23.3223 4.22231 22.6259 4.42206 21.9909L6.31878 15.9087C6.47863 15.3953 6.30334 14.8331 5.88422 14.515L0.909529 10.732C0.395623 10.3405 0.181786 9.64978 0.379511 9.01988C0.577236 8.38997 1.14173 7.96364 1.77866 7.96317H7.90097C8.42239 7.96317 8.88421 7.61294 9.0438 7.09646L10.9045 1.06294C11.1005 0.429479 11.667 0 12.3066 0C12.9463 0 13.5128 0.429479 13.7088 1.06294L15.5695 7.09643C15.729 7.61291 16.1908 7.96315 16.7123 7.96317H22.8346C23.4716 7.96364 24.036 8.38997 24.2338 9.01987C24.4315 9.64978 24.2177 10.3405 23.7037 10.732H23.7013Z" fill="#FDA829"/>
</svg>
