<svg width="123" height="123" viewBox="0 0 123 123" fill="none" xmlns="http://www.w3.org/2000/svg">
<path fill-rule="evenodd" clip-rule="evenodd" d="M118 61.5C118 92.7041 92.7041 118 61.5 118C30.2959 118 5 92.7041 5 61.5C5 30.2959 30.2959 5 61.5 5C92.7041 5 118 30.2959 118 61.5ZM84.2714 44.3786C85.9262 46.0335 85.9262 48.7165 84.2714 50.3714L56.0214 78.6214C54.3665 80.2762 51.6835 80.2762 50.0286 78.6214L38.7286 67.3214C37.0738 65.6665 37.0738 62.9835 38.7286 61.3286C40.3835 59.6738 43.0665 59.6738 44.7214 61.3286L53.025 69.6323L65.6518 57.0055L78.2786 44.3786C79.9335 42.7238 82.6165 42.7238 84.2714 44.3786Z" fill="url(#paint0_linear_2866_20343)"/>
<circle cx="61.5" cy="61.5" r="61" stroke="#EE788E"/>
<defs>
<linearGradient id="paint0_linear_2866_20343" x1="5.9202" y1="118" x2="118" y2="118" gradientUnits="userSpaceOnUse">
<stop stop-color="#DF7E8E"/>
<stop offset="1" stop-color="#AF4F64"/>
</linearGradient>
</defs>
</svg>
