<svg width="24" height="22" viewBox="0 0 24 22" fill="none" xmlns="http://www.w3.org/2000/svg">
<g clip-path="url(#clip0_2866_31128)">
<path d="M17.207 5.17773L15.7968 7.67757L18.5245 5.66203C18.9234 5.74749 19.3578 5.79735 19.7994 5.79735C22.114 5.79735 23.9943 4.50113 23.9943 2.89867C23.9943 1.29621 22.1212 0 19.7994 0C17.4776 0 15.6045 1.29621 15.6045 2.89867C15.6045 3.82454 16.2312 4.64357 17.207 5.17773Z" fill="url(#paint0_linear_2866_31128)"/>
<path d="M13.5392 4.74319C12.5919 3.58942 11.139 2.99829 9.22322 2.99829C6.89431 2.99829 5.13517 3.60366 4.00988 4.80017C2.87035 6.01092 2.74216 7.43533 2.72791 7.91962C2.32908 8.1689 2.00146 8.86686 2.00146 9.61467C2.00146 10.3625 2.34332 11.0961 2.7564 11.324H2.73504C2.74216 11.8225 3.03416 12.8481 4.08822 13.1472C4.46569 13.254 4.92863 13.2896 5.39156 13.2896C5.51976 13.2896 5.64083 13.2896 5.76903 13.2825C6.46699 14.2013 7.41422 14.9847 8.65346 14.9847C8.73892 14.9847 8.82439 14.9847 8.91697 14.9705C8.91697 14.9705 8.93122 14.9705 8.93834 14.9705C9.33717 14.9705 12.1717 14.8066 13.4822 10.3126C13.5107 10.2129 14.2585 7.81992 13.005 6.06789C12.2216 4.9711 10.847 4.38709 8.92409 4.33724C8.81726 4.32299 6.36728 4.21616 4.97848 5.84711C4.09535 6.88693 3.86032 8.38256 4.28764 10.3055C4.31613 10.4052 4.66511 11.559 5.37019 12.6985C4.96424 12.6985 4.5654 12.67 4.25203 12.5774C3.36178 12.3282 3.32617 11.3525 3.32617 11.3097H3.31192C3.71076 11.0676 4.03125 10.3625 4.03125 9.61467C4.03125 8.86686 3.71076 8.1689 3.31904 7.91962C3.33329 7.49942 3.44724 6.25307 4.4372 5.199C5.44854 4.12357 7.05812 3.5823 9.22322 3.5823C10.9539 3.5823 12.2501 4.09509 13.0834 5.10642C14.6787 7.04361 14.0733 10.22 14.0733 10.2557C14.0448 10.4123 14.1446 10.569 14.3012 10.5975C14.3226 10.5975 14.3368 10.5975 14.3582 10.5975C14.4935 10.5975 14.6146 10.5049 14.6431 10.3625C14.6716 10.22 15.3054 6.88693 13.5392 4.73607V4.74319ZM4.85028 10.1631C4.46569 8.44666 4.65799 7.12196 5.42005 6.2317C6.45274 5.01383 8.28311 4.92837 8.77453 4.92837C8.85287 4.92837 8.89561 4.92837 8.89561 4.92837C10.6263 4.9711 11.8513 5.46964 12.5207 6.40975C13.6033 7.91962 12.9267 10.1203 12.9124 10.1488C11.6661 14.4221 9.03805 14.4149 8.90985 14.3864H8.87424C7.89852 14.479 7.10797 13.952 6.48835 13.2398C6.58094 13.2327 6.66641 13.2255 6.74475 13.2184C6.83733 13.311 6.97265 13.3894 7.14358 13.4321C7.25041 13.4606 7.37149 13.4748 7.49968 13.4748C7.64925 13.4748 7.80593 13.4535 7.96262 13.4178C8.25462 13.3537 8.51814 13.2255 8.71043 13.0689C8.94546 12.8766 9.05229 12.6415 8.99531 12.4136C8.90273 12.0006 8.3116 11.8154 7.62788 11.9721C7.12934 12.086 6.75899 12.3495 6.6308 12.6415C6.45274 12.6558 6.26045 12.67 6.05391 12.6843C5.25624 11.5163 4.85028 10.1773 4.84316 10.1631H4.85028Z" fill="url(#paint1_linear_2866_31128)"/>
<path d="M12.4565 14.7498C10.9964 17.4419 8.90256 17.3564 8.90256 17.3564C7.21463 17.5131 6.03949 16.046 5.34866 14.7498C2.39301 14.7498 0 17.1428 0 20.0984V22.0071H17.798V20.0984C17.798 17.1499 15.405 14.7569 12.4565 14.7569V14.7498Z" fill="url(#paint2_linear_2866_31128)"/>
</g>
<defs>
<linearGradient id="paint0_linear_2866_31128" x1="19.7994" y1="0" x2="19.7994" y2="7.67757" gradientUnits="userSpaceOnUse">
<stop stop-color="#DF7E8E"/>
<stop offset="1" stop-color="#AF4F64"/>
</linearGradient>
<linearGradient id="paint1_linear_2866_31128" x1="8.3891" y1="2.99829" x2="8.3891" y2="14.9847" gradientUnits="userSpaceOnUse">
<stop stop-color="#DF7E8E"/>
<stop offset="1" stop-color="#AF4F64"/>
</linearGradient>
<linearGradient id="paint2_linear_2866_31128" x1="8.899" y1="14.7498" x2="8.899" y2="22.0071" gradientUnits="userSpaceOnUse">
<stop stop-color="#DF7E8E"/>
<stop offset="1" stop-color="#AF4F64"/>
</linearGradient>
<clipPath id="clip0_2866_31128">
<rect width="23.9942" height="22" fill="white"/>
</clipPath>
</defs>
</svg>
