<svg width="24" height="24" viewBox="0 0 24 24" fill="none" xmlns="http://www.w3.org/2000/svg">
<path d="M16.2225 17.7158C16.4325 17.5598 16.6229 17.3784 17.0039 17.0156L22.0116 12.2463C21.9047 12.2194 21.7873 12.186 21.6616 12.1445C21.1011 11.9593 20.3719 11.6115 19.6898 10.9619C19.0077 10.3123 18.6426 9.61782 18.4481 9.08396C18.4045 8.9643 18.3694 8.85247 18.3411 8.75068L13.3334 13.5199L13.3334 13.5199C12.9525 13.8827 12.762 14.0641 12.5982 14.2641C12.405 14.5 12.2394 14.7553 12.1042 15.0254C11.9896 15.2544 11.9044 15.4978 11.7341 15.9845L11.514 16.6134L11.1639 17.6135L10.8357 18.5512C10.7519 18.7907 10.8174 19.0548 11.0048 19.2333C11.1923 19.4118 11.4696 19.4742 11.7211 19.3943L12.7056 19.0818L13.7557 18.7484L14.4161 18.5388L14.4161 18.5388C14.9271 18.3765 15.1827 18.2954 15.4231 18.1863C15.7067 18.0575 15.9747 17.8998 16.2225 17.7158Z" fill="url(#paint0_linear_1114_8781)"/>
<path d="M23.2396 11.0768C24.2532 10.1115 24.2532 8.54639 23.2396 7.58109C22.2261 6.61579 20.5828 6.61579 19.5692 7.58109L19.1833 7.94858C19.1869 7.97819 19.2277 8.19676 19.2392 8.2581C19.2624 8.38096 19.3053 8.56058 19.3834 8.77492C19.5395 9.20356 19.8344 9.76624 20.3898 10.2952C20.9452 10.8241 21.536 11.105 21.9861 11.2537C22.2112 11.3281 22.3998 11.3689 22.5288 11.391C22.5932 11.402 22.8227 11.4408 22.8538 11.4442L23.2396 11.0768Z" fill="url(#paint1_linear_1114_8781)"/>
<path fill-rule="evenodd" clip-rule="evenodd" d="M1.40589 2.48182C0 3.82076 0 5.97576 0 10.2857V14.8572C0 19.1672 0 21.3221 1.40589 22.6611C2.81177 24 5.07452 24 9.6 24H12C16.5255 24 18.7882 24 20.1941 22.6611C21.5774 21.3436 21.5996 19.2361 21.6 15.063L18.218 18.2839C17.8943 18.5924 17.6292 18.8451 17.3298 19.0675C16.9789 19.3281 16.5994 19.5516 16.1977 19.7339C15.8549 19.8894 15.4991 20.0023 15.0646 20.1401L12.2905 21.0207C11.3922 21.3059 10.4018 21.0832 9.73227 20.4455C9.06272 19.8079 8.82892 18.8646 9.12835 18.0091L9.45655 17.0714L10.0267 15.4424L10.053 15.3672C10.1977 14.9534 10.3162 14.6144 10.4795 14.288C10.6709 13.9054 10.9055 13.5439 11.1792 13.2098C11.4127 12.9246 11.6781 12.6721 12.002 12.3638L16.8098 7.78504L18.144 6.51436L18.2966 6.36896C19.1551 5.55136 20.2804 5.14267 21.4056 5.14288C21.224 3.96511 20.873 3.12834 20.1941 2.48182C18.7882 1.14288 16.5255 1.14288 12 1.14288H9.6C5.07452 1.14288 2.81177 1.14288 1.40589 2.48182ZM5.1 9.14288C5.1 8.6695 5.50294 8.28574 6 8.28574H13.8C14.2971 8.28574 14.7 8.6695 14.7 9.14288C14.7 9.61627 14.2971 10 13.8 10H6C5.50294 10 5.1 9.61627 5.1 9.14288ZM5.1 13.7143C5.1 13.2409 5.50294 12.8572 6 12.8572H9C9.49706 12.8572 9.9 13.2409 9.9 13.7143C9.9 14.1877 9.49706 14.5715 9 14.5715H6C5.50294 14.5715 5.1 14.1877 5.1 13.7143ZM5.1 18.2857C5.1 17.8124 5.50294 17.4286 6 17.4286H7.8C8.29706 17.4286 8.7 17.8124 8.7 18.2857C8.7 18.7591 8.29706 19.1429 7.8 19.1429H6C5.50294 19.1429 5.1 18.7591 5.1 18.2857Z" fill="url(#paint2_linear_1114_8781)"/>
<defs>
<linearGradient id="paint0_linear_1114_8781" x1="10.9073" y1="19.4285" x2="23.9998" y2="19.4285" gradientUnits="userSpaceOnUse">
<stop stop-color="#DF7E8E"/>
<stop offset="1" stop-color="#AF4F64"/>
</linearGradient>
<linearGradient id="paint1_linear_1114_8781" x1="10.9073" y1="19.4285" x2="23.9998" y2="19.4285" gradientUnits="userSpaceOnUse">
<stop stop-color="#DF7E8E"/>
<stop offset="1" stop-color="#AF4F64"/>
</linearGradient>
<linearGradient id="paint2_linear_1114_8781" x1="0.175896" y1="24" x2="21.6" y2="24" gradientUnits="userSpaceOnUse">
<stop stop-color="#DF7E8E"/>
<stop offset="1" stop-color="#AF4F64"/>
</linearGradient>
</defs>
</svg>
