<svg width="25" height="25" viewBox="0 0 25 25" fill="none" xmlns="http://www.w3.org/2000/svg">
<path d="M12.264 0.881836C9.89058 0.881678 7.57042 1.58533 5.59693 2.90381C3.62344 4.22229 2.08523 6.09638 1.17686 8.28908C0.268484 10.4818 0.0307378 12.8946 0.49367 15.2224C0.956602 17.5503 2.09944 19.6885 3.77764 21.3668C5.45583 23.0451 7.59403 24.1881 9.92182 24.6512C12.2496 25.1143 14.6624 24.8767 16.8552 23.9685C19.048 23.0602 20.9222 21.5222 22.2408 19.5488C23.5594 17.5753 24.2632 15.2552 24.2632 12.8818C24.2633 11.306 23.953 9.74559 23.35 8.28969C22.747 6.83379 21.8632 5.51092 20.749 4.3966C19.6347 3.28229 18.3119 2.39836 16.8561 1.7953C15.4002 1.19223 13.8398 0.881836 12.264 0.881836ZM18.3821 11.3675C17.2109 11.4259 16.054 11.0905 15.0956 10.4148V10.6805C15.0956 12.1334 15.1236 13.588 15.0781 15.0401C15.0846 15.7868 14.9259 16.5258 14.6133 17.2041C14.3007 17.8823 13.842 18.483 13.2701 18.9632C12.7051 19.4598 12.0183 19.7973 11.28 19.9411C10.5416 20.0849 9.77839 20.03 9.06831 19.7818C8.35823 19.5336 7.72685 19.1012 7.23886 18.5288C6.75087 17.9564 6.4238 17.2645 6.29112 16.5241C6.08045 15.7499 6.08693 14.9326 6.30985 14.1618C6.53277 13.391 6.96352 12.6964 7.55494 12.1542C8.3519 11.4331 9.36292 10.9926 10.4337 10.8999C10.6547 10.8712 10.8773 10.86 11.115 10.8393V13.2329C10.8031 13.3127 10.4895 13.3781 10.1815 13.4675C9.97377 13.5294 9.77085 13.6065 9.57436 13.6981C9.33371 13.7998 9.11656 13.95 8.93641 14.1392C8.75626 14.3285 8.61695 14.5528 8.52715 14.7981C8.43735 15.0435 8.399 15.3047 8.41444 15.5655C8.42988 15.8264 8.49878 16.0812 8.6169 16.3143C8.74307 16.6056 8.93233 16.8653 9.17101 17.0747C9.4097 17.284 9.69188 17.4378 9.99718 17.5249C10.3025 17.6119 10.6233 17.6302 10.9365 17.5783C11.2497 17.5264 11.5475 17.4056 11.8084 17.2247C12.2984 16.8144 12.6055 16.2264 12.6621 15.5898C12.7057 15.2774 12.726 14.9622 12.7228 14.6467C12.7228 11.7265 12.718 8.80657 12.7084 5.88689C12.7084 5.84221 12.7132 5.79753 12.7164 5.74008H15.0597C15.3214 7.69088 16.31 8.92598 18.3805 9.09753L18.3821 11.3675Z" fill="url(#paint0_linear_1114_8759)"/>
<defs>
<linearGradient id="paint0_linear_1114_8759" x1="12.2632" y1="0.881836" x2="12.2632" y2="24.8818" gradientUnits="userSpaceOnUse">
<stop stop-color="#DF7E8E"/>
<stop offset="1" stop-color="#AF4F64"/>
</linearGradient>
</defs>
</svg>
