<svg width="20" height="20" viewBox="0 0 20 20" fill="none" xmlns="http://www.w3.org/2000/svg">
<path d="M9.9908 13.7495C9.56459 13.3601 9.14574 12.9755 8.72934 12.591C7.8255 11.7606 6.90451 10.9474 6.02271 10.0925C4.33505 8.4563 3.76188 6.46246 4.41098 4.21388C5.05518 1.98244 6.60322 0.593609 8.8763 0.120868C12.1341 -0.555177 15.2791 1.67871 15.7568 4.9732C16.0458 6.96704 15.4481 8.689 13.9883 10.0778C12.7268 11.2756 11.4311 12.4391 10.1525 13.6173C10.1059 13.6589 10.0545 13.6956 9.9908 13.7471V13.7495ZM9.9957 3.35657C8.60932 3.35657 7.50462 4.46617 7.50707 5.85255C7.50707 7.21444 8.62156 8.33138 9.98835 8.34118C11.3551 8.35098 12.4892 7.21934 12.4892 5.84765C12.4892 4.46372 11.3821 3.35657 9.9957 3.35657Z" fill="#DF7E8E"/>
<path d="M17.7966 19.5817C17.1107 19.5621 16.5033 19.2093 16.104 18.526C16.0232 18.3888 15.9399 18.3373 15.7807 18.3398C14.7078 18.3471 13.635 18.3471 12.5621 18.3398C12.3956 18.3398 12.3294 18.3961 12.2584 18.5406C11.8004 19.4788 11.0435 19.9981 9.99758 19.9981C8.95167 19.9981 8.1948 19.4739 7.7392 18.5358C7.66572 18.3863 7.58979 18.3398 7.43057 18.3422C6.36507 18.3496 5.29956 18.3496 4.23651 18.3422C4.07484 18.3422 3.97932 18.379 3.89114 18.5333C3.40125 19.3931 2.41413 19.7825 1.48579 19.5008C0.559901 19.2191 -0.054908 18.3349 0.0038785 17.3674C0.062665 16.4047 0.802398 15.5964 1.77482 15.4372C2.61008 15.3 3.46003 15.7091 3.89603 16.4733C3.97442 16.6105 4.05525 16.6644 4.21691 16.6644C5.28977 16.657 6.36262 16.657 7.43547 16.6644C7.59959 16.6644 7.67062 16.6105 7.74165 16.4635C8.19725 15.5229 8.96147 15.0037 10.0049 15.0061C11.0484 15.0061 11.8102 15.5278 12.2633 16.4709C12.3368 16.6227 12.4152 16.6668 12.5744 16.6644C13.6399 16.657 14.7054 16.657 15.7685 16.6644C15.9326 16.6644 16.0256 16.6227 16.1114 16.4709C16.5939 15.6234 17.5761 15.2315 18.4947 15.5009C19.4181 15.7728 20.0329 16.6301 19.9986 17.5952C19.9594 18.7023 19.0336 19.5841 17.799 19.5866L17.7966 19.5817ZM9.99023 16.6815C9.53219 16.684 9.17212 17.044 9.16968 17.4996C9.16968 17.9601 9.54689 18.3324 10.0098 18.3276C10.463 18.3227 10.8304 17.9552 10.8304 17.507C10.8304 17.044 10.4605 16.6815 9.99023 16.684V16.6815Z" fill="#DF7E8E"/>
</svg>
