<svg width="128" height="128" viewBox="0 0 128 128" fill="none" xmlns="http://www.w3.org/2000/svg">

<path fill-rule="evenodd" clip-rule="evenodd" d="M122.334 42.7235C125.29 42.7235 127.686 45.1126 127.686 48.0597C127.686 51.0068 125.29 53.3959 122.334 53.3959H91.7504C94.7063 53.3959 97.1025 55.785 97.1025 58.732C97.1025 61.6791 94.7063 64.0682 91.7504 64.0682H108.571C111.527 64.0682 113.923 66.4573 113.923 69.4044C113.923 72.3515 111.527 74.7406 108.571 74.7406H100.792C97.0655 74.7406 94.0442 77.1297 94.0442 80.0768C94.0442 82.0415 95.5733 83.8202 98.6317 85.4129C101.588 85.4129 103.984 87.802 103.984 90.7491C103.984 93.6962 101.588 96.0853 98.6317 96.0853H35.171C32.2151 96.0853 29.8189 93.6962 29.8189 90.7491C29.8189 87.802 32.2151 85.4129 35.171 85.4129H5.35211C2.39622 85.4129 0 83.0238 0 80.0768C0 77.1297 2.39622 74.7406 5.35211 74.7406H35.9356C38.8915 74.7406 41.2877 72.3515 41.2877 69.4044C41.2877 66.4573 38.8915 64.0682 35.9356 64.0682H16.8209C13.865 64.0682 11.4688 61.6791 11.4688 58.732C11.4688 55.785 13.865 53.3959 16.8209 53.3959H47.4044C44.4485 53.3959 42.0523 51.0068 42.0523 48.0597C42.0523 45.1126 44.4485 42.7235 47.4044 42.7235H122.334ZM122.334 64.0682C125.29 64.0682 127.686 66.4573 127.686 69.4044C127.686 72.3515 125.29 74.7406 122.334 74.7406C119.378 74.7406 116.982 72.3515 116.982 69.4044C116.982 66.4573 119.378 64.0682 122.334 64.0682Z" fill="#FFD0D9" fill-opacity="0.24"/>
<path d="M96.7616 93.2565H99.0508C99.9588 93.2565 100.693 93.9932 100.693 94.899V98.8993C100.693 99.8052 99.9588 100.542 99.0508 100.542H27.8115C26.9035 100.542 26.1689 99.8052 26.1689 98.8993V94.899C26.1689 93.9932 26.9035 93.2565 27.8115 93.2565H96.7616Z" fill="#FFD0D9"/>
<path d="M99.235 54.9964C99.4534 56.0843 99.3956 57.2385 98.9095 58.2343C98.0743 59.9432 96.3247 61.1211 94.301 61.1211C92.8919 61.1211 91.6134 60.5493 90.6861 59.6242C89.7717 58.7097 89.1956 57.4484 89.1742 56.0521V56.0393V56.035L86.0283 34.5921H94.0611C94.2196 34.5921 94.3716 34.5685 94.5151 34.5236L95.1426 34.5921L99.2393 54.9964H99.235Z" fill="#FFD0D9"/>
<path d="M95.5812 28.8335V33.0652C95.5812 33.7504 95.1293 34.3286 94.5104 34.5214C94.3669 34.5663 94.2149 34.5899 94.0564 34.5899H32.805C32.5438 34.5899 32.2953 34.5235 32.0791 34.4079C31.6036 34.1488 31.2803 33.6455 31.2803 33.0652V28.8335C31.2803 27.9898 31.9634 27.3066 32.805 27.3066H94.0543C94.8959 27.3066 95.579 27.9898 95.579 28.8335H95.5812Z" fill="#FFD0D9"/>
<path d="M89.1703 56.0371V56.0521C89.1275 58.8596 86.8489 61.121 84.0435 61.121C82.628 61.121 81.3452 60.545 80.4158 59.6113C79.5078 58.699 78.9382 57.4462 78.9146 56.0585V56.0478L76.9102 34.592H86.0266L89.1724 56.0349L89.1703 56.0371Z" fill="#FFD0D9"/>
<path d="M76.908 34.592L78.9125 56.0478V56.0585C78.906 58.8981 76.6103 61.1981 73.7836 61.1981C72.3659 61.1981 71.0853 60.6221 70.1558 59.6905C69.2286 58.7568 68.6546 57.4698 68.6546 56.0478L67.7959 34.592H76.9102H76.908Z" fill="#FFD0D9"/>
<path d="M67.7956 34.592L68.6543 56.0478C68.6543 58.8917 66.3586 61.1981 63.5254 61.1981C62.1077 61.1981 60.8271 60.6221 59.8977 59.6905C58.9704 58.7568 58.3965 57.4698 58.3965 56.0478L58.6834 34.592H67.7977H67.7956Z" fill="#FFD0D9"/>
<path d="M58.6813 34.592L58.3943 56.0478C58.3943 58.8917 56.0987 61.1981 53.2654 61.1981C51.8499 61.1981 50.5671 60.6221 49.6399 59.6905C48.7126 58.7568 48.1387 57.4698 48.1387 56.0478L49.5692 34.592H58.6835H58.6813Z" fill="#FFD0D9"/>
<path d="M49.5692 34.592L48.1387 56.0478C48.1387 58.8917 45.843 61.1981 43.0098 61.1981C41.5942 61.1981 40.3115 60.6221 39.3821 59.6905C38.4548 58.7568 37.8809 57.4698 37.8809 56.0478L40.7419 34.592H49.5713H49.5692Z" fill="#FFD0D9"/>
<path d="M40.7391 34.5921L37.8781 56.0478C37.8781 57.4698 37.3042 58.7568 36.3769 59.6905C35.4475 60.6221 34.1647 61.1981 32.7492 61.1981C30.7276 61.1981 28.978 60.0203 28.1428 58.3135C27.6567 57.3156 27.5988 56.1635 27.8151 55.0756L31.9118 34.5921L32.081 34.41C32.2973 34.5257 32.5457 34.5921 32.807 34.5921H40.7413H40.7391Z" fill="#FFD0D9"/>
<path d="M78.2671 34.592H32.805C32.5438 34.592 32.2953 34.5257 32.0791 34.41C31.6036 34.1509 31.2803 33.6476 31.2803 33.0673V28.8335C31.2803 27.9898 31.9634 27.3066 32.805 27.3066H94.0543C94.8959 27.3066 95.579 27.9898 95.579 28.8335V33.0652C95.579 33.7504 95.1272 34.3286 94.5083 34.5214C94.3648 34.5663 94.2127 34.5899 94.0543 34.5899H87.8161" stroke="#EE788E" stroke-width="2" stroke-linecap="round" stroke-linejoin="round"/>
<path d="M96.7616 93.2565H99.0508C99.9588 93.2565 100.693 93.9932 100.693 94.899V98.8993C100.693 99.8052 99.9588 100.542 99.0508 100.542H27.8115C26.9035 100.542 26.1689 99.8052 26.1689 98.8993V94.899C26.1689 93.9932 26.9035 93.2565 27.8115 93.2565H96.7616Z" stroke="#EE788E" stroke-width="2" stroke-linecap="round" stroke-linejoin="round"/>
<path d="M78.2676 34.592H86.0241H87.8166" stroke="#EE788E" stroke-width="2" stroke-linecap="round" stroke-linejoin="round"/>
<path d="M96.7607 93.2587V93.2566V66.6162" stroke="#EE788E" stroke-width="2" stroke-linecap="round" stroke-linejoin="round"/>
<path d="M30.1016 93.2587V93.2566V66.6162" stroke="#EE788E" stroke-width="2" stroke-linecap="round" stroke-linejoin="round"/>
<path d="M74.1943 93.2265V66.6311H89.399V93.2265" stroke="#EE788E" stroke-width="2" stroke-linecap="round" stroke-linejoin="round"/>
<path d="M78.9951 76.7433V83.1121" stroke="#EE788E" stroke-width="2" stroke-linecap="round" stroke-linejoin="round"/>
<path d="M52.1499 66.6162H67.2519V86.8149H52.1499H37.0459V66.6162H52.1499Z" stroke="#EE788E" stroke-width="2" stroke-linecap="round" stroke-linejoin="round"/>
<path d="M52.1504 86.8149V66.6162" stroke="#EE788E" stroke-width="2" stroke-linecap="round" stroke-linejoin="round"/>
<path d="M48.1357 56.0479C48.1357 58.8918 45.8401 61.1982 43.0068 61.1982C41.5913 61.1982 40.3085 60.6221 39.3791 59.6906C38.4519 58.7569 37.8779 57.4698 37.8779 56.0479" stroke="#EE788E" stroke-width="2" stroke-linecap="round" stroke-linejoin="round"/>
<path d="M58.3943 56.0479C58.3943 58.8918 56.0987 61.1982 53.2654 61.1982C51.8499 61.1982 50.5671 60.6221 49.6399 59.6906C48.7126 58.7569 48.1387 57.4698 48.1387 56.0479" stroke="#EE788E" stroke-width="2" stroke-linecap="round" stroke-linejoin="round"/>
<path d="M68.6543 56.0479C68.6543 58.8918 66.3586 61.1982 63.5254 61.1982C62.1077 61.1982 60.8271 60.6221 59.8977 59.6906C58.9704 58.7569 58.3965 57.4698 58.3965 56.0479" stroke="#EE788E" stroke-width="2" stroke-linecap="round" stroke-linejoin="round"/>
<path d="M78.9141 56.0479V56.0586C78.9076 58.8982 76.612 61.1982 73.7852 61.1982C72.3675 61.1982 71.0869 60.6221 70.1574 59.6906C69.2302 58.7569 68.6562 57.4698 68.6562 56.0479" stroke="#EE788E" stroke-width="2" stroke-linecap="round" stroke-linejoin="round"/>
<path d="M78.9141 56.0586C78.9376 57.4463 79.5073 58.6991 80.4153 59.6113C81.3447 60.545 82.6274 61.1211 84.043 61.1211C86.8483 61.1211 89.1269 58.8597 89.1697 56.0522V56.0393" stroke="#EE788E" stroke-width="2" stroke-linecap="round" stroke-linejoin="round"/>
<path d="M31.9099 34.592L27.8132 55.0756C27.5969 56.1634 27.6547 57.3156 28.1408 58.3135C28.976 60.0203 30.7256 61.1981 32.7472 61.1981C34.1628 61.1981 35.4455 60.6221 36.3749 59.6905C37.3022 58.7568 37.8761 57.4698 37.8761 56.0478" stroke="#DF7E8E" stroke-width="2" stroke-linecap="round" stroke-linejoin="round"/>
<path d="M40.739 34.592L37.8779 56.0478" stroke="#DF7E8E" stroke-width="2" stroke-linecap="round" stroke-linejoin="round"/>
<path d="M49.5684 34.592L48.1357 56.0478" stroke="#DF7E8E" stroke-width="2" stroke-linecap="round" stroke-linejoin="round"/>
<path d="M58.6815 34.592L58.3945 56.0478" stroke="#DF7E8E" stroke-width="2" stroke-linecap="round" stroke-linejoin="round"/>
<path d="M67.7959 34.592L68.6546 56.0478" stroke="#DF7E8E" stroke-width="2" stroke-linecap="round" stroke-linejoin="round"/>
<path d="M76.9082 34.592L78.9148 56.0478" stroke="#DF7E8E" stroke-width="2" stroke-linecap="round" stroke-linejoin="round"/>
<path d="M86.0234 34.592L89.1693 56.0349" stroke="#DF7E8E" stroke-width="2" stroke-linecap="round" stroke-linejoin="round"/>
<path d="M89.1699 56.0349V56.0372V56.0395" stroke="#051B2B" stroke-width="2" stroke-linecap="round" stroke-linejoin="round"/>
<path d="M95.1379 34.592L99.2346 54.9963C99.4531 56.0842 99.3952 57.2385 98.9091 58.2343C98.0739 59.9432 96.3243 61.121 94.3006 61.121C92.8915 61.121 91.613 60.5492 90.6857 59.6241C89.7713 58.7097 89.1952 57.4483 89.1738 56.0521" stroke="#EE788E" stroke-width="2" stroke-linecap="round" stroke-linejoin="round"/>
</svg>
