<svg width="47" height="47" viewBox="0 0 47 47" fill="none" xmlns="http://www.w3.org/2000/svg">
<path d="M20.8767 29.5453H17.6886L19.6811 17.3003H22.8695L20.8767 29.5453ZM15.0067 17.3003L11.9673 25.7225L11.6077 23.9089L11.608 23.9095L10.5353 18.4028C10.5353 18.4028 10.4056 17.3003 9.02301 17.3003H3.99841L3.93945 17.5076C3.93945 17.5076 5.47598 17.8273 7.27423 18.9072L10.044 29.5457H13.3657L18.4377 17.3003L15.0067 17.3003ZM40.0822 29.5453H43.0095L40.4572 17.2999H37.8945C36.711 17.2999 36.4228 18.2125 36.4228 18.2125L31.6681 29.5453H34.9914L35.656 27.7265H39.7088L40.0822 29.5453ZM36.5741 25.2138L38.2492 20.6314L39.1916 25.2138H36.5741ZM31.9174 20.2449L32.3723 17.6154C32.3723 17.6154 30.9684 17.0815 29.505 17.0815C27.9229 17.0815 24.1659 17.7729 24.1659 21.1352C24.1659 24.2987 28.5754 24.338 28.5754 25.9996C28.5754 27.6613 24.6202 27.3635 23.3149 26.3157L22.841 29.0651C22.841 29.0651 24.2645 29.7566 26.4394 29.7566C28.615 29.7566 31.897 28.6302 31.897 25.5643C31.897 22.3805 27.448 22.0841 27.448 20.6999C27.4483 19.3153 30.5531 19.4932 31.9174 20.2449Z" fill="#2566AF"/>
<path d="M11.608 23.9099L10.5353 18.4032C10.5353 18.4032 10.4056 17.3006 9.02301 17.3006H3.99841L3.93945 17.508C3.93945 17.508 6.35447 18.0085 8.6709 19.8837C10.8858 21.676 11.608 23.9099 11.608 23.9099Z" fill="#E6A540"/>
</svg>
