<svg width="26" height="23" viewBox="0 0 26 23" fill="none" xmlns="http://www.w3.org/2000/svg">
<g clip-path="url(#clip0_2866_31196)">
<path d="M13.6363 23C10.3778 23 7.12016 23 3.86173 23C1.60285 22.9992 0 21.4063 0 19.161C0 14.0542 0 8.94735 0 3.84051C0 1.58215 1.60285 0 3.8881 0C9.52483 0 15.1616 0 20.7983 0.000768408C21.6575 0.000768408 22.2856 0.594748 22.2794 1.39236C22.274 2.11005 21.6994 2.71325 20.9766 2.75628C20.8611 2.7632 20.7448 2.75935 20.6285 2.75935C15.0592 2.75935 9.49071 2.75935 3.92144 2.76012C3.78651 2.76012 3.64771 2.75398 3.51743 2.78164C3.05216 2.88076 2.73888 3.31952 2.78929 3.78057C2.83892 4.22778 3.22431 4.57741 3.69268 4.59739C3.78884 4.60123 3.88577 4.59892 3.9827 4.59892C10.5089 4.59892 17.035 4.59816 23.5612 4.59892C24.9935 4.59892 25.9876 5.58172 25.993 6.99482C25.9953 7.57958 25.993 8.16357 25.993 8.74833C25.993 9.04852 25.8444 9.19862 25.5471 9.19862C24.1645 9.19862 22.7819 9.19554 21.3993 9.19862C18.7294 9.20553 16.6667 11.2895 16.7109 13.9289C16.7512 16.3187 18.7883 18.3557 21.2008 18.3919C22.709 18.4141 24.2172 18.4011 25.7255 18.3934C25.931 18.3926 26.0054 18.4257 25.9992 18.6523C25.9806 19.3032 25.9946 19.9556 25.9922 20.6064C25.9868 22.0049 24.9927 22.9954 23.5845 22.9969C20.2679 23 16.9521 22.9977 13.6355 22.9977L13.6363 23Z" fill="url(#paint0_linear_2866_31196)"/>
<path d="M25.9921 13.8245C25.9921 14.6582 25.9867 15.4919 25.996 16.3257C25.9983 16.5055 25.9611 16.5662 25.7633 16.5654C24.2939 16.5562 22.8236 16.5685 21.3541 16.5577C19.7978 16.5462 18.568 15.3221 18.5664 13.8045C18.5649 12.2838 19.7916 11.0559 21.3456 11.0436C22.8151 11.0321 24.2853 11.0459 25.7548 11.0352C25.9735 11.0336 25.9983 11.1089 25.996 11.2957C25.9859 12.1386 25.9913 12.9823 25.9913 13.8253L25.9921 13.8245Z" fill="url(#paint1_linear_2866_31196)"/>
</g>
<defs>
<linearGradient id="paint0_linear_2866_31196" x1="12.9998" y1="0" x2="12.9998" y2="23" gradientUnits="userSpaceOnUse">
<stop stop-color="#DF7E8E"/>
<stop offset="1" stop-color="#AF4A64"/>
</linearGradient>
<linearGradient id="paint1_linear_2866_31196" x1="22.2813" y1="11.0352" x2="22.2813" y2="16.5654" gradientUnits="userSpaceOnUse">
<stop stop-color="#DF7E8E"/>
<stop offset="1" stop-color="#AF4A64"/>
</linearGradient>
<clipPath id="clip0_2866_31196">
<rect width="26" height="23" fill="white"/>
</clipPath>
</defs>
</svg>
