<svg width="24" height="25" viewBox="0 0 24 25" fill="none" xmlns="http://www.w3.org/2000/svg">
<path d="M21.0438 24.7571H2.95618C1.32619 24.7571 0 23.4309 0 21.8009V3.71326C0 2.08327 1.32619 0.75708 2.95618 0.75708H21.0438C22.6738 0.75708 24 2.08327 24 3.71326V21.8009C24 23.4309 22.6738 24.7571 21.0438 24.7571Z" fill="white"/>
<path d="M20.7572 5.62779C19.3119 5.62779 17.8666 5.62779 16.4273 5.62779V5.72125C16.8385 5.79135 17.2145 6.0542 17.4143 6.41636C17.7726 7.07059 17.5318 7.77738 17.2263 8.37904C17.0618 8.71199 13.0961 16.7087 13.0961 16.7087C13.0961 16.7087 8.68395 7.52621 8.22569 6.67922C8.07882 6.41052 7.89081 6.20608 7.69106 6.0542C7.30331 5.75046 6.80393 5.62195 6.31043 5.62195H3.24365V5.77382C3.36115 5.75046 4.33054 6.06589 4.41866 6.11846C4.79466 6.34627 5.02967 6.68506 5.25879 7.05306C5.7523 7.84164 6.0813 8.71783 6.48668 9.55314C7.54419 11.7378 8.60757 13.9224 9.66508 16.1071C10.2761 17.3688 10.9341 18.6305 11.5451 19.8922C11.551 19.8805 17.003 8.96317 17.0735 8.82882C17.4613 8.04608 17.8138 7.25167 18.4718 6.65002C19.0945 6.08341 19.917 5.75046 20.7572 5.72125C20.7572 5.6862 20.7572 5.657 20.7572 5.62779Z" fill="url(#paint0_linear_977_64)"/>
<defs>
<linearGradient id="paint0_linear_977_64" x1="6.89702" y1="8.57254" x2="18.3647" y2="22.7353" gradientUnits="userSpaceOnUse">
<stop stop-color="#DF7E8E"/>
<stop offset="1" stop-color="#A64251"/>
</linearGradient>
</defs>
</svg>
