<svg width="24" height="22" viewBox="0 0 24 22" fill="none" xmlns="http://www.w3.org/2000/svg">
<path d="M20.3074 22H3.69463C2.19755 22 0.979492 20.7843 0.979492 19.2902V2.70983C0.979492 1.21568 2.19755 0 3.69463 0H20.3074C21.8045 0 23.0225 1.21568 23.0225 2.70983V19.2902C23.0225 20.7843 21.8045 22 20.3074 22Z" fill="#949BAB"/>
<path d="M19.9967 4.46092C18.6767 4.46092 17.3567 4.46092 16.042 4.46092V4.54661C16.4176 4.61087 16.761 4.85187 16.9435 5.1839C17.2708 5.78371 17.0508 6.43171 16.7718 6.98332C16.6215 7.28857 12.9996 14.6201 12.9996 14.6201C12.9996 14.6201 8.96979 6.20143 8.55125 5.42489C8.4171 5.17855 8.24539 4.99111 8.06295 4.85187C7.7088 4.57339 7.2527 4.45557 6.80197 4.45557H4.00098V4.59481C4.10829 4.57339 4.99367 4.86258 5.07415 4.91078C5.41757 5.11964 5.63221 5.43025 5.84148 5.76764C6.29221 6.49062 6.5927 7.29393 6.96294 8.05975C7.9288 10.0627 8.90003 12.0656 9.86589 14.0685C10.4239 15.2253 11.0249 16.382 11.583 17.5388C11.5883 17.5281 16.5679 7.51886 16.6323 7.39568C16.9864 6.67806 17.3084 5.94972 17.9093 5.39812C18.4781 4.87864 19.2294 4.57339 19.9967 4.54661C19.9967 4.51448 19.9967 4.4877 19.9967 4.46092Z" fill="white"/>
</svg>
