<svg width="25" height="25" viewBox="0 0 25 25" fill="none" xmlns="http://www.w3.org/2000/svg">
<path d="M11.4824 13.6974L15.0992 12.3194L11.4824 10.9431V13.6974Z" fill="url(#paint0_linear_1170_59)"/>
<path d="M12.8652 0.96582C10.4918 0.96582 8.17171 1.66963 6.1983 2.98824C4.2249 4.30685 2.68685 6.18104 1.77862 8.3738C0.870392 10.5666 0.632784 12.9794 1.09587 15.3072C1.55896 17.635 2.70194 19.7732 4.38025 21.4514C6.05856 23.1296 8.1968 24.2724 10.5246 24.7353C12.8525 25.1983 15.2653 24.9605 17.458 24.0521C19.6507 23.1438 21.5248 21.6056 22.8433 19.6321C24.1617 17.6586 24.8654 15.3384 24.8652 12.965C24.865 9.78256 23.6006 6.73052 21.3502 4.48026C19.0998 2.22999 16.0477 0.96582 12.8652 0.96582ZM19.5322 15.6666C19.5327 16.1845 19.3274 16.6813 18.9616 17.0479C18.5957 17.4145 18.0993 17.6208 17.5815 17.6214H8.14901C7.63113 17.6208 7.1347 17.4145 6.76887 17.0479C6.40305 16.6813 6.19778 16.1845 6.1982 15.6666V10.2634C6.19799 10.0071 6.24831 9.75319 6.34625 9.51628C6.44418 9.27936 6.58781 9.06407 6.76897 8.88269C6.95013 8.70131 7.16526 8.5574 7.40205 8.45917C7.63884 8.36095 7.89265 8.31034 8.14901 8.31023H17.5815C17.8378 8.31034 18.0916 8.36095 18.3284 8.45917C18.5652 8.5574 18.7803 8.70131 18.9615 8.88269C19.1427 9.06407 19.2863 9.27936 19.3842 9.51628C19.4822 9.75319 19.5325 10.0071 19.5322 10.2634V15.6666Z" fill="url(#paint1_linear_1170_59)"/>
<defs>
<linearGradient id="paint0_linear_1170_59" x1="13.2908" y1="10.9431" x2="13.2908" y2="13.6974" gradientUnits="userSpaceOnUse">
<stop stop-color="#DF7E8E"/>
<stop offset="1" stop-color="#AF4F64"/>
</linearGradient>
<linearGradient id="paint1_linear_1170_59" x1="12.8652" y1="0.96582" x2="12.8652" y2="24.9658" gradientUnits="userSpaceOnUse">
<stop stop-color="#DF7E8E"/>
<stop offset="1" stop-color="#AF4F64"/>
</linearGradient>
</defs>
</svg>
